<svg xmlns="http://www.w3.org/2000/svg" xmlns:xlink="http://www.w3.org/1999/xlink" id="Layer_1" version="1.1" viewBox="116.29 44.5 611.67 758.87" width="283.95408301315643" height="352.1696146745202">
  <!-- Generator: Adobe Illustrator 29.0.0, SVG Export Plug-In . SVG Version: 2.1.0 Build 186)  -->
  <defs>
    <style>
      .st0 {
        fill: #fff;
      }

      .st1 {
        fill: #dad6dd;
      }

      .st2 {
        fill: #faaa65;
      }

      .st3 {
        fill: none;
      }

      .st4 {
        fill: #b0814a;
      }

      .st5 {
        fill: #231f20;
      }

      .st6 {
        fill: #5f308f;
      }

      .st7 {
        fill: #45296f;
      }

      .st8 {
        fill: #ef3e2d;
      }

      .st9 {
        clip-path: url(#clippath);
      }
    </style>
    <clipPath id="clippath">
      <rect class="st3" x="89.6" y="-37.2" width="671.1" height="948.9"/>
    </clipPath>
  </defs>
  <rect class="st3" width="850.4" height="850.4"/>
  <g class="st9">
    <g>
      <path class="st6" d="M292.9,402.3v-85.1s0,0,.1,0c16.3-7.3,19.2-3.3,36.2-10.2,6.8-2.8,11.8-6,15.5-8.9v23.4c-9.9,11.6-15.9,26.6-15.9,43s6,31.4,15.9,43v27.3c-14.6-7.6-21.2-12.8-21.2-12.8,0,0,9.1-11.9,11.2-14.5,2.1-2.6,4.2-4.8,3.7-6.1s-1.4-1.4-3.8-1.4h-38.8l-3.1,3.5v-1.1c0,0,0,0,0,0h0Z"/>
      <path class="st6" d="M292.9,443.6v135.9c0,15.5,4.2,25,14.1,31.8,10,6.8,23.6,5.5,28.4,5.4,0,0-1.6,3.8-10.2,9.8-8,5.6-18.6,8.1-35.1,7.7s-29-7.7-37.2-19.1c-7.4-10.2-9-22.1-9-35.7v-266.4s-17.4-22.8-17.4-22.8c0,0,2-11.9,17.4-21v-34h49.1v21.8c10.7-2.7,18.1-10.1,20.9-13.3l.6-.7-.6-.7s-2.9-.6-5.6-1.2c-4.6-1-6.8-1.4-7.2-2-.4-.4-1.8-3.5-3.9-8.2h-1.3c0,0-103.8,0-103.8,0v325.4c0,31.8,6.1,57.6,41.9,77.7,21.6,12.1,49.2,10.6,73.3,4,24.1-6.6,37.7-27.1,37.7-27.1v-136.8c-2-.8-4-1.6-6.1-2.5-19.8-8.6-35.2-19.8-45.8-29.2v1.2h0,0,0Z"/>
      <path class="st6" d="M551.3,403.4l-3.1-3.5h-38.8c-2.4,0-3.3.1-3.8,1.4-.5,1.3,1.5,3.4,3.7,6.1,2.1,2.6,11.2,14.5,11.2,14.5,0,0-6.5,5.2-21.2,12.8v-.8c0,0,0-26.5,0-26.5,9.9-11.6,15.9-26.5,15.9-43s-6-31.4-15.8-42.9v-.5s0-22.9,0-22.9c3.7,3,8.8,6.1,15.5,8.9,17,6.9,20,2.9,36.2,10.2,0,0,.1,0,.2,0v.5s0,84.3,0,84.3v1.5c0,0,0,0,0,0h0Z"/>
      <path class="st6" d="M551.3,443.4v136.1c0,15.5-4.2,25-14.1,31.8-10,6.8-23.6,5.5-28.4,5.4,0,0,1.6,3.8,10.2,9.8,8,5.6,18.6,8.1,35.1,7.7s29-7.7,37.2-19.1c7.5-10.2,9-22.1,9-35.7v-266.4s17.4-22.8,17.4-22.8c0,0-2-11.9-17.3-21v-.4s0-33.6,0-33.6h-49.1v21.8c-10.5-2.7-17.9-9.9-20.8-13.1l-.7-.8.6-.7s2.8-.6,5.6-1.2c4.6-1,6.8-1.4,7.2-2,.3-.4,1.8-3.6,4-8.3h.7s104.4,0,104.4,0v325.4c0,31.8-6.2,57.6-41.9,77.7-21.6,12.1-49.2,10.6-73.3,4-24.1-6.6-37.7-27.1-37.7-27.1v-136.8c2.1-.8,4.1-1.6,6.1-2.5,19.9-8.6,35.2-19.8,45.9-29.3v1s0,0,0,0h0Z"/>
      <path class="st0" d="M243.8,268.6v-33.3h49.1v21.8c-.8.2-1.6.4-2.4.5-15.1,2.6-20.5,1-37.1,7.2-3.6,1.4-6.8,2.9-9.5,4.5v-.7h0Z"/>
      <path class="st0" d="M292.9,443.6v135.9c0,15.5,4.2,25,14.1,31.8,10,6.8,23.6,5.5,28.4,5.4,0,0-1.6,3.8-10.2,9.8-8,5.6-18.6,8.1-35.1,7.7s-29-7.7-37.2-19.1c-7.4-10.2-9-22.1-9-35.7v-266.4s24.9,32.9,24.9,32.9c1.5-7.6,9.4-22.2,24.1-28.9v86.2c0,0-17.8,20.3-17.8,20.3,0,0,6,8.3,17.9,18.7v1.2h0,0,0Z"/>
      <path class="st0" d="M600.3,313.6v265.9c0,13.6-1.6,25.5-9,35.7-8.3,11.4-20.7,18.7-37.2,19.1-16.5.4-27.1-2.1-35.1-7.7-8.6-6.1-10.2-9.8-10.2-9.8,4.8.1,18.4,1.4,28.4-5.4s14.1-16.3,14.1-31.8v-137.1c11.8-10.5,17.8-18.7,17.8-18.7l-17.7-20.3v-1.5c0,0,0-84.3,0-84.3v-.5c14.7,6.7,22.6,21.3,24.1,28.8l25-32.9v.5h0,0,0Z"/>
      <path class="st0" d="M600.3,268.9v-33.6h-49.1v21.8c.7.2,1.6.4,2.4.5,15.2,2.6,20.5,1,37.1,7.2,3.7,1.4,6.8,2.9,9.6,4.5v-.4h0s0,0,0,0Z"/>
      <path class="st2" d="M253.4,264.8c16.7-6.2,22-4.5,37.1-7.2l38.8,49.2c-17,6.9-20,2.9-36.2,10.2l-39.6-52.3h0Z"/>
      <path class="st2" d="M551.1,317.1c-16.3-7.3-19.2-3.3-36.2-10.2l38.8-49.2c15.2,2.6,20.5,1,37.1,7.2l-39.7,52.3h0Z"/>
      <path class="st6" d="M525.6,231h-26.2v42.4l27.2-34s0-2.9,0-5.7c0-1,0-1.8,0-2.6h-.8c0,0,0,0,0,0h0Z"/>
      <path class="st6" d="M344.8,272.3v-41.3h-27.1c0,.9,0,1.7,0,2.7,0,2.8,0,5.7,0,5.7l27,33.9v-.9c.1,0,.1,0,.1,0h0Z"/>
      <path class="st5" d="M514.9,306.8c-12.6-5.2-19.4-12-22.4-15.6l-.5-.7,37.9-47.4.7.8c3.1,3.5,11.4,11.6,23.2,13.7l-38.8,49.3h0Z"/>
      <path class="st5" d="M290.5,257.6c12-2.1,20.3-10.4,23.3-13.8l.6-.7,37.9,47.4-.6.8c-3,3.7-9.8,10.4-22.4,15.5l-38.8-49.2h0,0,0Z"/>
      <path class="st8" d="M590.8,264.8c24.2,9,26.9,25.5,26.9,25.5l-42.3,55.7c-1.5-7.6-9.5-22.3-24.2-28.9l39.7-52.3h0Z"/>
      <path class="st8" d="M293,317.1c-14.8,6.6-22.7,21.4-24.2,28.9l-42.3-55.7s2.8-16.5,26.9-25.5l39.6,52.3h0Z"/>
      <path class="st2" d="M368.3,302.8l-50.7-63.4s0-2.9,0-5.7c0-4.7.1-6.9-.3-7.5-.6-.8-8.8-7-18.9-14.3s-10.5-7.8-11.5-6.9c-1,.8-.7,1.4,4.2,12.8s9.2,20.8,9.8,21.6c.4.6,2.6,1,7.2,2,2.7.6,5.6,1.2,5.6,1.2l50.4,63,.2.3c1.5-.8,3-1.5,4.6-2.2l-.6-.8h0Z"/>
      <path class="st2" d="M480.3,305.1l50.1-62.7s2.8-.6,5.6-1.2c4.6-1,6.8-1.4,7.2-2,.6-.8,4.9-10.1,9.8-21.6,4.9-11.4,5.2-12,4.2-12.8-1-.8-1.5-.4-11.5,6.9-10.1,7.3-18.3,13.5-18.9,14.3-.4.6-.4,2.8-.3,7.5,0,2.8,0,5.7,0,5.7l-50.9,63.7-.4.5c1.5.7,3.1,1.4,4.6,2.2l.5-.6h0s0,0,0,0Z"/>
      <path class="st7" d="M422.1,697.8c-2-.1-1.8-3.4-5.7-9.1-4-5.9-6.7-7.5-13.6-7.5h-40.3c-5.8,0-8.8-.7-13-3.8s-4.7-7.3-4.7-13.5v-166h154.6v166c0,6.2-.5,10.3-4.7,13.5-4.2,3.2-7.2,3.8-13,3.8h-40.3c-6.9,0-9.6,1.6-13.6,7.5-3.9,5.7-3.7,9-5.7,9.1h0,0Z"/>
      <path class="st1" d="M446.2,441.9c3.3,0,5.2-.1,7.3,1.3,2.1,1.4,7.2,5.2,7.2,5.2,0,0,16.9-3,32.7-10.7,18.8-9.2,27.1-15.8,27.1-15.8,0,0-9.1-11.9-11.2-14.5-2.1-2.6-4.2-4.8-3.7-6.1s1.4-1.4,3.8-1.4h38.8l20.8,23.9s-21.8,29.9-63.6,48c-36.1,15.6-66.7,13.8-66.7,13.8l-.9-11.2h-31.6l-.9,11.2s-30.6,1.8-66.7-13.8c-41.8-18.1-63.6-48-63.6-48l20.8-23.9h38.8c2.4,0,3.3.1,3.8,1.4.5,1.3-1.5,3.4-3.7,6.1-2.1,2.6-11.2,14.5-11.2,14.5,0,0,8.3,6.6,27.1,15.8,15.8,7.8,32.7,10.7,32.7,10.7,0,0,5-3.8,7.2-5.2s4-1.3,7.3-1.3h48.2,0,0Z"/>
      <path class="st2" d="M423.8,382.5c-7.5,0-13.1-7.4-13.2-18.3,0-11.3,5.7-18.1,13.2-18.1s4.1.6,5.9,1.8l.3-.8h1.2v8.5h-1.2c0-3.4-3.1-6.3-5.8-6.4-2.4,0-7.6,1-7.6,13.1s2.9,17.3,7.1,17.2c4.8-.1,6.3-4.2,6.3-7.3h1.2v8.1h-1.2s-2.2,2.2-6.2,2.2h0Z"/>
      <path class="st2" d="M483.9,369.8c2,6.4,2.9,9.7,2.5,9.7h-.8v1.7h6.4s-9.6-32.4-9.6-34.1h-7.7v1.8c1.4,0,1.4,2.6.3,5.9-1,3.2-8.6,26.5-8.6,26.5h6.1v-1.7h-1.2c-1.2,0-.6-2.2.9-7.4l.9-3.1h10.6l.3.8h0s0,0,0,0h0ZM482.8,366.1h-8.8l4.1-12.5h.8c1.4,4.3,3.9,12.5,3.9,12.5"/>
      <path class="st2" d="M367.1,359.9c-3.3-2.3-4.2-3.5-4.1-6.2s2.2-4.5,5.7-4.5,5.5,2.5,5.4,5.4h1.1v-6s-3.9-4.4-11.4-1.5c-3.1,1.2-5.9,4.3-5.8,9.1.1,5.2,5,7.9,9.1,10.8s4.6,5.3,4.7,7.3c0,2-.8,4.1-2.8,5-2.1,1-5.4-.1-7-2s-2.6-5-2.6-5h-1.4v8.4h1.4s2.3,1.9,7.4,1.9,7.7-2.3,9.2-5.9c1.5-3.6,1-8.3-1.1-10.7-1.7-2-3.7-3-7.8-6h0s0,0,0,0Z"/>
      <path class="st2" d="M439.5,262.1c0,2.1,1.8,3.9,4.1,3.9s4.1-1.7,4.1-3.9-1.8-3.9-4.1-3.9-4.1,1.7-4.1,3.9ZM445.6,243.6c.9-4.3,3-12.2-.6-19.4-3.4-6.6-8.8-9.7-11.5-9.6-2.6.1-3,1-3.2,3.9v30.8s6.2.3,13.8,1.6c0,0,.6-3,1.5-7.3M472,242.3c3.2-6.4,5.3-14.9-.5-24.4-5.8-9.5-14.5-10-18.4-9.7-3.9.2-5.3,1.1-3.9,2.3,1.4,1.1,5.8,3.3,8.7,8.5,2.9,5.2,3.9,11.9,1.9,18.9-2,7.1-5.6,15.1-5.6,15.1,3.9,1.1,7.6,2.4,10.5,4.2,0,0,3.4-7.1,7.3-14.9M458.4,269.6c1.1.5,5.2,0,5.4-.5.2-.4-2.3-3.6-3.6-4.1s-5.2,0-5.4.5c-.2.6,2.5,3.7,3.6,4.1M422.1,282.1c12.2-.1,21.6-1.1,24.9-3.2s2.4-3.3-2.1-4.9-11-2.3-22.7-2.3h0c-11.8,0-18.2.6-22.7,2.3s-5.4,2.9-2.1,4.9c3.3,2,12.6,3,24.9,3.2h0M400.5,258.2c-2.3,0-4.1,1.7-4.1,3.9s1.8,3.9,4.1,3.9,4.1-1.7,4.1-3.9-1.8-3.9-4.1-3.9M400.1,250.9c7.5-1.3,13.8-1.6,13.8-1.6v-30.8c-.1-2.9-.5-3.8-3.2-3.9s-8.1,2.9-11.5,9.6c-3.7,7.2-1.5,15.1-.6,19.4s1.5,7.3,1.5,7.3M379.5,257.2c2.9-1.7,6.6-3.1,10.5-4.2,0,0-3.6-8.1-5.6-15.1-2-7.1-1-13.8,1.9-18.9,2.9-5.2,7.3-7.3,8.7-8.5s0-2-3.9-2.3c-3.9-.2-12.6.2-18.4,9.7-5.8,9.5-3.7,17.9-.5,24.4,3.9,7.8,7.3,14.9,7.3,14.9M385.8,269.6c1.1-.4,3.8-3.6,3.6-4.1-.2-.4-4.2-1-5.4-.5s-3.8,3.7-3.6,4.1c.2.5,4.3,1,5.4.5M422.1,265.8c2.5.1,10.4-4,10.4-5.3s-7.5-5.3-10.4-5.3h0c-2.9,0-10.4,4.3-10.4,5.3s7.8,5.4,10.4,5.3h0M422.1,292.6c-22.2,0-35.2-4.4-39-10-2.3-3.3-10.4-16.7-18.6-29.6-8.2-12.9-9.7-18.3-9.7-26.5,0-12.2,7.8-21.4,16.7-25.8,8.7-4.3,21.2-2,28.2.4,6.9,2.4,11.4,3.9,13.5,3s2.5-2.4,2.5-4.3,2.5-5.9,6.4-5.8h0c3.9-.1,6.4,3.9,6.4,5.8s.4,3.4,2.5,4.3,6.6-.6,13.5-3,19.5-4.7,28.2-.4c8.8,4.4,16.7,13.5,16.7,25.8s-1.5,13.6-9.7,26.5c-8.2,12.9-16.3,26.3-18.6,29.6-3.8,5.5-16.8,10-39,10h0"/>
      <path class="st2" d="M381.5,165.1c-1.6,3.9-2,4.9-.5,5.9s2.3.4,5.5-2.4c2.6-2.3,35.6-28.8,35.6-28.8,8.1,6.5,33,26.5,35.6,28.8,3.2,2.7,4,3.4,5.5,2.4s1.1-2.1-.5-5.9c-1.3-3.2-16.3-42.8-16.3-42.8,8.7-5.7,35.4-23.2,38.4-25,3.6-2.2,4.5-2.8,3.9-4.5-.5-1.7-1.6-1.7-5.8-1.3-3.4.3-45.7,2.3-45.7,2.3-2.7-10.1-11.1-40.8-11.9-44.2-1-4.1-1.2-5.1-3-5.1s-2.1,1-3,5.1c-.8,3.4-11.9,44.2-11.9,44.2-10.4-.5-42.2-2-45.7-2.3-4.2-.4-5.2-.4-5.8,1.3s.4,2.3,3.9,4.5c3,1.8,29.7,19.3,38.4,25,0,0-15,39.6-16.3,42.8h0,0Z"/>
      <path class="st2" d="M188.2,165.1c-1.6,3.9-2,4.9-.6,5.9s2.3.4,5.5-2.4c2.6-2.3,35.6-28.8,35.6-28.8,8.1,6.5,33,26.5,35.6,28.8,3.2,2.7,4,3.4,5.5,2.4s1.1-2.1-.5-5.9c-1.3-3.2-16.3-42.8-16.3-42.8,8.7-5.7,35.4-23.2,38.3-25,3.6-2.2,4.5-2.8,3.9-4.5-.5-1.7-1.6-1.7-5.8-1.3-3.4.3-45.7,2.3-45.7,2.3-2.7-10.1-11.1-40.8-11.9-44.2-.9-4.1-1.2-5.1-3-5.1s-2.1,1-3,5.1c-.8,3.4-11.9,44.2-11.9,44.2-10.4-.5-42.2-2-45.7-2.3-4.2-.4-5.2-.4-5.8,1.3s.4,2.3,3.9,4.5c3,1.8,29.7,19.3,38.4,25,0,0-15,39.6-16.3,42.8h0,0,0Z"/>
      <path class="st2" d="M655.9,165.1c1.6,3.9,2,4.9.5,5.9-1.5,1.1-2.3.4-5.5-2.4-2.6-2.3-35.6-28.8-35.6-28.8-8.1,6.5-33,26.5-35.6,28.8-3.2,2.7-4,3.4-5.5,2.4-1.5-1.1-1.1-2.1.5-5.9,1.3-3.2,16.3-42.8,16.3-42.8-8.7-5.7-35.4-23.2-38.3-25-3.6-2.2-4.5-2.8-3.9-4.5.5-1.7,1.6-1.7,5.8-1.3,3.4.3,45.7,2.3,45.7,2.3,2.7-10.1,11.1-40.8,11.9-44.2,1-4.1,1.2-5.1,3-5.1s2.1,1,3,5.1c.8,3.4,11.9,44.2,11.9,44.2,10.4-.5,42.2-2,45.7-2.3,4.2-.4,5.2-.4,5.8,1.3s-.3,2.3-3.9,4.5c-3,1.8-29.7,19.3-38.3,25,0,0,15,39.6,16.3,42.8h0,0Z"/>
      <path class="st2" d="M428.5,772c13.7,9.3,22.1,19.2,24.6,22.2.5.6.4,1.5-.3,2.3-1.5,1.8-4.4,5-8.3,6.7-.5.2-1.6,0-2.1-1-2.1-4.1-8.8-15.8-20-25.3l-.3-.2c-11.3,9.7-18.1,21.4-20.3,25.6-.5,1-1.7,1.2-2.1,1-3.9-1.8-6.8-4.9-8.3-6.7-.7-.8-.8-1.7-.3-2.3,2.5-3,11-13,24.7-22.3l-.9-.6c-8.6-5.5-15-9.4-30.5-13.6l-.3.2c-4.5,2.5-6.1,7.6-11.4,11.4-6.1,4.3-13.7,5.1-17.8,5.2s-4.1-.3-1.5-1.7,5.2-3.5,8.8-7.3c3.6-3.8,7.7-6.5,11.2-7.7,2-.7,3.5-1.2,4.6-1.5l.4-.2c-6.1-1.5-13.6-3.1-22.7-4.8-6.6-1.3-12.9-2.5-19-3.8l-.4.2c-5.5,2.4-9.2,2.9-10.6,4.6-1.5,1.8-4.5,5.4-9.6,8.2-5.9,3.2-10.6,2.4-18.1.3-4.8-1.3-13.6-1.5-13-3.3.2-.6,1.2-.7,7-3.6,5.8-2.9,9.6-7,18-7.9,5.8-.6,11,2,13.8,2.7s5.5.3,7.7-.5c.7-.3,1.6-.7,2.5-1.1h.3c-13.4-3.1-25.7-6.3-38.4-10.4l-.5.2c-5.8,1.7-9.6,1.8-11.2,3.3-1.7,1.6-5.1,4.8-10.5,6.9-6.2,2.4-10.8,1.1-18-1.9-4.6-1.9-13.4-3.2-12.5-4.9.3-.5,1.3-.6,7.4-2.7,6.1-2.2,10.4-5.8,18.8-5.6,5.8.1,10.7,3.4,13.3,4.4,2.7,1,5.5,1,7.7.5.8-.2,1.7-.5,2.5-.8h.4c-11.6-4-23.7-8.7-37.2-14.8h-.6c-6.5,1.1-10.7.5-12.5,1.8-2,1.3-5.8,4-11.4,5.3-6.9,1.5-10.4-.6-17.1-4.7-4.3-2.6-12.7-5.6-12.1-6.5.3-.5,1.4-.4,7.7-1.6,6.3-1.2,11.2-4.2,19.4-2.8,5.8,1,10.1,4.9,12.5,6.3s5.3,1.8,7.5,1.6c1-.1,2.3-.3,3.4-.5h.5c-.8-.5-1.6-.8-2.4-1.2-13.2-6-24.4-12.3-34.1-18.9h-.4c-6.1-.1-9.3-1.2-11.3-.2-2.1,1-7,3-12.8,3.3-7.1.4-10.7-2.7-16.7-7.8-3.8-3.2-11.1-7.7-10.3-8.5.4-.5,1.7-.3,8.1-.2,6.1,0,12.9-1.7,19.3.7,5.5,2.1,9.1,6.5,11.4,8.2s4.9,2.7,7.2,2.8c.8,0,3.1,0,3.1,0-12.1-8.3-21.8-16.9-30.4-25.6h-.5c-6.2-1.5-9.1-3.2-11.3-2.7-2.3.5-7.4,1.4-13.2.6-7.8-1.1-11.4-6.1-16-12.5s-8.9-10.9-8.1-11.5c.5-.4,3,1.3,8.9,2.8s14,2.5,18.7,5.9c4.7,3.4,7.6,8.2,9.5,10.3s4.3,3.6,6.4,4.2c.9.2,2,.5,3,.7h.4c-3.6-3.8-7.1-7.6-10.4-11.4-5.8-6.7-10.6-13.6-14.4-20.4l-.3-.2c-5.5-3.2-7.8-5.8-10-6-2.4-.2-7.7-.6-12.9-3.1-7-3.5-8.8-9.8-11.2-17.2-2.4-7.5-5.1-13.1-4.1-13.5.6-.2,2.6,1.6,7.8,4.8,5.2,3.2,12.4,7.3,15.8,12,3.4,4.7,4.7,10.1,5.8,12.8,1,2.7,2.9,4.7,4.8,6,.7.5,1.6,1,2.4,1.4h.3c-6.9-12.6-10.9-25.2-13.6-36.6l-.4-.6c-.8-1.3-2.7-4.2-4-6.5-1.8-3.1-2.9-3.2-5.1-4.6-2.2-1.4-6.3-3-9.4-6.2-4.9-4.9-5.2-9.8-6-18.9s-.8-10.1-.6-10.3c.7-.5,1.9,1.3,5.7,4.5,5.1,4.4,10.8,9.1,12.6,13.4,1.4,3.4,1.9,8.6,2,12.9,0,4.3,0,5.7,1.3,7.8.7,1.1,1.7,2.7,2.5,3.9l.3.6c-1.5-7.5-1.7-15-1.6-23.3v-17.5c.1,0,0-.5,0-.5-1.6-2.7-3.8-6.5-4.4-7.4-.9-1.3-6.1-3-11-8-4.8-4.9-5.2-9.8-6-18.9-.8-9.1-.8-10.1-.6-10.3.7-.5,2,1.1,5.7,4.5,3.4,3.1,10.8,9.1,12.6,13.4,2.1,4.9.4,12,.9,19,0,0,1.2,2.2,2.8,4.7l.3.5.3-39.8-.3-.7c-1.6-2.6-3.8-6.5-4.3-7.3-.9-1.3-6.1-3-11-8s-5.2-9.9-6-18.9c-.8-9.1-.8-10.1-.6-10.3.7-.5,2,1.1,5.7,4.5,3.4,3.1,10.8,9.1,12.6,13.4,2.1,4.9.4,12,.9,19,0,0,1.3,2.2,2.8,4.8l.3.5.3-39.4-.2-.4c-1.5-2.6-4.2-7.2-4.8-8.1-.9-1.3-6.1-3-11-8s-5.2-9.9-6-18.9-.8-10.1-.6-10.3c.7-.5,2,1.1,5.7,4.5,3.4,3.1,10.8,9.1,12.6,13.4,2.1,4.9.4,12,.9,19,0,0,1.5,2.6,3.2,5.5l.2.4.3-36.8-.2-.3c-1.3-2-3.3-5.1-4.8-7.5-2.4-3.8-2.6-8.1-1.4-12.7.8-3.1,3.7-9.2,5.3-13.9,1.1-3.3,1.6-4.5,2.3-4.5s1.1,1.2,2.3,4.5c1.6,4.7,4.5,10.8,5.3,13.9,1.1,4.5.9,8.9-1.4,12.7-1.5,2.3-3.4,5.4-4.8,7.4l-.2.4v35.5c.1,0,.4-.4.4-.4,1.8-2.9,3.2-5.5,3.2-5.5.5-7-1.2-14.1.9-19,1.8-4.3,9.2-10.3,12.6-13.4,3.7-3.4,5-5,5.7-4.5.3.2.2,1.2-.6,10.3-.8,9.1-1.1,14-6,18.9-4.8,4.9-10.1,6.6-11,8-.6.9-3.1,5.2-4.6,7.8l-.4.8v39.8c.1,0,.4-.5.4-.5,1.7-2.8,3.1-5.2,3.1-5.2.5-7-1.2-14.1.9-19,1.8-4.3,9.2-10.3,12.6-13.4,3.7-3.4,5-5,5.7-4.5.3.2.2,1.2-.6,10.3s-1.1,14-6,18.9c-4.8,4.9-10.1,6.6-11,8-.6.9-2.9,5-4.5,7.6l-.4.8v39.3c.1,0,.5-.6.5-.6,1.4-2.4,2.6-4.4,2.6-4.4.5-7-1.2-14.1.9-19,1.8-4.3,9.2-10.3,12.6-13.4,3.7-3.4,5-5,5.7-4.5.3.2.2,1.2-.6,10.3s-1.1,14-6,18.9c-4.8,4.9-10.1,6.6-11,8-.5.8-2.6,4.3-4.1,7l-.4.7v19.8c0,6.6.6,14.1,1.8,21.3l.2-.4c1.9-4,2.3-7.7,2-10.6-.3-3.6-1.7-9.9,0-14,1.8-4.3,9.1-10.4,12.4-13.6,3.6-3.5,4.9-5.1,5.6-4.6.3.2.2,1.2-.4,10.3-.6,9.1-.6,13-5.3,18-3.8,4-7.8,5.8-9.9,7.7-1,1-2.3,5.1-3.8,8.6l-.4.9c1,5.3,2.2,10.4,3.8,14.8,2.1,5.9,5.1,13.9,9.5,22.3v-.6c.1-2.7.1-6.4-.4-8.5-.9-3.5-3.3-3.8-5-11s1.8-11,6.1-16.5c4.4-5.5,6.1-7.8,7.1-7.7.7,0,.9,4.3,1.3,7.5.7,4.5,1.8,8.5,1.3,12.5s-2.3,7.2-5.2,11.2c-3,4.1-3.6,4.3-3.9,8.8-.1,2.1-.2,4.1-.2,5.7v.8c3.6,6.6,8,13.4,13.4,19.6,3,3.5,6.7,7.6,11.2,12.3v-.5c-.9-2.5-2.2-6.5-3.4-8.4-2-3-4.4-2.5-8.3-8.8-3.9-6.3-1.8-11,.6-17.6,2.4-6.6,3.3-9.4,4.3-9.5.6-.1,2.2,3.8,3.6,6.7,2.1,4,4.4,7.5,5.3,11.4.8,3.9.1,7.6-1.4,12.2-1.5,4.8-2,5.2-.9,9.6.7,2.5,1.4,4.8,1.9,6.3l.2.6c8,8,18.4,17.2,31.8,26.4l-.3-.7c-1.2-2.2-3.6-6.6-5.5-8.4-2.6-2.5-4.8-1.5-9.9-6.8-4.3-4.5-4.5-9.9-3.6-16.9s-.2-11.3.7-11.7c.6-.3,4.1,4.2,6.1,6.7,2.9,3.5,6.1,5.6,8.3,10.1,1.7,3.6,1.8,7.3,1.3,12.3-.5,5-.9,5.5,1.2,9.6,1.4,2.8,2.9,5.3,3.7,6.6l.6,1c9.6,6.4,20.8,12.8,33.7,18.7l-.3-.4c-1.6-2.1-4.5-5.7-6.5-7.1-3-2.1-5-.7-10.9-5.2-5-3.7-6-9.1-6.2-16.1-.2-7-2.1-11.1-1.2-11.6.6-.4,4.7,3.5,7.2,5.6,3.4,3,7,4.5,9.8,8.6,2.3,3.3,2.9,7,3.2,11.9.3,5.1,0,5.6,2.7,9.2,1.8,2.4,3.6,4.5,4.6,5.8l.4.5c1.3.6,2.7,1.2,4.1,1.8,12.4,5.3,23.6,9.5,33.6,12.9l-.5-.5c-1.9-1.8-5.3-4.9-7.5-6-3.3-1.6-5,0-11.6-3.4-5.5-2.9-7.3-7.7-8.6-14.5-1.3-6.9-3.7-11.1-3-11.7.5-.4,5.2,2.7,7.9,4.5,3.8,2.5,7.5,3.1,10.9,6.7,2.7,2.9,4,5.6,5.1,10.4,1.1,5,.8,6.7,4.1,9.9,2.3,2.3,4.7,4.4,5.8,5.3l.5.4c15.5,5.1,28.2,8.2,38.5,10.3l-.8-.6c-2.1-1.6-5.5-4-7.7-4.8-3.4-1.2-5.2.3-12-2.5-5.8-2.3-7.8-6.5-10.4-13.5-3.1-8.2-4.9-9.9-4.3-10.6.5-.5,4.8,1.6,8.8,3.2,4.2,1.6,7.8,2.3,11.5,5.5,3,2.6,4.6,5.1,6.2,9.8,1.6,4.8,1.6,6.5,5.1,9.4,2.4,1.9,4.7,3.5,6,4.4l.6.4c6.5,1.3,12,2.2,16.6,3.1,6.8,1.3,13.2,2.3,19.5,3.5l-.2-.2c-5.7-4.6-8.9-9.3-10.9-13.7-1.6-3.6-3.7-6.1-4.6-7.1-.3-.3-.1-.6,0-.6,6-1.1,16.3,5.9,20.1,13.5,2.8,5.6,5.8,9.1,7.2,10.5l.4.4c10.7,2.8,21.6,7,34.4,14.6h.2c12.9-7.5,23.9-11.7,34.6-14.6l.4-.4c1.4-1.5,4.4-4.9,7.2-10.5,3.8-7.5,14-14.5,20.1-13.5.2,0,.4.3,0,.6-1,1-3,3.5-4.6,7.1-1.9,4.4-5.2,9.1-10.9,13.7l-.2.2c6.3-1.2,12.7-2.3,19.5-3.5,4.6-.8,10.2-1.8,16.6-3.1l.6-.4c1.3-.9,3.6-2.5,6-4.4,3.6-2.8,3.5-4.5,5.1-9.4,1.6-4.7,3.2-7.2,6.2-9.8,3.8-3.2,7.3-3.9,11.5-5.5,4-1.5,8.4-3.6,8.8-3.2.7.7-1.1,2.5-4.3,10.6-2.7,6.9-4.6,11.1-10.4,13.5-6.9,2.8-8.6,1.3-12,2.5-2.2.8-5.6,3.2-7.7,4.8l-.8.6c10.4-2.2,23.1-5.3,38.5-10.3l.5-.4c1.1-1,3.4-3,5.8-5.3,3.2-3.2,3-4.9,4.1-9.9,1.1-4.8,2.4-7.5,5.1-10.4,3.4-3.6,7-4.3,10.8-6.7,2.7-1.8,7.4-4.9,7.9-4.5.7.6-1.7,4.8-3,11.7-1.3,6.9-3.1,11.6-8.6,14.5-6.5,3.5-8.3,1.8-11.6,3.4-2.2,1.1-5.6,4.2-7.5,6l-.5.5c10.1-3.4,21.2-7.6,33.6-12.9,1.4-.6,2.7-1.2,4.1-1.8l.4-.5c1-1.2,2.8-3.4,4.6-5.8,2.7-3.7,2.4-4.2,2.7-9.2.3-4.9,1-8.6,3.2-11.9,2.8-4.1,6.4-5.6,9.8-8.6,2.4-2.2,6.6-6,7.2-5.6.8.5-1,4.6-1.2,11.6-.2,7-1.3,12.4-6.2,16.1-5.9,4.4-7.9,3.1-10.9,5.2-2.1,1.4-4.9,5-6.5,7.1l-.3.4c12.9-5.9,24-12.3,33.7-18.7l.6-1c.8-1.3,2.3-3.8,3.7-6.6,2.1-4,1.7-4.5,1.2-9.6-.5-4.9-.4-8.6,1.3-12.3,2.1-4.5,5.4-6.6,8.3-10.1,2.1-2.5,5.5-7,6.2-6.7.9.4-.3,4.7.7,11.7.9,7,.8,12.4-3.6,16.9-5.1,5.3-7.3,4.3-9.9,6.8-1.9,1.8-4.3,6.2-5.5,8.4l-.3.7c13.4-9.2,23.8-18.4,31.8-26.4l.2-.6c.5-1.5,1.3-3.8,1.9-6.3,1.2-4.4.7-4.8-.8-9.6-1.5-4.7-2.2-8.3-1.4-12.2.8-3.9,3.2-7.4,5.3-11.4,1.5-2.9,3-6.8,3.7-6.7,1,.2,1.9,2.9,4.3,9.5,2.4,6.6,4.5,11.3.6,17.6-3.9,6.3-6.3,5.8-8.3,8.8-1.3,1.9-2.5,5.9-3.3,8.4l-.2.5c4.5-4.6,8.2-8.8,11.2-12.3,5.4-6.2,9.8-13,13.4-19.6v-.8c0-1.5,0-3.6-.2-5.7-.3-4.5-.9-4.7-3.9-8.8-2.9-4-4.7-7.2-5.2-11.2-.5-4,.7-8,1.3-12.5.5-3.2.7-7.4,1.3-7.5,1-.1,2.8,2.2,7.1,7.7,4.4,5.5,7.8,9.3,6.2,16.5-1.7,7.2-4.1,7.5-5,11-.6,2.1-.5,5.9-.5,8.5v.6c4.4-8.5,7.5-16.4,9.6-22.3,1.5-4.4,2.8-9.5,3.8-14.8l-.4-.9c-1.5-3.4-2.8-7.6-3.8-8.6-2.1-1.9-6.1-3.7-9.9-7.7-4.8-5-4.8-8.9-5.3-18-.6-9.1-.7-10.1-.4-10.3.7-.4,2,1.2,5.6,4.6,3.3,3.2,10.6,9.3,12.3,13.6,1.7,4.1.3,10.4,0,14-.2,3,.2,6.6,2,10.6l.2.4c1.2-7.2,1.8-14.7,1.7-21.3v-19.8s-.4-.7-.4-.7c-1.5-2.6-3.6-6.1-4.1-7-.8-1.3-6.2-3-11-8-4.8-4.9-5.2-9.8-6-18.9-.8-9.1-.8-10.1-.6-10.3.7-.5,2,1.1,5.7,4.5,3.4,3.1,10.8,9.1,12.6,13.4,2.1,4.9.4,12,.8,19,0,0,1.1,2,2.6,4.4l.4.6v-39.3c.1,0-.3-.8-.3-.8-1.5-2.6-4-6.7-4.5-7.6-.8-1.3-6.2-3-11-8-4.8-4.9-5.2-9.9-6-18.9-.8-9.1-.8-10.1-.6-10.3.7-.5,2,1.1,5.7,4.5,3.4,3.1,10.8,9.1,12.6,13.4,2.1,4.9.4,12,.8,19,0,0,1.4,2.4,3,5.2l.3.5v-39.8c.1,0-.3-.8-.3-.8-1.5-2.6-4-6.9-4.6-7.8-.8-1.3-6.2-3-11-8-4.8-4.9-5.2-9.9-6-18.9-.8-9.1-.8-10.1-.6-10.3.7-.5,2,1.1,5.7,4.5,3.4,3.1,10.8,9.1,12.6,13.4,2.1,4.9.4,12,.8,19,0,0,1.5,2.6,3.2,5.5l.2.4v-35.5c.1,0-.1-.4-.1-.4-1.3-2-3.3-5.1-4.8-7.4-2.4-3.8-2.5-8.1-1.4-12.7.8-3.1,3.7-9.2,5.3-13.9,1.1-3.3,1.6-4.5,2.3-4.5s1.2,1.2,2.3,4.5c1.6,4.7,4.5,10.8,5.3,13.9,1.1,4.5,1,8.9-1.4,12.7-1.5,2.3-3.5,5.5-4.8,7.5l-.2.3.3,36.8.2-.4c1.8-2.9,3.2-5.5,3.2-5.5.5-7-1.2-14.1.8-19,1.8-4.3,9.2-10.3,12.6-13.4,3.7-3.4,5-5,5.7-4.5.3.2.2,1.2-.6,10.3-.8,9.1-1.1,14-6,18.9-4.8,4.9-10.1,6.6-11,8-.6.9-3.3,5.5-4.8,8.1l-.2.4.3,39.4.3-.5c1.5-2.6,2.8-4.8,2.8-4.8.5-7-1.2-14.1.8-19,1.8-4.3,9.2-10.3,12.6-13.4,3.7-3.4,5-5,5.7-4.5.3.2.2,1.2-.6,10.3-.8,9.1-1.1,14-6,18.9-4.8,4.9-10.1,6.6-11,8-.5.8-2.8,4.7-4.3,7.3l-.3.7.3,39.8.3-.5c1.5-2.5,2.8-4.7,2.8-4.7.5-7-1.2-14.1.8-19,1.8-4.3,9.2-10.3,12.6-13.4,3.7-3.4,5-5,5.7-4.5.3.2.2,1.2-.6,10.3-.8,9.1-1.1,14-6,18.9-4.8,4.9-10.1,6.6-11,8-.5.8-2.8,4.8-4.4,7.4l-.2.5.2,17.5c0,8.3-.1,15.8-1.6,23.3l.3-.6c.8-1.2,1.8-2.8,2.5-3.9,1.3-2.1,1.2-3.5,1.3-7.8,0-4.3.6-9.5,2-12.9,1.8-4.3,7.5-9,12.6-13.4,3.8-3.3,5-5,5.7-4.5.3.2.2,1.2-.6,10.3-.8,9.1-1.1,14.1-6,18.9-3.1,3.1-7.2,4.7-9.4,6.2-2.2,1.4-3.3,1.5-5.1,4.6-1.3,2.3-3.2,5.2-4,6.5l-.4.6c-2.8,11.4-6.8,24-13.6,36.8h.3c.8-.6,1.7-1.1,2.4-1.6,1.9-1.2,3.8-3.3,4.8-6,1-2.7,2.4-8,5.8-12.8s10.6-8.8,15.8-12,7.2-5,7.8-4.8c1,.3-1.7,6-4.1,13.5-2.4,7.5-4.1,13.8-11.2,17.2-5.2,2.5-10.5,2.9-12.9,3.1-2.2.2-4.5,2.8-10,6l-.3.2c-3.9,6.8-8.6,13.7-14.5,20.4-3.3,3.8-6.7,7.6-10.4,11.4h.4c1-.2,2.1-.5,3-.7,2.2-.6,4.6-2,6.5-4.2s4.8-6.9,9.5-10.3,12.8-4.5,18.7-5.9c6-1.5,8.4-3.1,8.9-2.8.9.6-3.5,5.1-8,11.5s-8.2,11.4-16,12.5c-5.8.8-10.9,0-13.2-.6-2.2-.5-5.1,1.2-11.3,2.5h-.5c-8.5,8.8-18.3,17.4-30.3,25.7,0,0,2.3,0,3.1,0,2.3-.1,4.9-1,7.2-2.8,2.2-1.8,5.9-6.2,11.4-8.2,6.4-2.4,13.2-.6,19.3-.7,6.4,0,7.8-.3,8.2.2.7.8-6.5,5.3-10.3,8.5-6,5.1-9.6,8.2-16.7,7.8-5.8-.3-10.7-2.3-12.8-3.3-2-.9-5.2.1-11.3.2h-.4c-9.7,6.5-20.9,12.8-34.1,18.9-.8.4-1.6.7-2.4,1.1h.5c1.1.3,2.3.5,3.3.7,2.2.2,5-.2,7.5-1.6,2.5-1.4,6.8-5.3,12.5-6.3,8.3-1.4,13.1,1.5,19.5,2.8,6.3,1.2,7.3,1.1,7.7,1.6.6.9-7.9,4-12.1,6.5-6.7,4-10.1,6.2-17.1,4.7-5.7-1.2-9.5-3.9-11.4-5.3-1.9-1.3-6-.7-12.5-1.7h-.6c-13.5,5.9-25.6,10.6-37.2,14.5h.4c.8.4,1.8.7,2.5.9,2.2.6,5,.5,7.7-.5s7.5-4.3,13.3-4.4c8.4-.2,12.7,3.5,18.8,5.6,6.1,2.2,7.1,2.2,7.3,2.7.8,1.7-7.9,3-12.5,4.9-7.2,3-11.8,4.4-18,1.9-5.4-2.1-8.8-5.3-10.5-6.9-1.6-1.5-5.4-1.5-11.2-3.3l-.5-.2c-12.7,4.1-25,7.3-38.4,10.3h.3c.8.5,1.7.9,2.4,1.2,2.1.8,4.9,1.2,7.7.5,2.8-.7,8-3.3,13.8-2.7,8.3.9,12.2,5,18,7.9s6.8,3,7,3.6c.6,1.8-8.2,2-13,3.3-7.6,2.1-12.3,2.9-18.1-.3-5.1-2.8-8.1-6.3-9.6-8.2-1.4-1.6-5.1-2.2-10.6-4.6l-.4-.2c-6,1.3-12.3,2.5-19,3.8-9.1,1.7-16.5,3.3-22.7,4.8l.4.2c1,.3,2.5.8,4.6,1.5,3.5,1.2,7.6,3.9,11.2,7.7s6.3,5.9,8.8,7.3,2.5,1.8-1.5,1.7c-4.1,0-11.8-1-17.8-5.2-5.3-3.8-6.9-8.9-11.4-11.4l-.3-.2c-15.5,4.2-21.8,8.1-30.5,13.6-.3.2-.6.4-1,.6h.1c0,0-.4,0-.4,0h0,0Z"/>
      <path class="st4" d="M372,617.6s-2.4,1.1-3,3.8.4,6.4,1.9,8.5c1.5,2.2,3,3.8,3,3.8,0,0,.8-1.8.8-4.5s-.6-4.7-1.4-7.2-1.3-4.5-1.3-4.5h0ZM386.5,590.8s.7-.8,3.2-2.1c5.4-2.8,8.3-2.8,8.3-2.8,0,0-.1-1.4-.5-3.7-.4-2.3-.7-3.9-.7-3.9,0,0-4.3-2.4-8.5-5.2s-5.9-4.8-5.9-4.8l4.1,22.6M399.4,555.5s-.6-.7-2.6-2.3c-2.1-1.7-3.5-2.7-6.6-2.6-3,.1-4.5.3-6.2-1.8-1.6-2-1.5-3.6-1.8-5-.3-1.5-2-2.8-3.9-1.9,0,0,1,0,1.7.7s1.4,3.1-1.6,3.5l1.5,8.1s1.2.4,2,.8c.8.4.9,2,1,3s1.2,1.7,2.1,3.3.5,2.4,4.6,4.4c4.1,2,6.1,2.8,6.1,2.8,0,0,0-2.1.7-4.9s1.3-3.3,2-4.5,1-3.7,1-3.7M393,656.1c0-1.3-.8-8.9-1.1-11.1-.3-1.8-.5-3.2-.5-3.2,0,0-1,.4-2.2,1.3-1.3.9-2.6,1-2.6,1,.2,3.8-.4,7-2.6,9.8-2.3,2.8-3.6,3.6-4.6,3.5s-1.1-.7-.7-2.1c.4-1.5.4-3.7-.1-5.9s-1-4.2-1-4.2c-2.1-.2-4.5-1.2-5.4-2.3-.9-1.1-.5-4.6-.5-4.6-2.1-2.1-6.2-6.2-7.5-11.5s-.4-9.8,2.3-12.6c2.7-2.7,6.3-3,6.3-3-.2-3.2.5-5.9,3.4-10,2.8-4.2,6.8-7.5,6.8-7.5l-4.8-26.7s-1,.1-1.7.1-1.6-.2-1.9-1.1-1.3-1.1-1.4-2c-.1-.8-1.3-1.9-1.3-2.8s.4-1.9.3-3c-.1-1.1.8-1.3,2.3-1.6,1.5-.2,1.7-.2,1.7-.2l-1.7-9.7c-1.6.1-2.3-.7-2.5-2.3s1.8-1.8,1.8-1.8l-2.3-13.1s-2.5.2-3-1.4c-.5-1.6.5-3.2,3.5-4.2,2.8-1,4.4-.6,4.9.9.7,2.1-.8,3.1-.8,3.1,0,0,3.4,0,6.8,1.7s4.5,4.4,4.6,6.5.6,3.4,3.2,3.9c2.6.5,4.6,1.1,7.4,3.8s3.2,4.6,2.9,5.5-1.1.9-2-.2c-.8-1.1-2.5-1.2-2.5-1.2,0,0,.3,1.1,1.1,2.2s2,2.3,2.1,3.5c0,1.2.8.8,1.6.4s1.2-.8,1.7-2,1.7-2,2.3-2.8c.6-.8,1.4-1,3.1-1.1,1.7-.1,2.3-1.1,3.4-1.5,1.1-.4,2.5-.9,3.5-1.3,1.1-.4,1.5-1.5,0-2-1.5-.4-2.8-.4-4.4-2-1.6-1.6-2.3-3.1-2.5-5.8s1.6-3.7,2.3-4.7,2.2-2,3-2.6,1.3-1.1,1.5-2.8,1-2.3,1.8-2.9,1.8-.9,4-1c2.3-.1,3.8,0,4.5.8,2.2,2.5,2.5,4.2,3.6,5,1.1.8,3,2.3,3.9,3.8s.5,4.7-1,6.8c-1.5,2.1-3,3.3-3.7,3.8s-1.1.6-1.1,2,.6,1.5,1.5,1.8c.9.4,1.3-.8,2.2-.8s1.4,1.8,2.2.8,2-1.8,3.3-1.7,2.2-.7,2.9-1.8,2.2-2,3.4-1.7,2.4.9,3.1,1,2-.4,4.4-3.4c2.3-3,4.4-5.6,4.4-5.6,0,0,.2-2,.1-4.3,0-2.3.7-4,1.5-5.2s1.7-1.1,2.3-1.1.7.8.5,1.3c-.2.6,0,.4,1.6-1.5,1.6-1.8,2.4-2.1,3.2-2,1.1,0,1.3.2,2.1.5s.6,1.8.8,2.5c.6,2.3-.9,4.1-.6,4.5.3.4.4,1.4-.4,2.5-.9,1.1-1.9,2.9-3.1,4.6-1.2,1.7-2.6,1.8-3,2.5-2.1,3.5-4.6,7.1-7.1,10s-3.3,3.9-5.1,3.9c0,0-.4,3.4-1.8,5.1-1.5,1.7-2,2.6-1.9,5.6.1,3,.6,8.8.6,8.8,0,0,1.4-1.3,3.5-2.5,2.1-1.1,3.1-2.7,5.4-3.2,1.5-.3,3.4-.3,3.4-.3,0,0,1-2.5,2.1-3.2,1.2-.7,2.4-.8,4.2-.5s1.8,1,1,1.6-1.5,1.1-1.4,2c0,0,2-.1,4.4.2,0,0,.9-1.7,2.8-2.2,1.9-.5,3.7.4,2.8,1.5-.8,1.1-1.1,3.2-.2,4.4,1,1.2,2,2.1,3.4,2.9,1.4.8,1.3,2.3-.6,2.5s-3.5.1-3.9.6.6,1.5,1,2.8,1.5,3.1,3.4,6.2c1.8,3.1,3.4,5.3,3.5,7.4.1,2.1-.7,2.9-2.1,4s-2.1,2.4-3.9,2.5-2.6-.8-3.4-2.5-3-4.2-4.5-5.5c-1.5-1.3-3.1-1.1-4.6-1.3s-1.7.4-1.9,3.4c-.2,3-1,7.3-1,7.3,0,0,.5,1.3,1.1-.2s1.5-3.3,3.8-2.6c0,0-1,2.3-.9,4,0,1.7.4,2.5,2.6,2.3s5.2-.8,7.7,1.3,3,2.5,3.8,2.5,1.5-1.4,1.9-3c.4-1.6,2.1-3.1,2.1-3.1,0,0,.7.8,1.2,3.3.5,2.5-.4,6.8-2.2,8-1.8,1.2-4.4.4-4.4.4,0,0,0,.3.2,1.8.2,1.5,1,4.4.8,6.6s-.8,3.8-.8,5.8.7,4.3,1.3,5.8.9,2.5-.3,3.4-2,2.1-2.6,2.5c-.7.4-.8.9-.8.9,0,0,1.5,1.1,3.8,3.3,2.3,2.2,5,4.7,5,5.5s-.4,2-2.8,2.4-4.4,1.2-6,1.1c-1.6,0-2.6-.9-3.1-2.2s-2.1-3.3-2.7-4.4c-.6-1.1-.7-2.6-1.6-2.9s-3.8.2-4.4-.8-1.9-1.1-2.2-1.6-.7.6-2.5,2.4-4.8,2.1-6.7,1.7c-1.9-.4-3-.1-4.8,0-1.8,0-4.5,0-5.3-.1s-1.8-.2-3.7.6-3.2.3-3.8-.6-.8-2.7-1.8-2.9c-1-.2-1.6.7-1.6.7,0,0-.2,4.5,0,6.4s1.1,3.5,1.8,4.8c.7,1.3.5,4.5.5,5.8s.6,1.9-1.9,1.9-3.9-.5-5-1.3c-1.1-.8-2.8-2.1-2.8-3.3s.9-2,.9-3.3-1.4-1.3-1.5-4.1,0-4.3,0-4.3c0,0-1.6,0-3-.1-1.3-.2-3.4-.2-3.4,1.1s-1.2,2.1-2.6,1.7c-1.5-.4-2.8-1.2-3.7-.2s-2.8,1.3-4.5,1.3-3.8,1.1-4-1c-.2-2.1,0-3.6-1-4s-2.2-.5-2.2-.5c0,0,2.3,11.4,2.7,13.3s0,3-1.5,3.1c-1.4.1-3.5.3-3.6-1"/>
      <path class="st2" d="M392,621.7l1.5,8.1s1-.9.4-4c-.6-3.1-1.9-4.1-1.9-4.1h0Z"/>
      <path class="st2" d="M417.5,523.7c-1.1,0-1.7.2-1.9,1.1-.2.9.4,1.3,1.2,1.3.8,0,1.6.6,1.6,1.5s.5,2,1.3,1,.4-2.5-.2-3.1-1.3-1.8-2-1.8h0,0Z"/>
      <path class="st2" d="M425.9,523.1c-.8-.8-1.6-.2-2.1-.2s-.3,2.1-.8,2.8c-.5.8-.5,2.3-.5,2.8s.7,1.2,1,.1.9-3.2,1.4-3.8c.5-.7,1.8-1,1.1-1.6h0Z"/>
      <path class="st2" d="M420.2,529.7c-1.6-.1-2.8.4-3.4,1-.6.6-2.2,1.7-.4,1.5s3.2,0,3.7.2c.5.2.8,1,0,1.3s-2,.6-2.8.3c-.9-.3-2,0-2,.9s.8,3,1.3,4.1c.5,1.1,1.1,2.3,1.8,1.8s1.3-1.4,2-1.9,1-.8,1.8-.8.6-.2.2-1.7c-.4-1.5-.4-2.7-.4-3.6,0-.9,1-1.5,1.9-1.6s2,.7,1.1.9c-.8.2-1.6.7-1.1,1,.6.2,1.9.4,1.6.8s-.6.3-1.6.4-1,1.2-.6,2.2c.4,1,1.3,1.3,2.1,2.4s1.1,1.1,1.7.1c.6-1,.6-2.4.3-3.8-.3-1.4.1-2.9-.7-3.9-.8-1-1.7-1.7-2.8-1.5-1.1.2-2.6,0-3.7,0h0Z"/>
      <path class="st2" d="M421.1,539.5c-.8.1-1.3,1.2-1.7,1.5-.4.3.4.6,1,.5.6,0,2-.4,2.6-.4.7,0,1.3.6,2,.4s.2-1-.4-1.6-1.6-.8-3.5-.5h0,0Z"/>
      <path class="st2" d="M404.7,550.8c-.6,1-.5,3-.6,8.2,0,5.2.6,9.8.6,15.4s.3,12-.1,14.4c-.4,2.4-.9,4.4-.2,4.1.7-.2,1.6,1.1,2.1-4.5.5-5.6,0-9.7,0-15.5,0-5.8-.7-9.9-.8-14.8-.1-4.9,0-8.9-1-7.2h0,0Z"/>
      <path class="st2" d="M400.5,555.6c-.3.5-1,2.6-1,5.7s0,5.8.6,6.6,1.1,2.8,1,5.8c0,3-.2,6.3.2,7s1,1.4,1.1-1.4c0-2.8.2-9.3-.6-10.7s-.8-5.8-.8-8.5.2-5.9-.5-4.6h0Z"/>
      <path class="st2" d="M433.6,546.8c-.8.1-2.3,2.5-2.8,6s-1.1,7.5-3.2,10c-2.1,2.6-3.5,3.7-2.5,4s1.7.4,3.7-2.4,3-5.1,3.7-9.1.8-4.8,1.5-6.6c.7-1.7.9-2.2-.3-2h0Z"/>
      <path class="st2" d="M438.2,544.5c-1.4.2-1.3.8-1.8,3.4s-.3,4.4,0,6.3c.2,2,.2,4.3-.3,5.3s-1.1,1.5,0,1.5,2.2-.8,2.3-2.9c0-2.1-1-5-.4-8.1.6-3.1,2-5.7.2-5.5h0Z"/>
      <path class="st2" d="M435.7,565.4c-.8,0-2.1,1.6-2,3.3,0,1.8,1,2.8.8,4.5s-.8,2.3-1.2,3.1c-.4.8-1.3,2.3.4,1.4s2.5-2.4,2.3-5.1-1.4-3.7-.6-4.6,1.9-2.7.2-2.6h0s0,0,0,0Z"/>
      <path class="st2" d="M421.1,582.5c-1.1-.7-1.5.2-1,1.1s.6,1.8,1.5,1.3c.9-.4,1.1-1.3-.5-2.4h0ZM418.5,545.8c.6.9,1.5.2,2.4,1.3.9,1,2.6.2,4-.6,1.4-.9,1,1,.3,2.3s-2.1,1.3-3.1,1.3-.2,1.1.5,1.5c.8.4,1.1.9,2.2.9s1.5-1.5,2.1-3.1c.6-1.6,1.3-2.8,2.3-2.9s.3,2.1-.4,3.5-2.5,3.9-3.4,4-2.6-.5-3.4-1.5-1.8-1-1.6.2.3,2.1.6,6,.2,6.3,0,8.5-1.1,3.3-1.2,5c0,1.7,1.1,4,1.3,5,.1,1,0,2.8.4,3.5s2.1.4,4-.4,4-.4,5.9-.4.4,2.4-.4,3.1c-.9.7-1.9,1.4-4.3,1.3s-2.8.4-3.6,1.8c-.8,1.5-2.3.7-3,0s-1.5-1-1.9-.7-.2,1.8-.2,5.4c0,3.7-.6,4.5-3.2,8.1-2.6,3.5-3.5,4.6-5.6,7.7-2.1,3.1-2.4,7.3-2.6,10-.2,2.7-.9,1.1-1.1,0-.2-1.1-.3-3.8,1-7.7,1.3-3.9,4.5-8,5.9-9.4s3-3.1,3.5-5.2.8-6.2.7-8-.4-2-2.1-2.3c-1.7-.2-3.3-1.7-4.4-2.6-1.1-.9-1.4-2.1-.8-1.6.6.5,1.7.8,3.4,1.6,1.7.8,2,.7,2,0s-1-.8-3-1.5c-2-.7-3.4-2.5-3.7-4.9s1.6-2.8,1.6-1.7.2,2.5,1,3.8,2.2,1.7,3.5,2,3.2,1.6,4.2,1.8c1,.2,1.5,0,1.4-1.3s-.2-2.9-1-4.8c-.7-2-.8-4.2-.2-5.8.5-1.6,1.1-2.6,1.2-5.2,0-2.6,0-6.6,0-7.6s-.7-.6-1.9-.2-2-1.1-2.9-2.1c-.9-1-3-3.5-3.9-4.5-.9-1-1.1-1.3-.2-1.7s1.3-.2,1.7.4c.4.6,2.3,3,2.9,4s1.6,2.7,2.6,2.5,1-1.3,1-2.7-.8-1.6-2-2.5-1.9-1.8-2-2.5c-.1-.8.8-1.1,1.9-1.8.8-.5,1.6-.4,2.1.5"/>
      <path class="st2" d="M425.5,593.1c-1.5,0-2.3,1.3-.6,1.4s4.7.6,5.4,1.7,1.7,2.7,0,1.6-4.5-.9-5.9-.4-2.5,2.6-1.3,2.5,2.1-1.4,4.9-.8,4.4,1.9,5,2.5c.7.6,1-.8.4-2.9s-1.2-5.5-8.1-5.6h0s0,0,0,0Z"/>
      <path class="st2" d="M400.4,592.3c-1.6,0-2.5,1.1-1.8,4.3s2.2,4.7,2.3,6.5-.2,2.8-2.2,4.2c-2,1.5-2.7,3.2-2.7,4.9s.4,2.4,1.3,2.9,1.6.3.8-1.3-1.1-2.9,1.2-4.7,3.4-3.2,3.4-5.3-.5-2.4-1.5-4.7c-1-2.3-1.8-4.3-1-5s1.5-1.8.2-1.8h0Z"/>
      <path class="st2" d="M458.1,522.6c-.3-.2-1.6.6-2,2.1s-.7,2.7-.6,5.2c0,2.5,0,3.2,0,3.2,0,0-2.1,2.7-4.5,5.5s-4.1,4.5-4.1,5.9.3,5.5.3,5.5c0,0,1.5-.4,3.7-2.7s5-7.3,6.4-9.2c1.5-1.9,2.2-2.8,2.2-2.8,0,0,1.1.5,2.6-1.5s3.5-4.7,3.5-5.4,0-.6-1.7,1.1-1.5,1.4-1.6,1,.6-1.3,1.8-2.5,2-2,2-3-.4-.9-1.6.6c-2,2.3-2.9,2.4-.8,0,2.1-2.5,2.6-3.5,2.1-4s-1,.1-2.7,2.5c-1.8,2.3-2.1,2.5-2,2s.7-1.5,1.9-3.1,1.1-2.3.5-2.1-1.4.6-2.7,2.5c-1.4,2-2.4,3.6-1.9,4.4s1,3.1,1,3.7-.5,1.1-1,0c-.4-1.2-1-3.2-1-3.9s.2-2,.3-2.7.4-1.6-.1-2h0s0,0,0,0Z"/>
      <path class="st2" d="M464.9,574.6c-1.9-.3-3,.2-3.4.8-.4.6,1.1.6,1.6.6s1,1.1,2.5,1.2c1.5.1,2.5.2,2.1-.7-.4-.9-1.3-1.7-2.8-2h0,0Z"/>
      <path class="st2" d="M469,631.1c-.8-.8-2.1.2-2.1,1s.8,2.1,2.1,2.1,1.6-1.7,0-3.1h0,0ZM462.5,613.8c-1.8-1.2-3.9-1.1-3.1-.4s.8,1.3,1.3,2,1.5,1,2,1c.5,0,1.1,1,1.6,1s.2-2.1-1.8-3.5M470.5,563.8c-1,0-1.8.6-2.1,1.5-.2.9-.1.6,1,.6s1,0,1.1-.6.6-1.5,0-1.5M471.3,565.7c-.5,1.5.9,3.2,2.2,4.5s2.5,1.6,2.6,2.2-1.5,1-3.4,1-2.8.8-4.2-.3-2.1-1.4-2.5-2.3c-.4-.9-1-2.7-2-3-1-.2-1.5.6-1.6,1.7s-1.5.5-2,0c-.4-.5.6-1.5.6-2.3s-.3-2.6-.1-3.5-.9-.8-1.6-.3-1.5,1.5-2.1,2.1c-.7.6-.8,1-.8,1.9s.1,1.9-.8,4c-.9,2.1,0,3.3-.1,5.4,0,2.1-.5,2.8-1.3,2.9-.8,0-1.5,1.5-2.9,1.7s-1.3,1.1-.7,2.4.4,3,1,3.7c.5.7-.6,1.5-1.3.8-.8-.6-1.3-.7-1.4.7,0,1.4,1.2,1.5,1.5,2,.2.5-.2,1.5-1.3,1.1-1.1-.3-1.7-2-4-1.8s-1,1.1,1.4,2.8c2.3,1.7,4.5,1.8,7.5,2.8s2.5,1.7,2.8,2.7c.4,1,1.6,1,1.6,1,0,0,0,2.1-.8,2.1-.9,0-2.6-1.3-5.4-3-2.7-1.7-5.4-1.5-6.1.5s0,5.6,1.6,8.6,4.3,3.2,5.8,3,1.1-.8-.8-.9-3.4-.6-4.6-4.1c-1.3-3.5-.7-6.4.6-6.5s4.2,1.1,5.9,2.3c1.7,1.2,3.2,1.3,3.2,1.3,0,0,.3,1.3,1,2.3s1.7,1.8,2.8,1.7.9-1,1.6-2.2,2.2-2.3,4.5-2.3c2.3,0,3.9,1.3,5.3,2.8s.5,4.5.7,5.5-.8,2.5-.6,3.8,1.3,1,1.6,2,.4,2.7.1,4c-.3,1.3-1.3,1.8-1.3,3.8s1.1,4,1.6,6c.6,2,.3,2.6-1.4,4.5s-3,1.9-5.1,1.8-3.2-.7-4-2-1.1-3-2.5-4.2c-1.4-1.2-4.2-3.4-7.6-6.1s-2.3-4.7-1.6-7.1c.6-2.5,1.8-3.2,1.9-4s-1.2,0-2.8,2.8c-1.6,2.8-1.3,4.4-.5,6.6.8,2.2,5.1,5.1,7.3,6.8s3.7,2.8,3.9,3.9c.2,1.1.6,2.1,1.9,3.4s2.5,1.5,4,1.4c1.5,0,2.5-.2,2.9.1.4.3,1.4,1.3,2.8,2.7s1.8,1.8,1,2.2-1.8,1.5-3.3,1.6-2.8,1.2-3.7.4c-.9-.8-1.3-2.2-1.7-3.2s-.8-1.6-1.7-1.8-2.1,0-3.2-.2-1.6-1.1-2.9-1.9-1,0-2.5,1.7c-1.5,1.7-2.7,2-4.3,2.4s-4.2-.4-5.7-.3-2.8,0-2.5-.4,1.3-2.3,3.9-3.7c2.6-1.4,4.9-1.8,5.9-1.7s-.1-2.5-1-3.3-3.4-.9-4.1-1-.6-2.8-.6-6.1-1-5.2-2.2-7.4c-1.2-2.2-2.8-7.9-3.7-11.7-.9-3.8-3.5-9.5-3.4-13.8.1-4.3,1.1-9,2-11.1s2.3-6.8,3.1-8.6,1.6-3,4.6-4.8,3.5-3,5.3-3.1,2.9-.2,2.9-.2c0,0,.7-2,2-3.1,1.3-1.1,3.4-1.1,4.5-.8s.4.8-.4,1.6-.6,2.3-.6,2.3c0,0,.5-.2,2.4,0s2.6,0,2.6,0c0,0,.6-.9,1.3-1.5.7-.6,2.3-1.2,3.3-.9,1.4.5.3,1.7-.2,3.2"/>
      <path class="st2" d="M435.6,608.6c-1.4.3-1.5,4.4-.4,5.6s4,4,4.5,5.9,1.4,5.3.6,7.5c-.8,2.1-.8,4.8,0,4.2s2.1-3.7,1.8-7.1c-.2-3.3-.7-6.3-2.8-8.5-2.1-2.1-3.3-3.2-3.4-4.7,0-1.5.3-3-.4-2.9h0Z"/>
      <path class="st2" d="M422.8,601.2c-1.4,0-4.6,2.8-4.9,7.9-.3,5,0,8.5.2,13.3.2,4.8,0,6.8-1.1,7.4s-2.3,1.1-1.6,1.5,2.1.6,3.2-1.2c1.1-1.8,1.2-3.2,1-9.8-.2-6.6-.9-11,.6-13.8s4.6-5.5,2.5-5.4h0s0,0,0,0Z"/>
      <path class="st2" d="M429,601.5c-3.1-.2-4.9,1.1-4.8,4.4,0,3.3.4,6.4-.4,8.1s-.6,5.5-.4,10,.2,11.5-.2,13.5-2.2,4-2.5,5c-.3,1-.4,3.9,0,5.1.4,1.2,1.6,2.7,1,4.7-.3,1.1-.8,1.6-.2,2.3.3.5.8-1.3,1.1-1.1s.2.8,0,1.5.8,1.5,1.1.3c.3-1.2.6-1.4.6,0s.1,1.6.7,1.7c.6.1.7-.5.8-1.3s.4-1.3.4.1-.1,1.8.6,1.8.6-.6.6-1.8.4-.8.4.3c0,1.1.4,1.7.9,1.7s.8-.7.6-2.7-.4-3.3-1.4-4.3c-1-1-1.1-3.7-1.1-5.7,0-3.2.2-4.2.2-6.7s1.3-5.5,2.7-9.5,3-7.6,3-10.8-.3-5-.4-7.2c-.1-2.1-.2-3.2-1.1-3s-1.8,1-2.8,1-1.7-.8-1.6-1.6c0-.8.2-1,.7-.3s1.5,1.4,2.4.6,1.6-1,2.4-.4.9.9,1-1.3c0-2.2-.6-4.1-4-4.4h0s0,0,0,0Z"/>
      <path class="st2" d="M374.4,542.9c-1.2,0-2,.6-1.8,1.8s.8,1.7,2.4,1.3,4.2-.3,4.7-1,.5-1.8-.2-2.3-1.7-.8-2.1-.3-1.5.5-3,.5h0Z"/>
      <path class="st2" d="M373.6,528.9c-1.1.2-1.4.9-1,3.7.4,2.8,1.8,9.5,1.8,9.5,0,0,.9.2,1.6,0,.8-.2,1-.3.4-3.6s-1-5.9-1.4-7.5c-.4-1.6-.4-2.3-1.5-2.2h0,0Z"/>
      <path class="st2" d="M372,524.7c-2.3.6-2.7,1.6-2.5,2.8,0,.6.8,1.1,2.4,1s3-.3,3.8-1.6.8-3.4-3.7-2.2h0Z"/>
      <path class="st2" d="M395.6,569.5c-.9-.6-5-2.5-7.5-4-2.5-1.5-2.8-2.8-3.8-4.4-1-1.5-1.4-1.8-1.8-3.5-.4-1.7-.8-2.4-1.5-2.6-.8-.2-.9,0-.7,1s2.1,11.6,2.1,11.6c0,0,.7.8,3.5,2.7s6,3.8,8.3,5.2c2.3,1.3,2.6,1.5,2.4-.6s-1-5.4-1-5.4h0s0,0,0,0Z"/>
      <path class="st2" d="M376.6,557.3c-2.2,0-3.5.3-3.6.8,0,.5-.4,1.7.8,1.3,1.2-.4,2.5-.7,3.1-.7s1.7-1.5-.2-1.5h0Z"/>
      <path class="st2" d="M375,560.1c-2,.2-2.4-.2-2.1,1.1.1.5.3,1.1,1.8.6s3.4-.1,3.4-.9-1.3-1-3-.8h0Z"/>
      <path class="st2" d="M375,562.4c-1.5,0-1.8,1-1.1,1.5.7.6,1.4.1,2.6,0s2.1,0,2.1-.7c0-.8-1.7-1-3.6-.9h0Z"/>
      <path class="st2" d="M376,565c-.8,0-1.1.8-.6,1.1s1.6,0,2.3,0,1.2-.9.5-1-1.4-.1-2.2,0h0Z"/>
      <path class="st2" d="M376.9,546.3c-1.2,0-1.8.1-1.4,2.3s1.3,7.4,1.4,7.6c0,.2,1.2.2,1.8,0,.6-.2.8-.4.4-3-.5-3.3-.8-4.2-1.1-5.8-.1-.8-.2-1.2-1.1-1.1h0,0Z"/>
      <path class="st2" d="M380.1,560c-.2-1.2-.7-.3-.7.5s-.4,1-.1,2,.2,1.9.2,2.9c0,1-.4,2.1,0,4.5.4,2.3,11.8,66.6,13.2,73.9,1.4,7.3,1.1,11.7,1.4,12.2s1.6.6,2.4.4,1.1-.8.2-5-14.1-78.5-15-83.2c-.9-4.6-1.4-6.8-1.6-8.2h0s0,0,0,0Z"/>
      <path class="st2" d="M397.9,586.6s-2.3.2-5.4,1.6c-3,1.4-5.9,3.3-5.9,3.3l5.1,28.3s2.4.8,3.3,4.2c.9,3.4.2,7.1-.2,7.8-.4.8-.7,1.5-.7,1.5l1.2,6.6s1.1.2,2.3.8,3.2.4,4.4-.3c1.2-.8,2.7-1.6,2.6-3.8s-.4-3.1-2.5-4.4c-2-1.3-3.8-3.3-4.6-5.1s-1.9-4.4-2.8-5.9-2.1-3.5-2.2-4.5-1.1-4.5,0-6.4,3.4-3.1,4-4.8,1.3-3.7.2-5.5c-1.1-1.9-1-5.7-.8-7.5s.5-2.5,1.5-3.1.6-2.8.6-2.8h0Z"/>
      <path class="st2" d="M372.5,616.4s-3.3,1.7-4.1,4.5c-.8,2.8.2,7,1.9,9.4s3.6,4.8,3.6,4.8c0,0,1.3-.8,1.6-3.5s.1-5.6-.8-8-2.2-7.2-2.2-7.2h0ZM373.5,609.7c.1-2.4,1.2-5.4,3.3-8.4,2.5-3.7,6.2-6.8,6.2-6.8l3.9,21.5s-1,.7-1,1.6,1.5.5,1.5.5l3.9,22.8s-1.3,1-2.6,1.7c-1.3.7-2.5.7-2.5.7,0,0-1.2-2.2-3.4-4.1-2.2-1.9-4.7-1.7-5.5-.2-.9,1.5-1.1,3,0,5.3,0,0-1.3.3-3-.8-1.2-.8-2.6-1.9-2-6.3,0,0-3-2-5.2-5.6-2.3-3.7-2.6-7.9-2.4-11.2s2.1-5.7,4.3-7,4.5-1.5,4.5-1.5c0,0,0-1.6,0-2.2"/>
      <polygon class="st7" points="309.4 424.1 298.6 435.4 296.9 433.8 304.9 425.5 295 431.9 294 430.9 300 420.8 292 429.1 290.4 427.5 301.2 416.2 303.7 418.6 298.5 427.2 306.9 421.7 309.4 424.1"/>
      <polygon class="st7" points="316.8 430.1 315.4 431.8 311.7 428.9 309.1 432 311.8 434.2 310.4 436 307.7 433.8 304.7 437.5 308.3 440.5 306.8 442.2 301.4 437.7 311.3 425.6 316.8 430.1"/>
      <polygon class="st7" points="325.1 436.2 316 448.9 314.3 447.6 316.9 436.7 310.8 445.2 309 443.8 318.1 431.1 320.1 432.5 317.6 442.8 323.3 434.9 325.1 436.2"/>
      <path class="st7" d="M332.2,444.9l-2.3-.6c.5-1.5.3-2.5-.6-3.1-.4-.2-.8-.3-1.2-.2-.4.1-.8.3-1,.7-.3.5-.4,1-.3,1.7,0,.4.4,1.3.9,2.5.5,1.3.8,2.3.9,3,.1,1,0,2-.6,3-.6,1-1.4,1.6-2.5,1.8-1.1.2-2.1,0-3.3-.7-2.3-1.4-2.9-3.5-1.8-6.3l2.3.6c-.7,1.8-.5,3,.6,3.7.5.3.9.4,1.4.3.5-.1.8-.4,1.1-.8.3-.5.4-1,.3-1.6,0-.5-.3-1.3-.7-2.2-.5-1.4-.8-2.3-.9-2.6-.4-1.5-.2-2.7.4-3.8.6-1,1.5-1.6,2.7-1.8,1-.1,1.9,0,2.8.6,1.9,1.2,2.5,3,1.7,5.6h0s0,0,0,0Z"/>
      <path class="st7" d="M344.8,451.3l-2.4-.4c.4-1.5,0-2.5-.9-3-.4-.2-.8-.2-1.2,0-.4.1-.7.4-.9.8-.2.5-.3,1.1-.1,1.7.1.4.5,1.2,1.1,2.5.6,1.3,1,2.3,1.2,2.9.2,1,.1,2-.4,3-.5,1-1.3,1.7-2.3,2-1,.3-2.1.2-3.3-.4-2.4-1.2-3.2-3.2-2.3-6.1l2.4.4c-.5,1.8-.2,3,1,3.6.5.2,1,.3,1.4.1.4-.2.8-.5,1-.9.2-.5.3-1,.1-1.6-.1-.5-.4-1.2-.9-2.1-.6-1.3-1-2.2-1.1-2.5-.5-1.4-.5-2.7,0-3.8.5-1.1,1.4-1.8,2.5-2,.9-.2,1.9-.1,2.9.4,2,1,2.8,2.8,2.2,5.5h0,0Z"/>
      <path class="st7" d="M349.4,460.1l1.4-7-3.8,6,2.4,1h0,0ZM348.9,462.3l-3.1-1.2-1.9,2.9-2.2-.9,8.6-13.4,3.1,1.2-2.9,15.7-2.3-.9.6-3.4"/>
      <polygon class="st7" points="366.2 455.3 361.5 470.2 359.4 469.6 358.5 458.4 355.4 468.3 353.2 467.6 357.9 452.7 360.2 453.4 361.1 463.9 364 454.6 366.2 455.3"/>
      <path class="st7" d="M371.5,466.9l.4-7.1-2.8,6.5,2.5.6ZM371.4,469.2l-3.2-.8-1.4,3.2-2.3-.5,6.5-14.5,3.2.8-.5,16-2.4-.6v-3.5"/>
      <rect class="st7" x="374.8" y="465.7" width="15.6" height="2.4" transform="translate(-138.1 772.2) rotate(-81.1)"/>
      <polygon class="st7" points="396.1 460.6 394.5 476.2 392.4 475.9 389.2 465.2 388.2 475.5 385.9 475.3 387.4 459.7 389.9 460 392.8 470 393.8 460.4 396.1 460.6"/>
      <path class="st7" d="M451.9,465.4h-2.4s0,0,0-.2c-.1-1.8-.8-2.7-2-2.6-.7,0-1.1.3-1.4.9-.2.3-.2.7-.3,1,0,.4,0,.8,0,1.2l.3,5.2c0,1.1.2,1.9.4,2.3.3.7.8,1,1.6.9,1.2,0,1.8-1.1,1.7-3.2,0,0,0-.2,0-.4h2.4c0,.1,0,.3,0,.4,0,1.5-.1,2.7-.7,3.7-.6,1.1-1.8,1.7-3.3,1.8-1.6,0-2.8-.4-3.6-1.5-.4-.6-.7-1.2-.8-2-.1-.6-.2-1.3-.2-2.2l-.3-4.4c0-1.5,0-2.5.1-3.1.3-1.1.8-1.8,1.7-2.3.6-.3,1.3-.5,2.1-.6,1.3,0,2.4.3,3.2,1,.8.8,1.3,2,1.4,3.5,0,.1,0,.3,0,.5h0,0Z"/>
      <path class="st7" d="M457.1,464.7l.8,5.5c.1.7.2,1.3.3,1.5.4.9,1,1.3,1.9,1.2.7-.1,1.2-.5,1.4-1.1.1-.3.2-.7.1-1,0-.3,0-.7-.1-1.1l-.8-5.5c-.1-.8-.2-1.3-.3-1.5-.4-.9-1-1.3-1.9-1.2-.7.1-1.2.5-1.4,1.1-.1.3-.2.7-.1,1,0,.3,0,.7.1,1.1h0ZM463.1,463.8l.8,5.6c.2,1.1.2,2,0,2.7-.4,1.8-1.5,2.8-3.5,3.1-1.5.2-2.7-.1-3.5-1-.5-.5-.8-1-1-1.7-.2-.6-.3-1.2-.4-1.9l-.8-5.6c-.2-1.1-.2-2,0-2.7.4-1.8,1.5-2.8,3.5-3.1,1.5-.2,2.7.1,3.5,1,.5.5.8,1,1,1.7.2.6.3,1.2.4,1.9"/>
      <path class="st7" d="M468.9,464.7l.9-.2c.6-.1,1.1-.3,1.4-.5.6-.5.8-1.2.6-2.4-.2-.8-.5-1.4-1-1.7-.3-.2-.6-.3-.9-.2-.3,0-.6,0-1,.2l-.9.2,1,4.6h0,0ZM469.4,466.9l1.4,6.3-2.4.5-3.4-15.3,3.7-.8c1.3-.3,2.4-.2,3.2.3,1.1.6,1.8,1.6,2.1,3.2.4,1.9,0,3.4-1.2,4.4l3.8,6.4-2.5.5-3.4-5.8-1.4.3"/>
      <path class="st7" d="M480.2,461.9l1-.3c.9-.3,1.4-.6,1.7-1,.4-.5.4-1.2.1-2.1s-.7-1.5-1.2-1.7c-.4-.2-1.1-.1-1.9.1l-1,.3,1.4,4.6h0ZM480.8,464.1l1.8,6.1-2.3.7-4.4-15,3.9-1.1c1.5-.4,2.6-.4,3.5,0,1,.5,1.8,1.6,2.2,3.2s.4,2.9-.2,3.9c-.3.5-.7,1-1.3,1.3-.5.2-1,.5-1.6.6l-1.5.5"/>
      <path class="st7" d="M490,456.2l2,5.2c.3.7.5,1.2.6,1.4.5.8,1.3,1.1,2.1.7.7-.2,1-.7,1.1-1.3,0-.3,0-.7-.1-1,0-.3-.2-.6-.4-1.1l-2-5.2c-.3-.7-.5-1.2-.6-1.4-.5-.8-1.2-1.1-2.1-.7-.7.3-1.1.7-1.1,1.3,0,.3,0,.7.1,1,0,.3.2.7.4,1.1h0s0,0,0,0ZM495.7,454l2,5.3c.4,1.1.6,1.9.6,2.6,0,1.8-.9,3-2.8,3.8-1.4.5-2.7.5-3.7-.2-.5-.4-1-.8-1.3-1.4-.3-.5-.6-1.1-.8-1.8l-2-5.3c-.4-1.1-.6-1.9-.6-2.6,0-1.8.9-3,2.8-3.8,1.4-.5,2.6-.5,3.7.2.5.4,1,.8,1.3,1.4.3.5.6,1.1.8,1.8"/>
      <path class="st7" d="M501.5,453.6l.8-.4c.6-.3,1-.5,1.2-.8.5-.6.5-1.4,0-2.4-.4-.8-.8-1.3-1.3-1.4-.3-.1-.6-.1-1,0-.3,0-.6.2-1,.4l-.8.4,2,4.3h0,0ZM502.5,455.7l2.7,5.8-2.2,1-6.6-14.2,3.5-1.6c1.2-.6,2.3-.7,3.2-.5,1.2.3,2.1,1.2,2.8,2.6.8,1.8.8,3.3-.2,4.6l5.1,5.5-2.3,1.1-4.6-4.9-1.3.6"/>
      <polygon class="st7" points="511.6 440.9 512.7 442.8 508.6 445.1 510.6 448.7 513.6 447 514.7 449 511.7 450.6 514 454.8 518.1 452.6 519.2 454.6 513 458 505.4 444.3 511.6 440.9"/>
      <path class="st7" d="M525.7,436l-1.5,1.9c-1.2-1.1-2.2-1.3-3-.7-.4.2-.6.6-.7,1,0,.4,0,.8.3,1.2.3.5.8.8,1.4.9.4,0,1.3.2,2.7.2,1.4,0,2.5.2,3.1.4,1,.3,1.8.9,2.5,1.8.7,1,.9,2,.7,3-.2,1.1-.9,2-1.9,2.7-2.2,1.5-4.3,1.2-6.4-1l1.5-1.9c1.3,1.4,2.5,1.7,3.6.9.5-.3.7-.7.8-1.2,0-.5,0-.9-.3-1.3-.3-.5-.8-.8-1.4-.9-.5-.1-1.3-.2-2.3-.3-1.5,0-2.4-.2-2.7-.2-1.5-.2-2.6-.9-3.3-1.9-.7-1-.9-2.1-.6-3.2.3-.9.8-1.7,1.8-2.3,1.9-1.3,3.8-1,5.8.7h0Z"/>
      <path class="st7" d="M535.3,436.2l-5.4-4.7,3.4,6.2,2-1.6h0ZM537,437.7l-2.6,2.1,1.6,3-1.9,1.5-7.4-14.1,2.6-2.1,12.2,10.3-2,1.5-2.7-2.3"/>
      <polygon class="st7" points="539.8 419.3 550.4 430.8 548.8 432.3 538.7 427.5 545.7 435.2 544 436.7 533.4 425.2 535.2 423.6 544.7 428 538.1 420.9 539.8 419.3"/>
      <path class="st7" d="M547,419l3.9,4c.5.5.9.9,1.1,1,.8.5,1.6.5,2.3-.2.5-.5.7-1.1.5-1.7-.1-.3-.3-.6-.5-.9-.2-.2-.5-.5-.8-.8l-3.9-4c-.5-.5-.9-.9-1.2-1-.8-.5-1.6-.5-2.2.2-.5.5-.7,1.1-.5,1.7.1.3.3.6.5.9.2.2.5.5.8.8h0s0,0,0,0h0ZM551.3,414.7l4,4.1c.8.8,1.3,1.5,1.6,2.1.7,1.6.4,3.2-1,4.5-1.1,1.1-2.2,1.5-3.5,1.3-.6-.1-1.2-.4-1.8-.8-.5-.4-1-.8-1.5-1.3l-4-4.1c-.8-.8-1.3-1.5-1.6-2.1-.7-1.6-.4-3.2,1-4.5,1.1-1.1,2.2-1.5,3.5-1.3.7.1,1.3.4,1.8.8.5.4,1,.8,1.5,1.3"/>
      <path class="st7" d="M437.7,414.9c3.7.8,7.5,1.3,11.4,1.3,28.7,0,51.9-23.2,51.9-51.9s-23.2-51.9-51.9-51.9-51.9,23.2-51.9,51.9,9.8,35,24.6,44.1h.2c-4.7,3-9.9,5.2-15.4,6.4l-.2-.2c-14.3-12.1-23.4-30.2-23.4-50.4,0-36.5,29.6-66.1,66.1-66.1s66.1,29.6,66.1,66.1-29.6,66.1-66.1,66.1-18.6-2-26.8-5.7h-.3c5.6-2.7,10.8-5.9,15.4-9.8h.2s0,0,0,0h0Z"/>
      <path class="st1" d="M437.9,314c14.2,12.1,23.2,30.1,23.2,50.3,0,36.5-29.6,66.1-66.1,66.1s-66.1-29.6-66.1-66.1,29.6-66.1,66.1-66.1,18.6,2,26.8,5.6h.3c-5.6,2.7-10.8,5.9-15.4,9.9h-.3c-3.7-.9-7.5-1.3-11.4-1.3-28.7,0-51.9,23.2-51.9,51.9s23.2,51.9,51.9,51.9,51.9-23.2,51.9-51.9-9.8-34.9-24.5-44.1l-.3-.2c4.7-2.9,9.9-5,15.4-6.3l.3.3h0Z"/>
    </g>
  </g>
</svg>