<svg xmlns="http://www.w3.org/2000/svg" xml:space="preserve" version="1.1" width="250" height="277.94" viewBox="0 0 250 277.94">
<title>Beerschot Antwerpen Club</title>
<g fill-rule="nonzero" transform="matrix(1.25,0,0,-1.25,-29.703063,481.5228)">
<path fill="#1f1642" d="m23.762,285.22,0,0c0-23.438,8.2518-46.11,23.235-64.052-2.004-1.7836-12.775-11.37-12.775-11.37-1.239-1.1727-1.8619-2.556-1.8619-3.9507,0-1.1921,0.45512-2.3923,1.3697-3.4748l0.63729-0.69406,0.22914-0.24048c11.326-12.049,24.706-21.532,39.768-28.186,15.593-6.8889,32.213-10.382,49.398-10.382s33.805,3.4933,49.398,10.382c15.062,6.6544,28.442,16.137,39.768,28.186,0.00038,0,0.22997,0.24048,0.22997,0.24048l0.63747,0.69442c0.91821,1.0871,1.3729,2.2922,1.3729,3.4853,0,1.3854-0.61353,2.755-1.8279,3.905,0,0-10.808,9.6201-12.813,11.405,14.983,17.943,23.235,40.614,23.235,64.052,0,55.14-44.86,100-100,100s-100-44.86-100-100z"/>
<path fill="#FFF" d="m123.76,164.54c34.676,0,65.936,14.624,87.949,38.042,0.27077,0.28818,0.55278,0.56584,0.80795,0.86816,1.2757,1.5103,1.414,3.4525-0.32681,5.101l-13.974,12.437,0.0147,0.0218c14.868,17.227,23.859,39.669,23.859,64.211,0,54.305-44.025,98.33-98.33,98.33-54.306,0-98.33-44.025-98.33-98.33,0-24.542,8.991-46.984,23.859-64.211l0.01469-0.0218-13.974-12.437c-1.7409-1.6485-1.6024-3.5907-0.32672-5.101,0.25481-0.30232,0.53709-0.57998,0.80767-0.86816,22.013-23.417,53.273-38.042,87.95-38.042z"/>
<path fill="#1f1642" d="m60.132,205.69c0.17066,0.13366,0.4514,0.1362,0.6246,0.006l3.889-2.9389c0.17319-0.1304,0.24646-0.40098,0.16304-0.60175l-4.0385-9.6888c-0.08342-0.20058-0.29325-0.25698-0.46627-0.12604l-2.741,2.0709c-0.1732,0.13094-0.23431,0.39608-0.13584,0.58959l0.43145,0.84912c0.09848,0.1935,0.03736,0.45883-0.13584,0.58959l-1.1777,0.88974c-0.1732,0.13112-0.44505,0.11733-0.60428-0.0298l-0.69877-0.64745c-0.15923-0.14726-0.43109-0.16086-0.60428-0.0299l-2.7652,2.0894c-0.17302,0.13094-0.17519,0.34784-0.0045,0.4815l8.2641,6.497m-2.0742-6.3691c-0.15724-0.14962-0.144-0.37886,0.02901-0.50943l0.67719-0.51179c0.1732-0.13058,0.39971-0.0816,0.50327,0.10863l2.0943,3.8475c0.10374,0.19025,0.18317,0.35057,0.17646,0.35565-0.0067,0.005-0.14055-0.11317-0.29779-0.26261l-3.1825-3.0279z"/>
<path fill="#1f1642" d="m66.756,198.33c0.11117,0.18644,0.35419,0.24792,0.54063,0.13638l3.0769-1.8333c0.18625-0.11136,0.30377-0.37595,0.26079-0.5885l-0.97879-4.8484c-0.0428-0.21255-0.07309-0.38901-0.0671-0.39282,0.0058-0.004,0.10156,0.14599,0.21273,0.33206l2.366,3.9697c0.11099,0.18608,0.35419,0.2481,0.54063,0.13657l1.7965-1.0702c0.18644-0.11154,0.24792-0.35456,0.13692-0.54099l-4.1739-7.0031c-0.11136-0.18607-0.35455-0.24792-0.54099-0.13656l-3.0548,1.8203c-0.18644,0.11153-0.30595,0.37686-0.26551,0.58977l0.89554,4.7412c0.04044,0.21292,0.06873,0.39029,0.06275,0.39355-0.006,0.004-0.10156-0.14581-0.21273-0.33225l-2.2953-3.8513c-0.11117-0.18643-0.35419-0.24792-0.54063-0.13656l-1.7965,1.0704c-0.18643,0.11135-0.24828,0.35492-0.13692,0.54081l4.1738,7.0033z"/>
<path fill="#1f1642" d="m76.233,192.83c0.09249,0.19605,0.32862,0.28092,0.52503,0.18861l5.9469-2.8031c0.19623-0.0923,0.28128-0.32826,0.18861-0.52467l-0.57091-1.2124c-0.09267-0.19623-0.3288-0.2811-0.52521-0.18861l-1.0762,0.50744c-0.19605,0.0925-0.43218,0.008-0.52503-0.18843l-2.5678-5.4496c-0.09249-0.19604-0.32862-0.28092-0.52503-0.18861l-2.3448,1.1056c-0.19623,0.0925-0.28128,0.32844-0.18861,0.52467l2.5678,5.4494c0.09286,0.19623,0.0076,0.43199-0.18862,0.5243l-1.0988,0.51814c-0.19641,0.0925-0.28129,0.32826-0.18879,0.52448l0.57146,1.2127z"/>
<path fill="#1f1642" d="m84.195,189.02c0.04099,0.21255,0.24284,0.32952,0.44796,0.25934l1.8598-0.63765c0.2053-0.07,0.33442-0.30106,0.28691-0.51252l-1.3118-5.8435c-0.04752-0.21127-0.08088-0.38629-0.07435-0.38919,0.0064-0.002,0.08887,0.15615,0.18353,0.35111l2.6099,5.4001c0.09449,0.19514,0.33968,0.29724,0.54498,0.22723l2.9735-1.0192c0.20529-0.07,0.33587-0.30105,0.29017-0.51306l-1.2595-5.8626c-0.0457-0.21182-0.07762-0.38683-0.07091-0.38901,0.0064-0.003,0.08778,0.15597,0.18045,0.35202l2.5573,5.417c0.09267,0.19604,0.33642,0.29905,0.54153,0.22869l1.86-0.63693c0.20512-0.07,0.29289-0.28582,0.19496-0.47933l-3.726-7.3497c-0.09812-0.19351-0.34621-0.29416-0.55151-0.22379l-3.2818,1.1244c-0.20511,0.0702-0.33732,0.30178-0.29361,0.51415l1.0713,5.2124c0.04371,0.21273,0.07382,0.3881,0.06747,0.39046-0.0065,0.003-0.08995-0.15506-0.18607-0.34948l-2.3504-4.775c-0.09612-0.1946-0.34222-0.29616-0.54734-0.22615l-3.282,1.1244c-0.20512,0.0704-0.33932,0.3025-0.29834,0.51487l1.5638,8.0909z"/>
<path fill="#1f1642" d="m97.796,184.63c0.04716,0.21129,0.25916,0.34622,0.4708,0.29888l6.0011-1.3415c0.21164-0.0473,0.34639-0.25934,0.29869-0.47062l-0.29217-1.3083c-0.0475-0.21128-0.25934-0.34621-0.4708-0.29888l-2.7013,0.60428c-0.21182,0.0473-0.42365-0.0874-0.47098-0.29887l-0.11752-0.52612c-0.0473-0.21128,0.0872-0.42329,0.29887-0.47062l2.4202-0.54099c0.21146-0.0472,0.34621-0.25916,0.29851-0.47062l-0.24302-1.088c-0.0475-0.21165-0.25915-0.3464-0.4708-0.29906l-2.42,0.54135c-0.21183,0.0473-0.42347-0.0876-0.47099-0.29888l-0.14472-0.64853c-0.04752-0.21147,0.08705-0.42347,0.2987-0.47081l2.7011-0.60374c0.21165-0.0473,0.34639-0.25915,0.29906-0.47062l-0.29253-1.3083c-0.0473-0.21146-0.25916-0.34621-0.47062-0.29888l-6.0013,1.3419c-0.21165,0.0473-0.34621,0.25934-0.2987,0.47062l1.7784,7.9563z"/>
<path fill="#1f1642" d="m109.26,177.5-0.41749-3.2604c-0.0277-0.21527-0.22651-0.36852-0.4416-0.34131l-2.5713,0.3297c-0.21527,0.0272-0.36888,0.22634-0.34132,0.44161l1.0361,8.086c0.0276,0.21527,0.22633,0.36834,0.4416,0.34132l4.8009-0.61535c1.9376-0.24828,2.7893-1.0898,2.5664-2.8284-0.14309-1.1181-0.90461-1.7399-2.012-1.7115l-0.003-0.025c0.68589-0.16358,1.6596-0.74302,1.5198-1.8361l-0.25625-1.9996c-0.0622-0.48495,0.0658-0.85492,0.0658-0.85492l-3.0421,0.3901c-0.29797,0.0381-0.4523,0.31048-0.40152,0.70783l0.25009,1.95c0.097,0.75771-0.10102,1.0862-0.72199,1.1659l-0.47207,0.0602m0.21962,1.7144,0.5341-0.0684c0.60882-0.0778,0.88956,0.34077,0.95485,0.85003,0.0811,0.63312-0.2909,0.88284-0.80033,0.94795l-0.45956,0.0593-0.22906-1.7889z"/>
<path fill="#1f1642" d="m119.66,175.76-0.08-2.4218c-0.007-0.2169-0.19024-0.3881-0.40733-0.38103l-2.5907,0.086c-0.2169,0.007-0.38846,0.19024-0.38121,0.40696l0.26895,8.148c0.007,0.2169,0.19043,0.3881,0.40733,0.38121l4.6-0.15179c2.1904-0.0727,3.198-1.0332,3.1241-3.2737-0.058-1.765-0.91096-2.9268-2.6505-2.8693l-2.2905,0.0755m0.0602,1.8275,0.61317-0.0201c0.56366-0.0185,0.87069,0.56021,0.89736,1.3611,0.0207,0.62605-0.35275,1.089-0.87832,1.1065l-0.5506,0.0185-0.0816-2.4659z"/>
<path fill="#1f1642" d="m126.18,181.39c-0.0116,0.21708,0.15597,0.40388,0.37269,0.41531l6.1398,0.33261c0.2169,0.0114,0.40388-0.15579,0.41513-0.37287l0.0724-1.3375c0.0114-0.21691-0.15579-0.40407-0.37287-0.41531l-2.7633-0.14998c-0.21673-0.0114-0.38412-0.19841-0.37287-0.41531l0.0294-0.537c0.0116-0.21672,0.19858-0.3843,0.4153-0.37287l2.4757,0.13366c0.21708,0.0116,0.40388-0.15597,0.41531-0.37269l0.0604-1.1126c0.0114-0.2169-0.15597-0.40388-0.37287-0.4153l-2.4759-0.13367c-0.21672-0.0116-0.3843-0.1984-0.37269-0.4153l0.0365-0.6625c0.0114-0.21691,0.19823-0.3843,0.41531-0.37287l2.763,0.14943c0.21709,0.0114,0.40407-0.15614,0.41531-0.37286l0.0724-1.3377c0.0114-0.21691-0.15597-0.40389-0.37287-0.41513l-6.1397-0.33207c-0.21672-0.0116-0.4037,0.15597-0.41531,0.37269l-0.44015,8.1399z"/>
<path fill="#1f1642" d="m134.74,181.88c-0.0321,0.21454,0.11734,0.41621,0.33207,0.44831l3.5415,0.53065c0.21473,0.0319,0.47334-0.099,0.57509-0.29035l2.3143-4.3711c0.10175-0.19133,0.19025-0.34803,0.19732-0.34676,0.007,0.001-0.0142,0.17719-0.0461,0.39192l-0.68481,4.5698c-0.0323,0.2149,0.11734,0.41639,0.33189,0.44849l2.0682,0.31031c0.21455,0.0323,0.4164-0.11734,0.44832-0.33189l1.2078-8.0622c0.0321-0.21472-0.11752-0.41639-0.33206-0.44849l-3.5172-0.52721c-0.21455-0.0319-0.47516,0.0979-0.57871,0.288l-2.3107,4.2358c-0.10392,0.19024-0.19406,0.3453-0.20113,0.34403-0.007-0.00036,0.0138-0.17719,0.0457-0.39173l0.66412-4.4336c0.0327-0.21473-0.11679-0.4164-0.33152-0.4485l-2.068-0.3103c-0.21491-0.0321-0.4164,0.11752-0.4485,0.33206l-1.2077,8.0628z"/>
<path fill="#1f1642" d="m168.45,189.76-2.8732-1.1942c-0.39718-0.14726-0.54607-0.0517-0.68046,0.27022l-0.18571,0.44723c-0.21164,0.5087-0.60682,0.74247-1.1725,0.5078-0.56529-0.23504-0.679-0.68009-0.46736-1.1888l2.0082-4.8343c0.21128-0.50871,0.60718-0.7423,1.1725-0.50708,0.5651,0.23486,0.67864,0.67955,0.46735,1.1888l-0.25988,0.62496c-0.12931,0.31738-0.13148,0.5087,0.28002,0.6761l2.8709,1.1924c0.36036,0.13385,0.46573,0.0403,0.53645-0.14544,0.0386-0.1012,0.0738-0.20167,0.10701-0.30233,0.29797-0.89681,0.39753-1.7653,0.10555-2.5889-0.34531-1.0054-1.3018-1.9333-3.2385-2.7378-3.9291-1.6326-5.3268-0.42329-6.9326,3.4015-1.7204,4.1411-1.2218,5.7739,2.467,7.3065,3.3939,1.41,4.9026,0.60084,5.8772-1.2603,0.0501-0.0958,0.0985-0.19405,0.14563-0.29525,0.1197-0.25063,0.10338-0.41131-0.2276-0.5613z"/>
<path fill="#1f1642" d="m169.5,191.96c-0.1012,0.19169-0.0269,0.43126,0.16504,0.533l2.2927,1.2088c0.19187,0.10175,0.43163,0.0272,0.53264-0.16467l2.8101-5.3281c0.10102-0.19188,0.34077-0.26642,0.53265-0.16522l2.0049,1.0577c0.19188,0.10102,0.43164,0.0267,0.53265-0.1654l0.62568-1.1852c0.10102-0.19188,0.0267-0.43163-0.16521-0.53265l-4.9955-2.6346c-0.19206-0.10101-0.43163-0.0267-0.53265,0.16522l-3.8031,7.2111z"/>
<path fill="#1f1642" d="m178.69,190.81c1.629-2.5698,3.584-1.8644,5.2971-0.77856,1.714,1.0867,3.1857,2.5537,1.5564,5.1233l-2.8533,4.5004c-0.11625,0.18317-0.36127,0.23812-0.54444,0.12224l-2.1893-1.3883c-0.18317-0.11607-0.23794-0.36108-0.12206-0.54426l3.2354-5.1034c0.40279-0.63402,0.3424-0.82064-0.10174-1.1021-0.44397-0.28165-0.63802-0.25662-1.0403,0.37831l-3.2354,5.103c-0.11589,0.18318-0.36108,0.23813-0.54426,0.12224l-2.1893-1.3883c-0.18317-0.11607-0.23812-0.36108-0.12187-0.54425l2.8531-4.5004z"/>
<path fill="#1f1642" d="m189.37,193.93c-0.17228-0.13203-0.42129-0.0994-0.55332,0.0729l-4.9646,6.4657c-0.13203,0.17229-0.0994,0.42112,0.0729,0.55351l3.4024,2.6121c2.0062,1.5404,3.07,1.4093,3.9313,0.2869,0.89264-1.162,0.52721-2.1056-0.35873-3.0698l0.0154-0.0194c1.1919,0.7091,2.2744,0.86199,3.2051-0.35021,0.68644-0.89409,0.89627-2.2166-0.86162-3.5668l-3.8888-2.985m-1.0201,6.0684,0.53645,0.41204c0.33751,0.25934,0.31738,0.71745,0.0428,1.0753-0.27439,0.35745-0.71201,0.49492-1.0495,0.23576l-0.53628-0.41131,1.0065-1.3118m2.1812-2.8408,0.53645,0.41186c0.39736,0.30504,0.31575,0.8424-0.0196,1.2795-0.33533,0.43744-0.70113,0.44088-1.0288,0.18934l-0.58669-0.45013,1.0987-1.4305z"/>
<path fill="#1f1642" d="m218.76,285.22c0-52.465-42.532-94.995-94.996-94.995s-94.996,42.531-94.996,94.995,42.532,94.996,94.996,94.996,94.996-42.532,94.996-94.996m-94.996,89.343c-49.342,0-89.343-40.001-89.343-89.343,0-49.343,40.001-89.343,89.343-89.343s89.343,40,89.343,89.343-40.001,89.343-89.343,89.343z"/>
<path fill="#1f1642" d="m158.99,213.81c-0.082,0.15306-0.0241,0.3453,0.12877,0.42728l4.1438,2.2245c0.15306,0.0821,0.3453,0.0245,0.42728-0.12877l0.4309-0.80251c0.0822-0.15306,0.0245-0.3453-0.12858-0.42745l-0.70693-0.37959c-0.15307-0.082-0.21074-0.27421-0.12895-0.42727l2.0359-3.7924c0.0822-0.15306,0.0241-0.3453-0.12895-0.42727l-1.6019-0.86018c-0.15307-0.0822-0.34513-0.0241-0.4271,0.12894l-2.0359,3.7924c-0.0821,0.15306-0.27421,0.21092-0.42709,0.12876l-0.72289-0.3881c-0.15307-0.0818-0.34531-0.0241-0.42728,0.12894l-0.43109,0.80269z"/>
<path fill="#1f1642" d="m164.34,216.73c-0.0928,0.14654-0.0493,0.3424,0.0972,0.43526l3.71,2.3562c0.14653,0.0932,0.3424,0.0495,0.43543-0.097l0.48858-0.76896c0.0929-0.14653,0.049-0.3424-0.0974-0.43562l-1.642-1.0428c-0.14653-0.0932-0.19024-0.28927-0.0972-0.43562l0.17736-0.27929c0.093-0.14654,0.28891-0.19025,0.43544-0.0972l1.4661,0.93127c0.14654,0.093,0.34241,0.0493,0.43544-0.0972l0.40099-0.63131c0.093-0.14653,0.0493-0.3424-0.0972-0.43543l-1.4661-0.93127c-0.14653-0.093-0.19024-0.2889-0.097-0.43544l0.22579-0.35564c0.0932-0.14654,0.28908-0.19025,0.43562-0.097l1.6424,1.043c0.14654,0.093,0.3424,0.0493,0.43544-0.0972l0.48857-0.76932c0.0929-0.14635,0.049-0.3424-0.0974-0.43562l-3.7098-2.356c-0.14654-0.0932-0.3424-0.0495-0.43562,0.097l-3.1346,4.9353z"/>
<path fill="#1f1642" d="m169.43,219.97c-0.10537,0.13765-0.0791,0.33697,0.0586,0.44252l2.0134,1.5406c0.13783,0.10536,0.36924,0.11407,0.5147,0.0189l2.9487-1.9284c0.14527-0.0952,0.26732-0.17047,0.27113-0.16739,0.004,0.003-0.0789,0.11824-0.18462,0.25607l-1.9978,2.6114c-0.10573,0.13783-0.0793,0.33678,0.0588,0.44233l1.1556,0.88448c0.13801,0.10555,0.33696,0.0791,0.44251-0.0589l3.5532-4.6426c0.10537-0.13801,0.0791-0.33696-0.0589-0.44251l-1.9987-1.5296c-0.13765-0.10573-0.37033-0.11552-0.51651-0.0225l-2.8986,1.8453c-0.14636,0.0929-0.26931,0.16685-0.27348,0.16341-0.004-0.003,0.0794-0.11807,0.1848-0.25572l1.9376-2.5319c0.10555-0.13765,0.0793-0.33696-0.0588-0.44251l-1.156-0.88448c-0.13783-0.10555-0.33715-0.0791-0.44233,0.0588l-3.5532,4.6428z"/>
<path fill="#1f1642" d="m175.65,224.85c-0.11715,0.12804-0.1079,0.3288,0.0201,0.44578l3.2448,2.9645c0.12804,0.11716,0.32862,0.10791,0.44578-0.0201l0.6148-0.67265c0.11715-0.12804,0.10791-0.32844-0.0201-0.44578l-1.4365-1.3123c-0.12803-0.11716-0.13728-0.31756-0.0201-0.4456l0.22307-0.24447c0.11716-0.12803,0.31756-0.13728,0.4456-0.0201l1.2826,1.1718c0.12804,0.11716,0.32844,0.10773,0.4456-0.0201l0.50435-0.55223c0.11716-0.12804,0.10791-0.32862-0.0199-0.44577l-1.2824-1.1716c-0.12804-0.11716-0.13711-0.31774-0.0201-0.4456l0.28437-0.31084c0.11716-0.12804,0.31774-0.13729,0.44559-0.0201l1.4364,1.3121c0.12804,0.11716,0.32899,0.10791,0.44578-0.0201l0.6148-0.67265c0.11661-0.12804,0.10791-0.32863-0.0201-0.4456l-3.2447-2.9648c-0.12786-0.11697-0.32862-0.10791-0.44578,0.0201l-3.9438,4.3163z"/>
<path fill="#1f1642" d="m190.45,228.52c-0.54752-0.64201-1.0089-0.66595-1.4164-0.31847l-0.62115,0.52975c-1.1516-0.97298-2.1304-0.72289-3.808,0.70783-2.0225,1.7249-2.198,2.7214-0.66159,4.5231,1.5363,1.8016,2.5481,1.7853,4.5706,0.0606,1.7602-1.5015,2.1259-2.4568,1.163-3.8653l0.14472-0.12386c0.20711-0.17647,0.53392,0.13674,0.53392,0.13674s0.0537,0.0627,0.11879,0.13928c0.0653,0.0765,0.22688,0.0473,0.35873-0.0653l0.38973-0.33224c0.13185-0.11263,0.14781-0.31285,0.0354-0.44505l-0.80776-0.94705m-3.0522,1.804c0.24883-0.21201,0.52032-0.22924,0.75608,0.047,0.23522,0.27602,0.17538,0.54153-0.0729,0.75354l-2.3607,2.0134c-0.24846,0.21182-0.52032,0.22887-0.75554-0.047-0.23576-0.2762-0.17591-0.54171,0.0724-0.75371l2.3607-2.0132z"/>
<path fill="#1f1642" d="m186.97,236.8c-0.14146,0.10029-0.17483,0.29833-0.0745,0.44015l1.0531,1.4822c0.10029,0.14145,0.29851,0.17483,0.44016,0.0747l3.5439-2.518c0.44396-0.31538,0.5807-0.27911,0.80142,0.0316,0.22089,0.31067,0.21001,0.45195-0.23396,0.76714l-3.5439,2.5182c-0.14182,0.10029-0.17519,0.29833-0.0745,0.43961l1.0528,1.4822c0.10048,0.14183,0.29852,0.17519,0.44034,0.0747l3.1224-2.2184c1.7972-1.2768,1.2126-2.6641,0.36108-3.8618-0.85111-1.1984-1.9684-2.2073-3.7657-0.93073l-3.1226,2.2184z"/>
<path fill="#1f1642" d="m192.06,245.4c1.195,2.0446,2.1935,2.2068,4.4886,0.86561,2.2947-1.3415,2.6433-2.2913,1.4487-4.3355-1.195-2.0441-2.1937-2.2066-4.4884-0.86508-2.2951,1.341-2.6435,2.2909-1.4489,4.335m4.0424-2.9719c0.28183-0.16449,0.55241-0.13384,0.7354,0.17973,0.18317,0.31339,0.0774,0.5642-0.20439,0.72888l-2.6788,1.5655c-0.282,0.16485-0.55223,0.13366-0.73522-0.17954-0.18335-0.31321-0.0778-0.56402,0.20421-0.72888l2.6788-1.5657z"/>
<path fill="#1f1642" d="m194.41,249.18,1.3404,2.8408c0.71981,1.5261,1.6415,1.8636,2.9792,1.2325l1.9362-0.91331c1.3375-0.63112,1.6629-1.5568,0.94306-3.0827l-1.344-2.8493c-0.074-0.15687-0.26315-0.2247-0.42002-0.15089l-5.2795,2.4908c-0.18081,0.0938-0.27149,0.22796-0.15524,0.43217m5.5027-0.28654,0.16631,0.35292c0.1897,0.40225,0.0994,0.61516-0.35165,0.82789l-2.1498,1.0142c-0.45122,0.21292-0.6732,0.1469-0.86272-0.25499l-0.1663-0.35292,3.3642-1.587z"/>
<path fill="#1f1642" d="m199.33,261.26c0.56638,1.7428,1.2552,2.101,2.2302,1.7842,1.0096-0.32826,1.1783-1.0412,1.045-1.9806l0.017-0.006c0.42057,0.91259,1.0047,1.4476,2.0575,1.1059,0.77639-0.25245,1.4445-0.95611,0.94832-2.4833l-1.0887-3.3497c-0.054-0.16485-0.23268-0.25608-0.3979-0.2024l-5.5602,1.8072c-0.16485,0.0535-0.2559,0.2325-0.20221,0.39754l0.95103,2.9267m2.1019-1.7516,0.15143,0.46591c0.0952,0.29325-0.10482,0.55858-0.41531,0.65977-0.31067,0.10084-0.6284,0.004-0.7238-0.28962l-0.15143-0.46591,1.1391-0.37015m2.4675-0.80214,0.15144,0.4659c0.11189,0.34513-0.15688,0.63294-0.53646,0.75626-0.37976,0.12351-0.59957-0.0243-0.69188-0.30921l-0.16576-0.50907,1.2427-0.40388z"/>
<path fill="#1f1642" d="m200.67,264.6c-0.16866,0.0395-0.27439,0.21056-0.23468,0.37922l1.0069,4.2782c0.0397,0.16867,0.21056,0.27439,0.3794,0.23468l0.88702-0.20874c0.16866-0.0397,0.27439-0.21056,0.23486-0.37922l-0.44578-1.8937c-0.0397-0.16866,0.066-0.33968,0.23468-0.37958l0.32209-0.0756c0.16902-0.0397,0.33986,0.066,0.37958,0.23467l0.39753,1.6908c0.0397,0.16866,0.21056,0.27439,0.37922,0.23486l0.72833-0.17139c0.16885-0.0397,0.27458-0.21055,0.23486-0.37921l-0.3979-1.6906c-0.0397-0.16884,0.0662-0.33986,0.23486-0.3794l0.41005-0.0965c0.16884-0.0397,0.33986,0.066,0.37958,0.23468l0.44559,1.8937c0.0397,0.16866,0.21056,0.27439,0.37941,0.23468l0.88701-0.20875c0.16885-0.0397,0.2744-0.21055,0.23486-0.37921l-1.0065-4.2782c-0.0397-0.16866-0.21092-0.2744-0.37958-0.23468l-5.6914,1.3393z"/>
<path fill="#1f1642" d="m202.03,270.47c-0.17192,0.0248-0.29234,0.18553-0.26714,0.35727l0.36145,2.5094c0.0247,0.17175,0.18408,0.33987,0.35419,0.37342l3.4568,0.6839c0.17029,0.0335,0.31031,0.0653,0.31103,0.07,0.00037,0.005-0.13946,0.029-0.31121,0.0542l-3.2546,0.46845c-0.17174,0.0249-0.29217,0.18553-0.26714,0.35727l0.20729,1.4409c0.0247,0.17174,0.18571,0.29216,0.35746,0.26714l5.7869-0.83334c0.17174-0.0249,0.29198-0.18553,0.26714-0.35746l-0.35873-2.4913c-0.0247-0.17156-0.18389-0.3415-0.35382-0.37722l-3.3622-0.70838c-0.16993-0.0356-0.30939-0.0691-0.3103-0.074-0.00036-0.005,0.13946-0.0292,0.31121-0.054l3.1558-0.4543c0.17193-0.0248,0.2918-0.18571,0.26714-0.35746l-0.20748-1.4407c-0.0245-0.17156-0.18552-0.29198-0.35727-0.26714l-5.7866,0.83334z"/>
<path fill="#1f1642" d="m203.07,278.32c-0.17302,0.01-0.30704,0.15941-0.29725,0.33261l0.2452,4.3883c0.01,0.17301,0.15941,0.30686,0.33243,0.29725l0.91041-0.051c0.17302-0.01,0.30704-0.15941,0.29706-0.33261l-0.10863-1.9425c-0.01-0.1732,0.12423-0.32282,0.29725-0.33261l0.33043-0.0185c0.17302-0.01,0.32263,0.12423,0.33243,0.29743l0.0972,1.7343c0.01,0.17302,0.15942,0.30704,0.33243,0.29725l0.74683-0.0417c0.1732-0.01,0.30722-0.1596,0.29743-0.33279l-0.097-1.734c-0.01-0.1732,0.12423-0.323,0.29725-0.33279l0.42093-0.0234c0.17319-0.01,0.32299,0.12423,0.33279,0.29725l0.10827,1.9425c0.01,0.17302,0.15977,0.30704,0.33279,0.29725l0.91005-0.0506c0.17319-0.01,0.30704-0.1596,0.29742-0.33261l-0.24537-4.3885c-0.01-0.17319-0.1596-0.30703-0.33279-0.29742l-5.8375,0.3268z"/>
<path fill="#1f1642" d="m49.711,327.92c2.152,3.8747,4.0133,4.3722,6.2951,3.105,2.3627-1.3121,2.4755-3.1066,1.7418-5.2846l0.04044-0.0223c1.4345,1.9643,3.1125,2.9398,5.5758,1.572,1.8174-1.0094,3.1719-3.0421,1.2865-6.4374l-4.1239-7.4246c-0.21055-0.37922-0.69315-0.51742-1.0725-0.30686l-13.038,7.2412c-0.37922,0.21055-0.51741,0.69333-0.30686,1.0725l3.6018,6.485m4.4608-5.2886,0.57508,1.0359c0.36235,0.65234-0.01976,1.3914-0.74665,1.7951-0.72706,0.40388-1.5564,0.3375-1.9186-0.31466l-0.57545-1.0361,2.6656-1.4802m5.7748-3.2075,0.57545,1.0359c0.42619,0.76732-0.11734,1.5965-1.0058,2.0898-0.88865,0.49348-1.4973,0.25409-1.8486-0.37885l-0.62858-1.1318,2.9075-1.615z"/>
<path fill="#1f1642" d="m59.317,340.43c-0.30958,0.30414-0.31429,0.80614-0.01014,1.1156l7.4135,7.5464c0.30396,0.30958,0.80613,0.3142,1.1155,0.0101l1.6754-1.6461c0.30976-0.30423,0.31429-0.80605,0.01018-1.1156l-3.2614-3.3202c-0.30413-0.3094-0.2996-0.81148,0.01-1.1154l0.62115-0.61018c0.3094-0.30413,0.81139-0.29942,1.1153,0.01l2.9079,2.9601c0.30414,0.30957,0.80596,0.31429,1.1157,0.0101l1.3789-1.355c0.30958-0.30414,0.31429-0.80604,0.01014-1.1156l-2.9079-2.9598c-0.30432-0.30939-0.2996-0.81139,0.01-1.1157l0.78582-0.77186c0.3094-0.30413,0.81139-0.2996,1.1153,0.01l3.2615,3.3201c0.30396,0.3094,0.80613,0.31393,1.1157,0.01l1.6757-1.6462c0.3094-0.30414,0.31393-0.80595,0.01-1.1155l-7.4135-7.5466c-0.30414-0.30957-0.80595-0.31429-1.1157-0.01l-10.639,10.452z"/>
<path fill="#1f1642" d="m75.412,354.97c-0.22289,0.37224-0.10029,0.85901,0.27222,1.0818l9.0795,5.4285c0.37251,0.2228,0.85927,0.1002,1.0816-0.27204l1.2057-2.0162c0.22271-0.37223,0.10011-0.85899-0.2724-1.0816l-3.9946-2.3883c-0.37233-0.22288-0.49492-0.70947-0.27204-1.0819l0.44686-0.74765c0.22289-0.37214,0.70929-0.49474,1.0818-0.27194l3.5615,2.1292c0.37214,0.22289,0.85891,0.10029,1.0816-0.27194l0.9922-1.6594c0.22252-0.37242,0.09993-0.85918-0.2724-1.082l-3.5615-2.1292c-0.37215-0.22289-0.49474-0.70966-0.27186-1.0818l0.56529-0.94578c0.22271-0.37242,0.70947-0.49501,1.0818-0.27213l3.9948,2.3883c0.37215,0.2228,0.85891,0.1002,1.0818-0.27195l1.2051-2.0163c0.22289-0.37223,0.10047-0.859-0.27185-1.0818l-9.08-5.4288c-0.37214-0.22244-0.85891-0.10011-1.0818,0.27231l-7.6533,12.801z"/>
<path fill="#1f1642" d="m102.82,358.05,1.5809-5.7899c0.11462-0.41857-0.13439-0.85437-0.55296-0.9689l-4.1935-1.1448c-0.41857-0.11452-0.85437,0.13448-0.96899,0.55296l-3.928,14.388c-0.11444,0.41849,0.13457,0.85438,0.55314,0.96872l8.0873,2.2081c3.3023,0.90143,5.2637,0.0483,6.1156-3.0712,0.5477-2.0054-0.24864-3.5876-2.0566-4.2966l0.0122-0.0445c1.2218,0.19007,3.1979-0.13266,3.7332-2.0934l0.97951-3.5872c0.23703-0.86906,0.69949-1.4136,0.69949-1.4136l-5.1817-1.4144c-0.50798-0.13883-0.94741,0.22007-1.142,0.93326l-0.95521,3.4981c-0.37105,1.3594-0.91929,1.7842-1.9777,1.4953l-0.80451-0.21963m-0.83932,3.075,0.91005,0.24837c1.0374,0.28328,1.1993,1.1895,0.94977,2.1029-0.31012,1.1366-1.0849,1.308-1.9528,1.0711l-0.7831-0.214,0.87613-3.2084z"/>
<path fill="#1f1642" d="m123.77,358.37c0.0319-0.39001,0.0778-0.72452,0.19315-0.99465,0.1692-0.37269,0.45031-0.60837,0.95502-0.61726,0.78982-0.0135,1.3709,0.60012,1.3848,1.4083,0.0627,3.6491-8.1836,1.4118-8.0795,7.4393,0.0684,3.9724,2.4672,5.6405,6.9431,5.5633,4.8223-0.0832,6.3967-1.8304,6.7158-4.0329,0.0154-0.1071,0.0279-0.21528,0.0375-0.32436,0.0377-0.48695,0.0501-0.79616-0.83151-0.78066l-3.6872,0.0637c-0.77639,0.0132-0.90515,0.23005-0.92619,0.49701-0.0247,0.30822-0.0744,0.56465-0.18934,0.76941-0.17029,0.30314-0.5185,0.4708-1.1329,0.4815-0.63602,0.0111-1.0633-0.58215-1.074-1.2058-0.0528-3.0716,8.2276-1.3892,8.1248-7.3708-0.0753-4.3647-3.1705-5.6745-6.922-5.6097-3.454,0.0599-6.991,0.56067-7.3401,4.2139-0.0163,0.17111-0.0269,0.34947-0.0276,0.53509-0.002,0.45213,0.30323,0.64926,0.95231,0.6285l4.0356-0.0695c0.70748-0.009,0.83461-0.18798,0.86816-0.5944z"/>
<path fill="#1f1642" d="m152.09,355.03-3.7274,1.1641c-0.41404,0.12949-0.84857-0.0716-0.96555-0.44641-0.11715-0.37505-0.32445-1.0382-0.32445-1.0382-0.24809-0.79353-0.79017-1.205-1.628-0.94333-0.83787,0.2617-1.0497,0.90851-0.8016,1.7022l2.3553,7.5402c0.24774,0.79389,0.79,1.2052,1.6279,0.94351,0.83787-0.2617,1.0495-0.90869,0.8016-1.7022,0,0-0.16322-0.52322-0.26406-0.84612-0.10083-0.32273,0.15543-0.6927,0.56964-0.82191l3.6583-1.1431c0.89808-0.28156,1.2416-0.1012,1.4119,0.54317,0.024,0.0995,0.0464,0.19849,0.0675,0.29652,0.64836,3.047-0.26949,5.3886-5.2467,6.9431-5.4665,1.7075-7.5459,0.27593-9.5637-6.1837-1.8451-5.9816-1.4579-8.7159,4.3649-10.535,2.8692-0.89645,4.7862-0.7209,6.1078,0.12504,0.9748,0.60891,1.6433,1.5565,2.1442,2.6969,0.0531,0.12042,0.11171,0.2402,0.15361,0.36743,0.25408,0.77503,0.0727,1.0647-0.74103,1.3374z"/>
<path fill="#1f1642" d="m165.69,359.13c0.24483,0.35827,0.73831,0.45067,1.0963,0.20575l3.5872-2.4548c0.35818-0.24483,0.45049-0.7384,0.20584-1.0965l-2.1746-3.1776c-0.24465-0.35809-0.15234-0.85129,0.20584-1.0965l0.61734-0.42257c0.35836-0.24483,0.85183-0.15243,1.0967,0.20575l2.1745,3.1774c0.24465,0.35791,0.73831,0.45031,1.0965,0.20557l3.5872-2.4549c0.358-0.24484,0.45031-0.7384,0.20548-1.0965l-8.4222-12.308c-0.24483-0.35799-0.73831-0.45049-1.0965-0.20565l-3.5872,2.4548c-0.35819,0.24483-0.45049,0.7384-0.20584,1.0963l2.6701,3.902c0.24483,0.35809,0.15252,0.85175-0.20548,1.0965l-0.61789,0.42293c-0.35763,0.24483-0.85129,0.15243-1.0961-0.20575l-2.6701-3.9019c-0.24483-0.35791-0.73831-0.45031-1.0965-0.20548l-3.5872,2.4548c-0.35837,0.24483-0.45068,0.7384-0.20566,1.0966l8.4224,12.308z"/>
<path fill="#1f1642" d="m190.5,339.41c3.6128-4.4436,3.0544-6.9054-2.1966-11.175-5.251-4.2692-7.7752-4.3134-11.388,0.13021-3.6128,4.444-3.0544,6.9059,2.1968,11.175,5.2512,4.2694,7.775,4.3139,11.388-0.13022m-10.66-7.0263c-0.64509-0.52449-0.82609-1.1808-0.27204-1.8618,0.5535-0.68117,1.2329-0.63783,1.878-0.11298l6.1293,4.983c0.64526,0.52449,0.82608,1.1808,0.27239,1.8618-0.55368,0.681-1.233,0.63802-1.8781,0.11335l-6.1295-4.9833z"/>
<path fill="#1f1642" d="m198.7,325.18c0.39699,0.17464,0.86507-0.007,1.0394-0.40461l4.5584-10.367c0.17465-0.39681-0.008-0.86489-0.40461-1.0395l-2.1502-0.94559c-0.39717-0.17465-0.86525,0.008-1.0395,0.4046l-0.76061,1.7298c-0.17465,0.39699-0.64237,0.57907-1.0397,0.40461l-10.058-4.4228c-0.39717-0.17429-0.86507,0.008-1.0395,0.40461l-1.7499,3.9793c-0.17447,0.397,0.008,0.8649,0.4046,1.0396l10.058,4.4228c0.39699,0.17428,0.57926,0.64236,0.40479,1.0395l-0.77839,1.7697c-0.17446,0.39699,0.008,0.86489,0.40461,1.0394l2.1505,0.9456z"/>
<path fill="#1f1642" d="m47.812,204.29c0.08306-0.08,0.21781-0.0956,0.3522-0.0386,0.08959,0.0364,0.18244,0.10827,0.25807,0.0539,0.06185-0.0446,0.1235-0.0994,0.15252-0.12115,1.2706-0.97026,2.2374-0.67574,2.9081-0.15506,0.33678,0.26152,0.31466,0.62187,0.08995,1.0345-0.01578,0.0294-0.03881,0.10374-0.02013,0.13312,0.05604,0.0841,0.17537,0.26478,0.22833,0.34784,1.1235,1.7343,1.1781,2.7264,0.48767,3.3883-0.69079,0.66377-1.6794,0.56801-3.3667-0.62604-0.08016-0.056-0.25553-0.18263-0.33787-0.24248-0.02739-0.0194-0.10428,0.00074-0.13348,0.0158-0.42147,0.20711-0.78274,0.21419-1.0305-0.13275-0.4922-0.69188-0.74737-1.6696,0.27476-2.8995,0.02267-0.0277,0.08016-0.0876,0.12731-0.14799,0.05695-0.0727-0.0098-0.16848-0.04353-0.25898-0.05078-0.1371-0.02992-0.27076,0.05332-0.35074z"/>
<path fill="#1f1642" d="m199.71,204.29c-0.0827-0.08-0.21744-0.0956-0.35165-0.0386-0.0898,0.0364-0.18263,0.10827-0.25825,0.0539-0.0618-0.0446-0.12387-0.0994-0.15271-0.12115-1.2708-0.97026-2.237-0.67574-2.9077-0.15506-0.33714,0.26152-0.31501,0.62187-0.0903,1.0345,0.0158,0.0294,0.0392,0.10374,0.0199,0.13312-0.0559,0.0841-0.17484,0.26478-0.22833,0.34784-1.1232,1.7343-1.1776,2.7264-0.48731,3.3883,0.69061,0.66377,1.6796,0.56801,3.3665-0.62604,0.0805-0.056,0.25535-0.18263,0.33805-0.24248,0.0272-0.0194,0.10428,0.00074,0.13312,0.0158,0.42184,0.20711,0.78328,0.21419,1.0305-0.13275,0.49257-0.69188,0.74756-1.6696-0.27439-2.8995-0.0227-0.0277-0.0805-0.0876-0.12713-0.14799-0.057-0.0727,0.01-0.16848,0.0435-0.25898,0.0504-0.1371,0.0299-0.27076-0.0539-0.35074z"/>
<path fill="#1f1642" d="m153.61,178.11c0.11153,0.0288,0.19514,0.13529,0.2169,0.27983,0.016,0.0952,0.003,0.21255,0.0885,0.24846,0.0707,0.0298,0.15017,0.0537,0.18317,0.0662,1.4909,0.57672,1.7448,1.5557,1.6514,2.3992-0.0473,0.42328-0.36652,0.59303-0.83497,0.61697-0.0332,0.002-0.10917,0.0212-0.12459,0.0531-0.0422,0.0909-0.13366,0.28709-0.177,0.37632-0.89246,1.8631-1.7093,2.4284-2.6346,2.1854-0.92655-0.24175-1.3614-1.1355-1.2249-3.1986,0.006-0.0968,0.0221-0.31266,0.0308-0.41367,0.001-0.0343-0.0555-0.0896-0.0836-0.10591-0.3968-0.25118-0.5914-0.55605-0.4251-0.94742,0.33316-0.78165,1.0332-1.5105,2.6159-1.2811,0.0354,0.005,0.11698,0.0221,0.19297,0.031,0.0912,0.0109,0.13819-0.0961,0.19804-0.17229,0.0907-0.1148,0.21509-0.16685,0.32698-0.13747z"/>
<path fill="#1f1642" d="m60.374,279.49c0-1.6652-1.3497-3.0149-3.0151-3.0149s-3.0151,1.3497-3.0151,3.0149c0,1.665,1.3497,3.0151,3.0151,3.0151s3.0151-1.35,3.0151-3.0151z"/>
<path fill="#1f1642" d="m44.869,274.97c-0.21672,0-0.39427-0.17755-0.39427-0.39427v-3.1074c0-0.21691,0.17755-0.39446,0.39427-0.39446h24.98c0.2169,0,0.39427,0.17755,0.39427,0.39446v3.1074c0,0.21672-0.17737,0.39427-0.39427,0.39427h-24.98z"/>
<path fill="#1f1642" d="m46.843,269.4c-0.34712,0-0.63112-0.28401-0.63112-0.63113v-4.1179c0-0.34712,0.28401-0.63113,0.63112-0.63113h21.033c0.34694,0,0.63076,0.28401,0.63076,0.63113v4.1179c0,0.34712-0.28382,0.63113-0.63076,0.63113h-21.033z"/>
<path fill="#1f1642" d="m67.947,279.49c0-1.6652-1.3497-3.0149-3.0151-3.0149s-3.0151,1.3497-3.0151,3.0149c0,1.665,1.3497,3.0151,3.0151,3.0151s3.0151-1.35,3.0151-3.0151z"/>
<path fill="#1f1642" d="m52.801,279.49c0-1.6652-1.3498-3.0149-3.0152-3.0149s-3.0149,1.3497-3.0149,3.0149c0,1.665,1.3495,3.0151,3.0149,3.0151s3.0152-1.35,3.0152-3.0151z"/>
<path fill="#1f1642" d="m158.67,228.56c18.982,11.721,31.633,32.714,31.633,56.661,0,36.75-29.793,66.543-66.543,66.543-34.139,0-62.274-25.709-66.1-58.823l0.03302,0.002c11.5-0.1712,20.764-9.0945,20.764-20.077,0-8.5396-5.6014-15.834-13.499-18.737l-0.03917-0.0105c7.7788-14.685,20.894-26.11,36.762-31.689l-0.005,0.0528-0.006,0.24411c-0.014,0.52811-0.0288,1.0974-0.0288,1.7069,0,4.5321,0.82191,11.282,9.0173,19.718,0.0609,0.0624,0.17755,0.17393,0.30323,0.29145,0.22833,0.21418,0.29434,0.80123,0.0754,1.2049-0.26169,0.48386-0.56347,1.0428-0.62441,1.1638-1.576,3.1108-3.3314,7.1904-3.3314,17.18,0,0.65633,0.0174,1.3482,0.0277,2.0618,0.007,0.49293-0.12985,0.67138-0.65288,0.81701-1.1997,0.3542-2.8515,0.8698-4.403,1.4516-1.3177,0.49456-2.0441,0.69315-2.4451,0.76097-0.14128,0.024-0.29108-0.23522-0.22561-0.49782,0.06565-0.26261,0.17628-0.62441,0.36018-1.1228,0.3502-0.9505,0.70675-1.9188,0.70675-2.73,0-0.6275-0.21364-1.161-0.8094-1.5183-0.79416-0.47642-1.4822-0.23486-2.1041,0.21382-0.09884,0.0713-0.35274-0.0288-0.39191-0.14545-0.07617-0.22742-0.17392-0.43-0.2967-0.63475-0.29507-0.49184-0.77276-0.77856-1.3107-0.78672-0.64074-0.01-1.0463,0.32898-1.3926,0.7811-0.06475,0.0847-0.26932,0.11788-0.3143,0.0486-0.18027-0.27694-0.41531-0.50908-0.73304-0.64056-0.55713-0.23087-1.1955-0.10138-1.6266,0.32953-0.72724,0.72688-1.0078,1.2276-1.802,2.8881l-0.06003,0.1255c-0.8415,1.7581-1.9938,4.1663-2.2236,6.1594-0.04207,0.36344-0.0662,0.7169-0.0662,1.0631,0,2.0457,0.85274,3.8218,3.9632,5.831,2.9714,1.9186,8.6885,4.5421,13.458,6.2496,0.12821,0.0461,0.1128,0.39899-0.0286,0.54263-0.31067,0.31592-0.64219,0.67192-0.99239,1.0736-1.846,2.1197-4.9155,6.0263-6.1058,7.8863-0.71491,1.1172-3.2115,3.0094-6.8488,5.1924-1.1121,0.66703-2.3859,1.1819-3.51,1.6368-1.3074,0.52847-2.4364,0.98495-3.1986,1.6128-1.5421,1.27-1.7846,2.5753-1.8208,4.7102-0.0015,0.10264-0.0283,0.33224-0.04516,0.33351-0.07853,0.006-0.18226,0.0138-0.3025,0.0283-0.63892,0.0758-1.7392,0.3299-1.9365,1.415-0.01307,0.0725-0.02448,0.16649-0.02448,0.27476,0,0.18553,0.04298,0.4135,0.16159,0.64908,0.03335,0.0667,0.05749,0.2967,0.02737,0.34512-0.06638,0.10609-0.12586,0.21872-0.15288,0.36145-0.01649,0.0867-0.02555,0.17845-0.02555,0.27294,0,0.40787,0.17592,0.86362,0.62804,1.2136,0.07762,0.06,0.25989,0.4485,0.27185,0.52612,0.19387,1.2671,1.895,1.6368,2.486,1.7653,1.7329,0.37668,3.1678,0.17555,4.4538-0.60084,0.07853-0.0475,0.40134-0.13583,0.4942-0.13057,0.93036,0.0515,2.4572-0.0183,3.9708-0.7753,1.0595-0.52957,1.7913-1.1857,2.5662-1.8801,0.83515-0.74918,1.6988-1.5234,3.1727-2.3114,3.1796-1.7011,6.8916-2.887,12.412-3.9663,4.4304-0.86598,7.4422-1.1239,9.3348-1.1678,0.11172-0.002,0.21962-0.003,0.32354-0.005,0.4378-0.008,0.51034,0.17302,0.54589,0.48241,0.0214,0.14055,0.0397,0.27911,0.0553,0.41585,0.19768,1.7378-0.1012,3.1694-0.99474,4.5444-2.0479,3.1533-6.2994,6.72-11.645,11.056l-2.7472,2.1941c-2.7376,2.1698-4.446,3.5405-5.0918,4.2784-1.3446,1.5368-1.0553,4.6319-0.38756,5.7238,0.6197,1.0138,1.412,1.5323,1.9249,1.78,0.92401,0.45467,1.6431,0.66359,2.014,0.5477,0.37105-0.11607,0.32535-0.73867,0.32535-0.73867-0.0333-0.25245-0.0638-0.77222-0.07-0.90805-0.0232-0.51016,0.0927-0.64926,0.32445-0.62931,0.43652,0.00036,1.0718,0.1255,1.6625,0.60881,0.24991,0.20439,0.46156,0.4008,0.64636,0.58651,0.1264,0.12713,0.16467,0.53936,0.0705,0.62949-0.86036,0.82554-1.9008,1.8246-1.9008,1.8246-1.8464,1.7309-2.6116,2.5818-2.6116,3.9168,0,0.0963,0.004,0.19533,0.0116,0.29707,0.0646,0.83714,0.57799,1.5424,1.049,2.0227,0.0894,0.0912,0.3123,0.45594,0.34567,0.57291,0.16703,0.58706,0.46137,1.386,0.99021,2.1993,1.5914,2.4479,3.5506,1.8737,4.1136,1.6396,0.74302-0.30957,3.7303-1.6151,6.2777-2.865,1.5064-0.73912,2.3528-0.68399,3.7987-0.39454,2.2632,0.4524,4.8217-0.65425,6.5145-1.3864,1.0816-0.46745,2.6273-1.2773,3.6973-1.8535,0.10246-0.0551,0.4474-0.029,0.53065,0.0357,0.65996,0.51524,1.5845,1.0303,2.7156,1.0952,2.2448,0.12849,4.2487-1.3667,4.562-3.4037,0.0421-0.2724,0.0597-0.56548,0.0597-0.86617,0-0.43526-0.0408-0.87178-0.0967-1.2927-0.0158-0.11806,0.20148-0.62042,0.32481-0.75318,0.29833-0.32118,0.55694-0.59993,0.55694-0.59993,0.30741-0.33787,0.56457-0.6848,0.76642-0.98368,0.0611-0.0899,0.34077-0.31538,0.43508-0.35111,0.62731-0.23812,1.4694-0.65325,2.1543-1.3384,0.9271-0.92674,1.2399-2.0921,1.3433-2.9289,0.012-0.0956,0.30523-0.49637,0.4728-0.63239,1.3905-1.1304,4.0158-3.3148,5.5338-4.9019,2.1658-2.2644,3.7927-4.7485,5.7004-10.744l2.0065-5.9306c0.85564-2.4646,1.7408-5.0131,2.3602-7.0782l0.13439-0.44614c0.8239-2.7361,1.8014-5.9819,1.8014-9.8002,0-1.1928-0.0954-2.4412-0.32046-3.7476l-0.37595-2.1197c-0.57726-3.2046-1-5.5515-1-9.1832,0-0.97026,0.0303-2.0321,0.0954-3.2267,0.37052-6.7585,1.3731-11.469,2.749-17.385,0.89718-3.858,1.3426-7.5358,1.3426-10.865,0-4.2967-0.74175-8.0131-2.2104-10.787-0.64672-1.2216-1.282-2.3411-1.8959-3.3803l-0.0444-0.068z"/>
<path fill="#1f1642" d="m120.93,300.14c-0.0386-0.1119-0.0814-0.22362-0.1235-0.3366-0.71908-1.9276-1.7035-4.1206-2.8751-6.6899-0.0669-0.14654-0.33805-0.52721-0.59485-0.65669-0.85002-0.42783-3.0227-1.3567-5.9616-1.4102-3.8264-0.0696-6.6092,1.4612-10.436,5.0787-2.901,2.7428-5.6803,4.8874-10.505,7.166-2.5045,1.1826-5.0787,1.4608-5.4962,2.922-0.4173,1.4608-0.34784,2.4349,0.97407,3.7568s3.7568,1.3219,5.218,0.34784c1.4608-0.97407,3.1306-3.1308,5.983-4.4525,2.8526-1.3221,7.0963-3.2004,13.219-4.1743,4.9436-0.78654,8.1549-1.0263,9.8907-1.0945,0.13656-0.005,0.26405-0.0114,0.38266-0.0134,0.35945-0.005,0.43018-0.13891,0.32517-0.44323m6.0113-68.879c1.3406,5.4188,5.6299,9.555,5.6299,9.555s-4.267,2.9685-6.0294,6.1223c-1.7624,3.1536-4.4525,8.6268-1.1134,14.842,3.0232,5.6262,5.7423,9.1241,10.842,13.659,0.53337,0.47442,0.80613,0.95883-0.44995,0.2519-1.7488-0.98404-4.2352-2.364-6.1244-3.3359-3.2465-1.6698-11.409-3.4322-14.935-3.2468-3.525,0.18552-5.6587,0.37105-9.9255,1.9481-4.2672,1.5771-6.308,1.8553-7.6993-0.0928-1.3916-1.9478-1.9481-3.3397-3.0611-3.2467-1.1132,0.093-3.0996,0.91803-3.5249,2.6903-0.55658,2.3188-0.87287,3.0047,2.1335,5.0091,2.5044,1.6698,6.343,3.6134,17.068,7.5138,8.1631,2.9684,11.696,4.0938,16.419,9.5546,2.7401,3.1683,5.4017,5.8626,10.246,8.0822,0.40316,0.18481,0.74683,0.50563-0.12568,0.30922-1.6418-0.36961-4.5691-1.2962-7.8014-3.5678-3.2924-2.3139-5.1337-5.3957-9.4543-8.0176-0.18353-0.11117-0.47243-0.11589-0.30867,0.27204,0.57382,1.3573,2.0328,4.8284,3.5481,8.5804,1.948,4.8236,2.3186,9.5544-0.37124,13.451-2.5889,3.7494-11.235,10.441-16.843,14.908-0.21908,0.17447-0.43163,0.49456-0.0871,0.50472,0.73449,0.0218,2.0753,0.17392,3.2708,0.91295,3.8263,2.3653,4.5222,3.8265,4.4527,5.1482-0.0696,1.3219-1.9262,2.4614-4.2439,4.383-1.7624,1.461-2.9685,2.5742-2.4119,2.8524,0.55658,0.2782,1.6232,0.32463,2.0871,0.51034,0.46391,0.18535,0.60301,1.0201,0.88139,1.5304,0.2782,0.51034,0.64944,0.69578,2.8294-0.41748,2.1797-1.1129,3.5247-1.7622,5.7974-1.7622,2.2728,0,3.4772,0.74012,6.5397-0.83497,4.87-2.5045,8.3948-4.8236,10.714-6.8179,0,0,0.37088-0.64944-0.46391-0.64944-0.83497,0-2.9008-0.11589-3.8961-1.206-0.97389-1.0667-1.2983-2.922-0.92765-3.3395,0.37106-0.41731,0.60301-0.0461,0.92765,0.88139,0.32481,0.92764,0.64943,1.9946,3.1076,2.3654,2.4583,0.37105,3.8034-0.00037,4.7775-0.88122,0.97389-0.88121,0.96464-1.7461-1.2523-3.757-1.9946-1.8088-2.6438-2.7829-4.592-2.7363-1.9478,0.0464-1.8087-0.093-0.60283-0.8814,1.2058-0.78836,2.6899-0.69569,4.5454,0.74229,1.4559,1.1282,2.8548,2.5136,3.3894,3.0577,0,0,1.3881-1.1562,4.078-3.4754,2.6899-2.3188,4.7305-3.6175,6.586-9.1834,1.8553-5.5657,3.1076-8.4181,4.4293-12.592,1.3221-4.1743,3.1308-9.1141,2.4351-13.149-0.69568-4.0352-1.948-9.74-2.0872-13.497-0.1391-3.757,0.62641-8.8356,1.9481-15.167,1.3219-6.3312,2.0871-11.201,2.0176-14.749-0.11752-5.9823-0.55658-9.6705-4.1048-14.981-2.5461-3.8107-4.5916-6.0294-5.983-11.874-0.70638-2.9659-0.69568-8.3486,0.0695-11.27,0.6645-2.537,0.41749-3.409-1.6696-4.1047-2.0872-0.69569-9.1141-1.9481-14.054-2.4351-4.9396-0.48712-5.4266,0.34785-5.6353,1.8785-0.20875,1.5305,0.34784,2.9218,2.5047,3.8957,1.6175,0.73069,3.8872,1.3959,4.921,1.683,0.34458,0.0956,0.25898,0.46464,0.0974,0.65253-2.2882,2.6538-6.4895,9.1475-7.6157,13.133-0.95031,3.3627-1.152,6.841-1.1946,8.1638-0.0116,0.35564-0.28419,0.71237-0.75644,1.0078-1.4175,0.8872-4.6353,3.0265-7.6963,5.9485-1.8099,1.7276-3.3359,3.6848-4.3996,5.1935-0.10953,0.15506-0.48857,0.32409-0.70602-0.004-0.44414-0.66921-1.0653-2.1781-0.7383-5.1663,0.3132-2.8656,2.574-6.7485,4.87-11.479,2.2956-4.7307,3.061-7.4442,3.061-7.4442-0.34784-1.8783-2.2958-9.8791-2.9218-12.94-0.62641-3.0611-2.3656-2.8524-6.1921-2.4349-3.8264,0.41731-7.8615,1.5999-11.34,2.6435-3.4786,1.0435-4.3136,1.809-4.2439,3.3395,0.06964,1.5305,1.8089,3.4092,3.8961,4.0352,2.0871,0.62605,4.5221,0.20874,6.0526-0.0696,1.5305-0.2782,1.6001,0.76533,1.1826,1.948-0.41748,1.1828-1.2523,4.0352-1.3217,7.8616-0.0696,3.8265-0.13929,8.6964,1.9478,12.94,1.7033,3.4632,4.3183,6.6779,5.2225,7.7436,0.20385,0.24029,0.19605,0.56492,0.13965,0.6536-0.1119,0.1761-0.20748,0.32971-0.28582,0.45684-0.1654,0.26987-0.51161,0.16178-0.63838,0.0323-9.4302-9.6368-8.7964-16.829-8.7048-21.131,0.0784-3.6741,1.0129-7.2169,1.305-8.24,0.0544-0.19097-0.13094-0.28329-0.23649-0.27839-3.3872,0.15651-4.8843-0.0762-7.3765-1.4998-1.9481-1.1132-3.8959-3.9891-2.9685-6.1223,0.81883-1.883,8.5341-3.9891,13.914-5.1948,5.3802-1.2058,8.7198-1.2058,10.018-0.18571,1.2985,1.0201,1.2987,4.2672,3.0611,11.317,1.3217,5.2873,2.957,10.94,3.6919,13.436,0.24483,0.83171,0.38285,0.83624,0.43036,0.0406,0.12568-2.0976,0.63185-6.4124,2.6494-10.045,2.0617-3.7106,3.8178-5.7926,4.5896-6.6226,0.27022-0.29017,0.10265-0.52104-0.0573-0.57762-2.5724-0.90624-5.378-3.4287-5.5526-5.7864-0.105-1.416,0.11625-2.5947,0.32844-3.3518,0.16304-0.58234,0.79308-0.94252,1.1621-0.94814,1.9528-0.0294,6.3783,0.13149,13.166,1.1462,5.6241,0.84041,8.32,1.9509,9.4373,2.5468,0.48604,0.25934,0.88303,0.87414,0.92656,1.1685,0.23794,1.6084-0.62387,4.4859-0.62387,7.2305,0,3.2466,0.2782,8.2557,1.948,11.41,1.6698,3.154,3.9888,6.308,6.4931,11.039,2.5818,4.8765,2.5978,12.708,0.7423,20.686-1.449,6.2309-2.4119,10.853-2.7829,17.624-0.37106,6.7715,0.37106,9.4618,1.2985,14.842,0.92764,5.3805-0.46373,9.6473-1.5767,13.358-1.1132,3.7108-3.0613,8.9052-4.3598,12.987-1.8413,5.7864-3.3395,8.0702-5.3802,10.204-1.7106,1.7885-5.0073,4.4679-6.0292,5.2878-0.19695,0.15815-0.30123,0.36508-0.30813,0.56003-0.0194,0.56348-0.16358,1.7662-0.99075,2.5934-0.7033,0.70313-1.6902,1.051-2.127,1.1783-0.13965,0.0404-0.29035,0.18408-0.41041,0.37777-0.18353,0.29652-0.49003,0.75354-0.86417,1.165-0.38974,0.42836-0.83696,0.90787-1.1146,1.2038-0.1634,0.17392-0.22706,0.49982-0.2053,0.62604,0.11626,0.67737,0.24175,1.6774,0.12931,2.4062-0.18553,1.2057-1.484,2.3192-3.1074,2.2263-1.2175-0.0698-2.1741-0.94795-2.5762-1.3827-0.13385-0.14508-0.31938-0.17773-0.51361-0.0711-0.82118,0.45158-3.0979,1.6884-4.4855,2.2887-1.7162,0.74212-3.905,1.6554-5.6894,1.2985-1.5462-0.30921-2.7653-0.43181-4.6848,0.51007-2.489,1.2214-5.4572,2.5204-6.1993,2.8294-0.74229,0.30903-1.6081,0.12369-2.4119-1.113-0.56565-0.87024-0.82535-1.771-0.92945-2.2289-0.0439-0.1926-0.18245-0.39518-0.34821-0.54271-0.33442-0.29743-0.8453-0.83479-0.88684-1.3722-0.0618-0.80378,0.18535-1.2365,2.1645-3.0918,1.2189-1.1424,2.109-2.0036,2.6132-2.4966,0.31447-0.30759,0.38049-0.63929,0.17592-0.91096-0.30849-0.40951-0.85819-1.0562-1.6761-1.7252-1.3604-1.1132-3.0301-1.0519-3.7102-0.68064-0.41294,0.22525-0.52974,0.81521-0.55767,1.2439-0.0179,0.27784-0.10555,0.45956-0.27294,0.37868-0.32644-0.15815-0.8843-0.51542-1.3341-1.2514-0.39373-0.644-0.61825-3.0921,0.24755-4.0814,0.8658-0.98967,4.7282-3.9233,7.6683-6.308,5.5658-4.5144,9.7811-8.0615,11.935-11.379,1.3558-2.0871,1.5707-4.2269,0.97353-6.8818-0.0196-0.0871-0.0419-0.17393-0.0611-0.26243-0.0887-0.4037-0.29416-0.41984-0.54915-0.43652-0.10555-0.007-0.21781-0.008-0.33605-0.0107-1.8422-0.0424-5.228,0.12369-10.726,1.1984-6.2416,1.2204-9.8094,2.5047-12.801,4.1048-2.9917,1.6001-3.7568,3.2002-5.7048,4.1743-1.5049,0.75227-3.0513,0.67447-3.6772,0.60029-0.18408-0.022-0.44033,0.0778-0.51668,0.13384-1.1163,0.82083-2.3092,0.98278-3.8069,0.65724-1.6001-0.34784-1.7392-0.83479-0.90443-0.90443,0.83479-0.0696,1.3914-0.1391,1.8783-0.55658,0.48694-0.41731-0.1391-0.27821-0.90443-0.0695-0.76515,0.20856-1.4608-0.0696-2.1567-0.41749-0.69569-0.34784,0.55677-0.55658,1.3219-0.62604,0.76533-0.0696,1.3219-0.41749,1.0435-0.48713-0.2782-0.0695-1.1826,0.0696-2.2263-0.4173-0.70494-0.32898-0.2782-0.55677,0.62623-0.62641,0.5457-0.0419,0.91422-0.33714,1.1204-0.56474,0.13565-0.14963,0.20167-0.46736,0.20221-0.56203,0.01088-2.483,0.1819-3.292,1.321-4.2302,1.1826-0.97389,4.1048-1.6696,6.5399-3.1308,2.4349-1.4608,6.1917-3.8957,7.3049-5.6351,1.1132-1.7392,4.1047-5.5657,5.9832-7.7226,1.2361-1.4193,2.2314-2.2361,2.7673-2.6284,0.27838-0.20403,0.13185-0.38411-0.0214-0.43163-5.123-1.5854-12.235-4.7947-15.478-6.8887-3.3393-2.1565-3.4786-3.7568-3.2699-5.5657,0.20874-1.8089,1.3914-4.2438,2.1569-5.8441,0.76515-1.6001,0.97389-1.948,1.5305-2.5045,0.24592-0.2461,0.55659,0.83479,0.55659,1.6698,0,0.83479,0.83479,0.55641,1.5305-0.48712,0.69587-1.0435,0.90461-1.5305,1.1134-1.1826,0.20856,0.34784,0.34785,0.62622,0.2782,1.948-0.06964,1.3219,0.2782,1.1828,1.2523,0.2782,0.97389-0.90425,1.3914-1.3914,1.7392-1.1826,0.34803,0.20874,0,1.2523-0.48694,2.5742-0.41096,1.1155-0.76533,2.2958-0.34784,2.922,0.60029,0.90044,1.6698,0.76533,4.4525-0.27838,2.1172-0.79362,4.489-1.4806,5.5029-1.7633,0.31882-0.0892,0.49202-0.44469,0.48676-0.59612-0.48295-14.094,2.1688-17.854,3.9159-21.383l1.6056-2.5882c0.90153-1.3897,2.7633-4.0553,5.1032-6.2886,3.0194-2.8821,6.2342-5.0018,7.5546-5.8254,0.0283-0.0179,0.10319-0.0747,0.15506-0.054,0.0457,0.0181,0.0702,0.11063,0.0778,0.14164z"/>
<path fill="#1f1642" d="m121.62,334.03c-0.09,0.0782-0.15397,0.26841-0.15633,0.39844-0.009,0.47824-0.095,1.66-0.6966,2.2615-0.71617,0.71619-1.2496,0.70113-2.3992,0.63911-0.0784-0.004-0.27512-0.1099-0.22144-0.21473,0.0542-0.10518,0.19333-0.21835,0.53356-0.25045,0.7305-0.0696,1.1132-0.17393,1.4262-0.55659,0.19677-0.24084,0.27004-0.70167,0.29724-1.0102,0.0158-0.18244-0.0754-0.31393-0.22107-0.31121-0.43707,0.008-1.3633,0.0604-1.7806,0.34712-0.60482,0.41585-1.0584,1.28-1.2786,2.0963-0.0305,0.11425-0.012,0.42528,0.13928,0.53573,0.24501,0.17882,0.71328,0.42111,1.4871,0.46409,1.2523,0.0695,2.609-0.20874,3.2002-1.6698,0.5914-1.461,0.0696-2.6785-0.10428-2.7829-0.0753-0.0452-0.15706-0.006-0.22561,0.0535z"/>
</g>
</svg>

