<svg height="316.227766" viewBox="0 0 858 858" width="316.227766" xmlns="http://www.w3.org/2000/svg"><path d="m157.58 409.9 21.52-16.39 22.25 15.39-8.96-25.52 21.51-16.41-27.04.62-8.96-25.51-1.65 5.52-6.11 20.38-27.03.63 22.24 15.39z"/><path d="m132.8 527.09 22.25 15.4-8.95-25.52 21.5-16.41-27.03.62-8.96-25.51-1.65 5.52-6.11 20.38-27.04.62 22.24 15.4-7.77 25.91z"/><path d="m162.83 632.19-8.94-25.52-1.66 5.52-6.11 20.39-27.04.62 22.24 15.38-7.76 25.91 21.51-16.4 22.25 15.39-8.96-25.52 21.53-16.41z"/><path d="m241.47 745.41-8.96-25.53-1.65 5.53-6.11 20.37-27.05.61 22.25 15.41-7.75 25.9 21.51-16.4 22.25 15.39-8.96-25.52 21.51-16.41z"/><path d="m363.7 812.27-8.96-25.51-1.66 5.53-6.1 20.36-27.03.63 22.24 15.4-7.76 25.9 21.51-16.41 22.24 15.4-8.95-25.53 21.53-16.4z"/><path d="m657.43 408.9 22.26-15.4 21.51 16.4-7.76-25.9 22.24-15.39-27.04-.63-7.77-25.91-1.9 5.45-7.05 20.08-27.03-.62 21.51 16.4z"/><path d="m761.98 502.19-27.05-.62-7.76-25.9-1.9 5.44-7.06 20.07-27.02-.62 21.5 16.41-8.96 25.52 22.25-15.4 21.52 16.41-7.75-25.91z"/><path d="m712.67 632.58-7.77-25.91-1.91 5.44-7.05 20.08-27.02-.64 21.5 16.41-8.95 25.53 22.24-15.4 21.51 16.41-7.75-25.92 22.23-15.38z"/><path d="m634.04 745.78-7.77-25.9-1.91 5.44-7.04 20.09-27.04-.64 21.51 16.4-8.97 25.53 22.26-15.4 21.52 16.41-7.78-25.91 22.26-15.4z"/><path d="m511.8 812.65-7.77-25.89-1.91 5.44-7.03 20.07-27.05-.62 21.51 16.39-8.96 25.52 22.26-15.39 21.5 16.42-7.75-25.91 22.24-15.4z"/><path d="m164.5 399.92 14.49-11.05 15 10.37-6.04-17.2 14.49-11.05-18.22.42-6.03-17.2-5.23 17.46-18.22.42 14.99 10.37z" fill="#ffe600"/><path d="m132.69 522.46 15 10.37-6.03-17.19 14.49-11.06-18.23.42-6.03-17.2-5.23 17.46-18.22.42 14.99 10.38-5.23 17.45z" fill="#ffe600"/><path d="m160.2 636-6.03-17.2-5.24 17.47-18.21.42 14.98 10.35-5.23 17.47 14.49-11.05 15 10.37-6.04-17.2 14.5-11.06z" fill="#ffe600"/><path d="m238.83 749.22-6.04-17.21-5.22 17.46-18.23.42 14.99 10.37-5.23 17.46 14.5-11.06 14.99 10.37-6.03-17.18 14.49-11.06z" fill="#ffe600"/><path d="m361.06 816.08-6.04-17.19-5.22 17.45-18.23.42 14.99 10.38-5.22 17.45 14.49-11.06 14.99 10.38-6.04-17.21 14.5-11.04z" fill="#ffe600"/><path d="m664.8 399.24 15-10.37 14.49 11.04-5.23-17.45 14.99-10.37-18.22-.42-5.23-17.46-6.03 17.2-18.23-.42 14.5 11.05z" fill="#ffe600"/><path d="m750.36 505.68-18.24-.42-5.23-17.47-6.04 17.21-18.21-.42 14.5 11.06-6.04 17.19 14.99-10.37 14.5 11.05-5.22-17.45z" fill="#ffe600"/><path d="m709.86 636.27-5.24-17.47-6.04 17.21-18.21-.44 14.5 11.06-6.04 17.19 14.98-10.36 14.5 11.05-5.21-17.47 14.96-10.35z" fill="#ffe600"/><path d="m631.22 749.46-5.23-17.44-6.03 17.2-18.22-.43 14.5 11.05-6.05 17.19 14.99-10.37 14.49 11.05-5.23-17.45 15-10.37z" fill="#ffe600"/><path d="m508.99 816.33-5.24-17.43-6.02 17.18-18.22-.42 14.49 11.04-6.04 17.21 15-10.38 14.48 11.06-5.21-17.45 14.99-10.38z" fill="#ffe600"/><path d="m628.4 224.51h1.56l-.03 459.38-.16.95c-.22 1.26-5.8 30.98-36.26 38.14-12.67 2.99-39.71 3.32-68.51 3.68-24.55.3-52.39.65-60.93 2.92-12.56 3.35-21.5 14.3-23.94 17.58l-9.19 12.28-10.24-11.42c-3.77-4.21-15.78-15.72-25.99-18.44-8.53-2.28-36.36-2.62-61.09-2.93-28.63-.36-55.67-.69-68.34-3.67-30.46-7.16-36.03-36.88-36.25-38.14 0 0-.17-.95-.2-1.22v-459.11h87.73c-1.8-.68-3.31-2.1-4-4.06-1.22-3.5.64-7.34 4.14-8.57.34-.12 2.81-.95 7.69-2.11l-.18.01-3.58-15.75c-3.29.71-5.02 1.17-5.1 1.19-3.57.98-7.29-1.12-8.28-4.7-.68-2.48.14-5.01 1.89-6.66l-3.68-2.38s-2.07 8.8-12.95 4.14c-.34-.15-.61-.32-.92-.47-4.44-1.12-7.74-5.11-7.74-9.88 0-2.99 1.31-5.66 3.36-7.53-.88-1.56-1.92-3.9-2.98-7.49-.56-1.89-.85-5.12-.97-9-5.04-1.53-8.74-6.17-8.74-11.71 0-5.36 3.47-9.88 8.26-11.56-6.59-.22-11.88-5.62-11.88-12.26 0-6.78 5.51-12.29 12.29-12.29.94 0 1.84.12 2.71.32-2.61-2.45-4.26-5.92-4.26-9.77 0-7.43 6.04-13.46 13.46-13.46 3.94 0 7.45 1.73 9.92 4.43.4-7.07 6.22-12.72 13.38-12.72 7.18 0 13.01 5.66 13.39 12.75l.26-.05c.87-5.71 5.77-10.11 11.72-10.11 4.28 0 8.01 2.29 10.11 5.69-.48-1.29-.78-2.68-.78-4.13 0-6.57 5.34-11.91 11.9-11.91 6.27 0 11.38 4.89 11.82 11.05 2.14-3.22 5.78-5.36 9.93-5.36 2.72 0 5.21.96 7.22 2.5l4.97-1.43.32-3.06s1.14-2.01 3.32-2.32c2.19-.3 4.62 1.69 4.62 1.69s.24.51.53 1.14l.53-.15c.58-7.7 5.17-14.28 11.69-17.67.8-3.99 3.09-15.46 3.51-17.53-2.22-.5-10.68-2.43-10.68-2.43l-.94-16.83s8 2.9 10.97 3.99c-.1-.43-3.29-13.86-3.29-13.86h20.81l-.97 4.07c-1.35 5.75-1.97 8.35-2.4 9.62.02-.02.11-.14.11-.14s-.04.25-.04.32c2.95-1.08 10.98-4 10.98-4l-.93 16.83s-8.46 1.93-10.68 2.43c.41 2.07 2.71 13.54 3.5 17.53 6.07 3.15 10.46 9.08 11.5 16.09l1.29.37c.91-.72 2.05-1.14 3.29-1.09l3.45 1.61.57 1.6 6.83 1.97c1.58-.77 3.33-1.25 5.21-1.25 4.02 0 7.56 2.02 9.72 5.07l.23.05c.56-6.05 5.6-10.81 11.79-10.81 6.57 0 11.91 5.34 11.91 11.91 0 1.14-.22 2.23-.51 3.28l.27.05c2.17-2.95 5.63-4.89 9.56-4.89 5.51 0 10.11 3.78 11.47 8.86l.63.12c.94-6.52 6.5-11.57 13.27-11.57 7.17 0 12.99 5.65 13.39 12.72 2.46-2.7 5.98-4.43 9.91-4.43 7.43 0 13.47 6.03 13.47 13.46 0 2.91-.96 5.58-2.53 7.79l.78 1.68c.07 0 .13-.02.19-.02 6.78 0 12.29 5.52 12.29 12.29 0 4.74-2.71 8.8-6.63 10.86.1 1.69.19 3.48.28 5.33 1.69 2.1 2.73 4.73 2.73 7.63 0 2.67-.87 5.13-2.32 7.15 0 5.87-.27 10.96-1.03 13.56-2.59 8.8-5.18 10.36-5.18 10.36s7.77 10.35-3.1 15.01c-5.76 2.47-9.04 1.16-10.86-.62-1.51-.46-2.88-1.23-4-2.28l-2.9 1.87c.59.15.95.25.98.26 3.56 1.03 5.63 4.77 4.6 8.34-1.03 3.56-4.77 5.63-8.33 4.6-.1-.03-2.33-.66-6.5-1.62l-3.52 15.5c3.66 1 5.58 1.68 5.89 1.8 3.49 1.26 5.3 5.13 4.03 8.63-.33.94-.88 1.74-1.54 2.41zm-205.58-206.59s0 .08.02.15c0-.02-.02-.15-.02-.15zm38.13 105.57-2.5 48.25c.02 0 .03.01.04.01 2.96.13 5.85.28 8.68.44.41.03.82.05 1.23.07 5.63.34 11.03.74 16.18 1.19.54.05 1.06.1 1.59.14 2.5.23 4.97.46 7.34.71h.04c1.44-9.44 4.75-38.32-6.72-47.7-5.69-4.66-25.88-3.11-25.88-3.11zm-88.18 3.11c-11.33 9.26-8.24 37.53-6.77 47.34 0-.01.02-.01.03-.01 5.13-.47 10.62-.91 16.46-1.29h.02c5.86-.39 12.07-.72 18.63-.97l-2.48-48.18s-20.2-1.55-25.89 3.11z" fill-rule="evenodd"/><path d="m626.85 227.62v455.96c-.02 0-.14.72-.14.72-.22 1.18-5.42 28.96-33.91 35.66-12.34 2.91-39.21 3.24-67.67 3.59-24.91.3-52.94.65-61.85 3.03-13.54 3.61-23.04 15.24-25.64 18.72 0 0-5.24 7.01-6.92 9.25-1.87-2.08-7.71-8.61-7.71-8.61-3.94-4.39-16.56-16.44-27.5-19.36-8.91-2.38-36.95-2.73-61.68-3.03-28.63-.35-55.5-.68-67.84-3.59-28.49-6.7-33.7-34.48-33.91-35.66l-.17-.95s.03-452.64.03-455.73z" fill="#ffe600" fill-rule="evenodd"/><path d="m617.4 345.46v-108.39h-376.01v108.39z"/><g fill-rule="evenodd"><path d="m241.39 354.83v327.83s4.02 22.74 26.76 28.1c3.59.84 8.76 1.45 15.02 1.9v-357.83z" fill="#fff"/><path d="m283.17 354.83v357.83c11.38.82 26.33 1.12 41.78 1.32v-359.15z"/><path d="m324.95 354.83v359.15c14.33.2 29.06.32 41.78.71v-359.86z" fill="#fff"/><path d="m366.73 354.83v359.86c13.9.44 25.39 1.2 31.22 2.75 3.59.96 7.16 2.61 10.55 4.56v-367.17z"/><path d="m408.5 354.83v367.17c11.91 6.84 21.56 17.64 21.56 17.64 2.79-3.72 9.84-12.18 20.22-17.89v-366.92z" fill="#fff"/><path d="m450.28 354.83v366.92c3.21-1.77 6.74-3.28 10.56-4.31 5.83-1.55 17.32-2.31 31.23-2.75v-359.86z"/><path d="m492.06 354.83v359.86c12.72-.39 27.45-.51 41.77-.71v-359.15z" fill="#fff"/><path d="m533.84 713.98c15.45-.2 30.4-.5 41.77-1.32v-357.83h-41.77z"/><path d="m590.64 710.76c22.74-5.36 26.76-28.1 26.76-28.1v-327.83h-41.78v357.83c6.25-.45 11.43-1.06 15.02-1.9z" fill="#fff"/><path d="m310.64 297.74 21.42 27.93h-22.05l-16.73-26.22h-.18v26.22h-17.72v-68.17h26.49c13.47 0 23.68 6.42 23.68 20.98 0 9.4-5.24 17.54-14.91 19.26zm-17.54-26.67v16.99h1.72c5.78 0 12.3-1.08 12.3-8.5 0-7.41-6.52-8.49-12.3-8.49z" fill="#fff"/><path d="m357.67 316.9c0 5.79-4.69 10.58-10.57 10.58s-10.58-4.79-10.58-10.58c0-5.88 4.7-10.58 10.58-10.58 5.88.01 10.57 4.7 10.57 10.58z" fill="#fff"/><path d="m408.49 280.38c-3.62-4.88-9.49-7.51-15.55-7.51-10.85 0-18.17 8.32-18.17 18.9 0 10.76 7.41 18.53 18.44 18.53 5.79 0 11.57-2.8 15.28-7.23v21.24c-5.88 1.81-10.13 3.17-15.64 3.17-9.49 0-18.53-3.62-25.59-10.04-7.5-6.78-10.93-15.64-10.93-25.76 0-9.31 3.52-18.26 10.03-24.95 6.69-6.87 16.36-11.03 25.95-11.03 5.69 0 10.93 1.27 16.18 3.43z" fill="#fff"/><path d="m434.58 316.9c0 5.79-4.7 10.58-10.58 10.58s-10.58-4.79-10.58-10.58c0-5.88 4.7-10.58 10.58-10.58 5.88.01 10.58 4.7 10.58 10.58z" fill="#fff"/><path d="m477.48 275.04c-3.26-2.71-7.41-4.52-11.75-4.52-3.26 0-7.59 1.9-7.59 5.7 0 3.98 4.78 5.51 7.86 6.51l4.51 1.35c9.5 2.81 16.82 7.6 16.82 18.63 0 6.78-1.62 13.74-7.05 18.35-5.33 4.52-12.48 6.42-19.35 6.42-8.59 0-16.99-2.89-23.96-7.78l7.6-14.28c4.43 3.88 9.67 7.05 15.73 7.05 4.16 0 8.59-2.08 8.59-6.87 0-4.98-6.96-6.69-10.75-7.78-11.13-3.16-18.45-6.05-18.45-19.25 0-13.83 9.85-22.87 23.5-22.87 6.88 0 15.28 2.17 21.33 5.6z" fill="#fff"/><path d="m510.06 316.9c0 5.79-4.71 10.58-10.58 10.58-5.88 0-10.58-4.79-10.58-10.58 0-5.88 4.7-10.58 10.58-10.58 5.87 0 10.58 4.7 10.58 10.58z" fill="#fff"/><path d="m559.08 280.38c-3.62-4.88-9.48-7.51-15.55-7.51-10.85 0-18.16 8.32-18.16 18.9 0 10.76 7.41 18.53 18.43 18.53 5.8 0 11.58-2.8 15.28-7.23v21.24c-5.88 1.81-10.12 3.17-15.63 3.17-9.5 0-18.54-3.62-25.59-10.04-7.5-6.78-10.94-15.64-10.94-25.76 0-9.31 3.52-18.26 10.03-24.95 6.69-6.87 16.37-11.03 25.95-11.03 5.69 0 10.94 1.27 16.18 3.43z" fill="#fff"/><path d="m585.63 316.9c0 5.79-4.7 10.58-10.57 10.58-5.88 0-10.59-4.79-10.59-10.58 0-5.88 4.71-10.58 10.59-10.58 5.87 0 10.57 4.7 10.57 10.58z" fill="#fff"/><path d="m411.29 110.55c0 10.28 8.36 18.64 18.64 18.64 10.27 0 18.64-8.36 18.64-18.64s-8.37-18.64-18.64-18.64c-10.28 0-18.64 8.36-18.64 18.64z"/><path d="m313.12 186.48c-1.24.34-1.96 1.63-1.62 2.87s1.62 1.96 2.86 1.63c.39-.11 40.02-10.8 115.88-10.8 75.87 0 122.64 13.24 123.09 13.38 1.24.35 2.54-.36 2.89-1.6.36-1.23-.35-2.52-1.59-2.88-.47-.14-47.8-13.56-124.39-13.56-76.57 0-116.72 10.85-117.12 10.96z" fill="#ffe600"/><path d="m318.15 216.04c-1.22.43-1.85 1.76-1.43 2.97s1.75 1.86 2.97 1.43c.3-.1 31.8-10.74 111.06-10.74 79.28 0 113.82 12.17 114.16 12.28 1.2.45 2.54-.18 2.98-1.39s-.18-2.54-1.4-2.98c-1.41-.52-35.48-12.57-115.74-12.57-80.24 0-111.32 10.55-112.6 11z" fill="#ffe600"/><path d="m320.87 194.61 3.34 15.17c.45-.1 44.53-9.66 104.48-9.66 59.97 0 112.73 11.6 113.25 11.72l3.39-15.16c-2.22-.49-54.89-12.09-116.64-12.09s-105.97 9.61-107.82 10.02z" fill="#ffe600"/><path d="m436.14 7.31h.26c-.01.05-2.38 10.03-2.38 10.03-.05.21-.4 2.85-.4 2.85l-.34 2.54s8.52-3.09 11.37-4.13c-.16 2.84-.46 8.22-.55 9.79-1.83.42-11.34 2.58-11.34 2.58s3.03 15.16 3.63 18.17c-2.6 0-10.33 0-12.93 0 .6-3.01 3.63-18.17 3.63-18.17s-9.51-2.16-11.34-2.58c-.09-1.57-.39-6.95-.55-9.79 2.85 1.04 11.36 4.13 11.36 4.13l-.65-4.97c-.02-.16-1.65-7.02-2.46-10.45z" fill="#ffe600"/><path d="m414.4 110.55c0-8.57 6.96-15.54 15.53-15.54 8.56 0 15.53 6.97 15.53 15.54 0 8.56-6.97 15.53-15.53 15.53-8.57 0-15.53-6.97-15.53-15.53z" fill="#ffe600"/><path d="m377.95 82.07c0-4.85 3.94-8.8 8.8-8.8 4.85 0 8.8 3.95 8.8 8.8s-3.95 8.8-8.8 8.8c-4.86 0-8.8-3.95-8.8-8.8z" fill="#ffe600"/><path d="m356.2 76.38c0-4.86 3.95-8.81 8.8-8.81s8.8 3.95 8.8 8.81c0 4.85-3.95 8.8-8.8 8.8s-8.8-3.95-8.8-8.8z" fill="#ffe600"/><path d="m334.97 86.73c0-4.85 3.95-8.8 8.8-8.8s8.8 3.95 8.8 8.8-3.94 8.8-8.8 8.8-8.8-3.95-8.8-8.8z" fill="#ffe600"/><path d="m323.58 107.44c0-4.85 3.95-8.8 8.8-8.8 4.86 0 8.8 3.95 8.8 8.8s-3.94 8.8-8.8 8.8c-4.85 0-8.8-3.95-8.8-8.8z" fill="#ffe600"/><path d="m324.61 132.81c0-4.85 3.95-8.8 8.81-8.8 4.85 0 8.8 3.95 8.8 8.8s-3.95 8.8-8.8 8.8c-4.86 0-8.81-3.95-8.81-8.8z" fill="#ffe600"/><path d="m331.35 168.53c0-4.85 3.94-8.79 8.8-8.79 4.85 0 8.8 3.95 8.8 8.79 0 4.86-3.95 8.81-8.8 8.81-4.86 0-8.8-3.95-8.8-8.81z" fill="#ffe600"/><path d="m308.05 85.7c0-5.71 4.64-10.36 10.35-10.36s10.36 4.65 10.36 10.36c0 5.7-4.65 10.35-10.36 10.35s-10.35-4.65-10.35-10.35z" fill="#ffe600"/><path d="m284.75 93.98c0-5.71 4.64-10.36 10.35-10.36s10.36 4.65 10.36 10.36-4.65 10.35-10.36 10.35-10.35-4.64-10.35-10.35z" fill="#ffe600"/><path d="m273.74 115.72c0-5.21 4.24-9.45 9.45-9.45 5.22 0 9.46 4.24 9.46 9.45 0 5.22-4.24 9.47-9.46 9.47-5.21 0-9.45-4.25-9.45-9.47z" fill="#ffe600"/><path d="m277.36 139.54c0-5.21 4.24-9.46 9.45-9.46 5.22 0 9.46 4.25 9.46 9.46 0 5.22-4.24 9.47-9.46 9.47-5.21 0-9.45-4.25-9.45-9.47z" fill="#ffe600"/><path d="m286.68 175.27c0-4.07 3.31-7.38 7.38-7.38 4.08 0 7.38 3.31 7.38 7.38s-3.3 7.38-7.38 7.38c-4.07 0-7.38-3.31-7.38-7.38z" fill="#ffe600"/><path d="m472.04 90.87c-4.86 0-8.8-3.95-8.8-8.8s3.94-8.8 8.8-8.8 8.8 3.95 8.8 8.8-3.94 8.8-8.8 8.8z" fill="#ffe600"/><path d="m493.78 85.18c-4.85 0-8.8-3.95-8.8-8.8 0-4.86 3.95-8.81 8.8-8.81 4.86 0 8.8 3.95 8.8 8.81 0 4.85-3.94 8.8-8.8 8.8z" fill="#ffe600"/><path d="m515.01 95.53c-4.85 0-8.79-3.95-8.79-8.8s3.94-8.8 8.79-8.8c4.86 0 8.8 3.95 8.8 8.8s-3.94 8.8-8.8 8.8z" fill="#ffe600"/><path d="m526.4 116.24c-4.85 0-8.8-3.95-8.8-8.8s3.95-8.8 8.8-8.8c4.86 0 8.81 3.95 8.81 8.8s-3.95 8.8-8.81 8.8z" fill="#ffe600"/><path d="m525.37 141.61c-4.86 0-8.8-3.95-8.8-8.8s3.94-8.8 8.8-8.8 8.8 3.95 8.8 8.8-3.94 8.8-8.8 8.8z" fill="#ffe600"/><path d="m518.63 177.34c-4.84 0-8.79-3.95-8.79-8.81 0-4.85 3.95-8.79 8.79-8.79 4.86 0 8.81 3.95 8.81 8.79 0 4.86-3.95 8.81-8.81 8.81z" fill="#ffe600"/><path d="m540.38 96.05c-5.71 0-10.35-4.65-10.35-10.35 0-5.71 4.64-10.36 10.35-10.36s10.36 4.65 10.36 10.36c0 5.7-4.65 10.35-10.36 10.35z" fill="#ffe600"/><path d="m563.68 104.33c-5.71 0-10.35-4.64-10.35-10.35s4.64-10.36 10.35-10.36c5.72 0 10.36 4.65 10.36 10.36s-4.64 10.35-10.36 10.35z" fill="#ffe600"/><path d="m575.59 125.19c-5.21 0-9.46-4.25-9.46-9.47 0-5.21 4.25-9.45 9.46-9.45 5.22 0 9.45 4.24 9.45 9.45 0 5.22-4.23 9.47-9.45 9.47z" fill="#ffe600"/><path d="m571.97 149.01c-5.22 0-9.46-4.25-9.46-9.47 0-5.21 4.24-9.46 9.46-9.46 5.21 0 9.46 4.25 9.46 9.46 0 5.22-4.25 9.47-9.46 9.47z" fill="#ffe600"/><path d="m567.83 182.65c-4.07 0-7.38-3.31-7.38-7.38s3.31-7.38 7.38-7.38c4.06 0 7.38 3.31 7.38 7.38s-3.32 7.38-7.38 7.38z" fill="#ffe600"/><path d="m411.29 122.37c0 10.28 8.36 18.64 18.64 18.64 10.27 0 18.64-8.36 18.64-18.64 0-10.27-8.37-18.64-18.64-18.64-10.28 0-18.64 8.36-18.64 18.64z"/><path d="m414.4 122.37c0-8.56 6.96-15.53 15.53-15.53 8.56 0 15.53 6.97 15.53 15.53 0 8.57-6.97 15.54-15.53 15.54-8.57 0-15.53-6.97-15.53-15.54z" fill="#ffe600"/><path d="m403.73 68.87c-1.29.06-2.28 1.15-2.22 2.43l3.62 81.81c.05 1.28 1.14 2.28 2.43 2.22 1.28-.06 2.28-1.15 2.22-2.43l-3.62-81.81c-.05-1.28-1.14-2.28-2.43-2.22z" fill="#ffe600"/><path d="m453.44 71.09-3.63 81.81c-.05 1.29.94 2.37 2.23 2.43 1.28.06 2.37-.94 2.43-2.22l3.62-81.81c.05-1.28-.94-2.37-2.22-2.43-1.29-.06-2.38.94-2.43 2.22z" fill="#ffe600"/><path d="m439.56 192.35c0 3.72-3.01 6.74-6.73 6.74h-10.36c-3.72 0-6.73-3.02-6.73-6.74 0-3.71 3.01-6.72 6.73-6.72h10.36c3.72 0 6.73 3.01 6.73 6.72z" fill="#ffe600"/></g><path d="m369.14 193.91 13.46-7.77 13.98 6.21-12.94 8.81z" fill="#ffe600"/><path d="m484.61 193.91-13.46-7.77-13.99 6.21 12.95 8.81z" fill="#ffe600"/><path d="m360.86 197.53c0 4.29-3.48 7.77-7.77 7.77s-7.77-3.48-7.77-7.77 3.48-7.76 7.77-7.76 7.77 3.47 7.77 7.76z" fill="#ffe600" fill-rule="evenodd"/><path d="m513.47 197.53c0 4.29-3.48 7.77-7.77 7.77-4.28 0-7.76-3.48-7.76-7.77s3.48-7.76 7.76-7.76c4.29 0 7.77 3.47 7.77 7.76z" fill="#ffe600" fill-rule="evenodd"/><path d="m314.65 202.71 8.28-10.36 10.87 5.18-7.24 11.39z" fill="#ffe600"/><path d="m549.84 205.82-8.28-10.36-10.87 5.18 7.24 11.39z" fill="#ffe600"/><path d="m297.3 113.28c-2.26 7.55 5.21 33.43 6.73 38.54.49 1.65 2.22 2.58 3.87 2.09 1.64-.49 2.58-2.22 2.09-3.86-3.57-11.97-8.01-30.74-6.74-34.99 1.15-3.83 5.57-10.07 14.86-9.19 1.7.17 3.22-1.09 3.38-2.79.17-1.71-1.09-3.23-2.79-3.39-13.29-1.27-19.7 7.94-21.4 13.59z" fill="#ffe600" fill-rule="evenodd"/><path d="m353.96 95.54c-4.28 2.85-7.01 8.09-8.58 16.51-1.64 8.74 7.31 41.22 8.34 44.9.46 1.65 2.18 2.61 3.83 2.15s2.62-2.18 2.16-3.83c-3.73-13.34-9.26-36.56-8.23-42.08 1.23-6.57 3.17-10.65 5.92-12.48 2.37-1.58 7.22-4.03 13.11-2.67 5.26 1.21 20.39 8.1 25.78 10.65 1.55.74 3.4.08 4.13-1.47.74-1.55.08-3.4-1.47-4.14-.82-.39-20.06-9.48-27.04-11.09-8.16-1.89-14.75 1.41-17.95 3.55z" fill="#ffe600" fill-rule="evenodd"/><path d="m563.28 113.28c2.28 7.55-5.2 33.43-6.72 38.54-.49 1.65-2.22 2.58-3.87 2.09-1.64-.49-2.58-2.22-2.08-3.86 3.55-11.97 8-30.74 6.72-34.99-1.14-3.83-5.56-10.07-14.84-9.19-1.72.17-3.23-1.09-3.39-2.79-.17-1.71 1.08-3.23 2.79-3.39 13.29-1.27 19.71 7.94 21.39 13.59z" fill="#ffe600" fill-rule="evenodd"/><path d="m506.64 95.54c4.27 2.85 7 8.09 8.57 16.51 1.64 8.74-7.31 41.22-8.35 44.9-.46 1.65-2.17 2.61-3.82 2.15-1.66-.46-2.62-2.18-2.16-3.83 3.73-13.34 9.26-36.56 8.23-42.08-1.23-6.57-3.17-10.65-5.92-12.48-2.38-1.58-7.22-4.03-13.11-2.67-5.25 1.21-20.39 8.1-25.78 10.65-1.55.74-3.4.08-4.14-1.47-.73-1.55-.07-3.4 1.48-4.14.82-.39 20.06-9.48 27.04-11.09 8.16-1.89 14.75 1.41 17.96 3.55z" fill="#ffe600" fill-rule="evenodd"/><path d="m448.56 70.16c0-.65-.03-1.3-.1-1.94h-16.59v-16.6c-.64-.06-1.29-.1-1.94-.1-.66 0-1.31.04-1.94.1v16.6h-16.6c-.07.64-.1 1.29-.1 1.94 0 .66.03 1.3.1 1.94h37.07c.07-.64.1-1.28.1-1.94z" fill="#ffe600" fill-rule="evenodd"/><path d="m434.51 65.58h13.46c-1.68-6.6-6.86-11.79-13.46-13.46z" fill="#ffe600" fill-rule="evenodd"/><path d="m425.34 65.58c0-3.22 0-11.24 0-13.46-6.59 1.67-11.78 6.86-13.46 13.46z" fill="#ffe600" fill-rule="evenodd"/><path d="m411.88 74.75c2.05 8.06 9.35 14.05 18.05 14.05 8.69 0 15.99-5.99 18.04-14.05z" fill="#ffe600" fill-rule="evenodd"/><path d="m321.44 159.01c-1.37-3.37-.61-6.82 1.03-9.26 2.14-3.22 9.65-2.96 9.65-2.96-4.66 0-12.43-4.92-10.04-12.91l-1.15.44s-14.4 7.2-3.09 30.34c0 0 4.7 13.2 6.26 15.78 0 0 4.65-1.03 7.24-1.55 0 0-8.8-11.91-3.1-15.53 0 0-4.92.29-6.8-4.35z" fill="#ffe600" fill-rule="evenodd"/><path d="m540.14 159.01c1.36-3.37.6-6.82-1.03-9.26-2.15-3.22-9.66-2.96-9.66-2.96 4.66 0 12.43-4.92 10.04-12.91l1.16.44s14.39 7.2 3.09 30.34c0 0-4.71 13.2-6.26 15.78 0 0-4.66-1.03-7.25-1.55 0 0 8.81-11.91 3.11-15.53 0 0 4.92.29 6.8-4.35z" fill="#ffe600" fill-rule="evenodd"/><path d="m406.96 140.73-2.74 1.14 1.45 2.59c.23.4 5.53 9.63 14.73 9.63 7.98 0 10.41-1.7 10.41-7.3 0-5.07-6.32-8.85-11.96-8.85-5.13-.01-11.62 2.67-11.89 2.79z" fill-rule="evenodd"/><path d="m407.98 143.17s4.66 8.28 12.42 8.28c7.77 0 7.77-1.55 7.77-4.66s-4.66-6.21-9.32-6.21-10.87 2.59-10.87 2.59z" fill="#ffe600" fill-rule="evenodd"/><path d="m428.94 146.79c0 5.6 2.44 7.3 10.41 7.3 9.21 0 14.5-9.23 14.73-9.63l1.45-2.59-2.73-1.14c-.28-.12-6.77-2.8-11.9-2.8-5.64 0-11.96 3.79-11.96 8.86z" fill-rule="evenodd"/><path d="m451.78 143.17s-4.66 8.28-12.43 8.28-7.77-1.55-7.77-4.66 4.66-6.21 9.32-6.21 10.88 2.59 10.88 2.59z" fill="#ffe600" fill-rule="evenodd"/><path d="m418.02 161.29c0 6.57 5.34 11.91 11.91 11.91 6.56 0 11.91-5.34 11.91-11.91s-5.35-11.91-11.91-11.91c-6.57 0-11.91 5.35-11.91 11.91z" fill-rule="evenodd"/><path d="m421.13 161.29c0-4.85 3.95-8.8 8.8-8.8s8.8 3.95 8.8 8.8-3.95 8.8-8.8 8.8-8.8-3.95-8.8-8.8z" fill="#ffe600" fill-rule="evenodd"/><path d="m420.96 94.21c-3.97-2.21-8.05-5.47-9.88-10.07 0 0-3.38 10.24 1.41 19.88 1.58-4.19 4.6-7.67 8.47-9.81z" fill="#ffe600" fill-rule="evenodd"/><path d="m438.93 94.21c3.97-2.21 8.05-5.47 9.89-10.07 0 0 3.38 10.24-1.41 19.88-1.58-4.19-4.6-7.67-8.48-9.81z" fill="#ffe600" fill-rule="evenodd"/><path d="m326.81 152.13c1.22-.54 2.25-.38 3.49-.19 2.83.42 5.22.84 7.23-1.56 1.67-2 3.2-4.42 5.72-5.4 2.37-.91 4.94.81 5.67 3.1 1.57 4.92-1.83 9.97-7.09 9.97-2.45 0-4.35-.9-6.86-.16-2.3.68-4.26 1.99-6.73.97-1.91-.79-3.53-2.42-3.24-4.43 0 0 1.09-1.98 1.81-2.3z" fill="#ffe600" fill-rule="evenodd"/><path d="m535.48 152.13c-1.23-.54-2.25-.38-3.5-.19-2.82.42-5.22.84-7.22-1.56-1.67-2-3.2-4.42-5.72-5.4-2.37-.91-4.94.81-5.67 3.1-1.56 4.92 1.83 9.97 7.09 9.97 2.45 0 4.35-.9 6.86-.16 2.3.68 4.26 1.99 6.73.97 1.91-.79 3.53-2.42 3.23-4.43 0 0-1.08-1.98-1.8-2.3z" fill="#ffe600" fill-rule="evenodd"/><path d="m300.11 150.71s5.32 6.99 1.99 11.32c0 0-10.65-4.66-15.31-2.67 0 0-1.34-2 0-4.33 0 0 6.66-4.65 13.32-4.32z" fill="#ffe600" fill-rule="evenodd"/><path d="m564.66 150.71s-5.33 6.99-1.99 11.32c0 0 10.65-4.66 15.31-2.67 0 0 1.34-2 0-4.33 0 0-6.66-4.65-13.32-4.32z" fill="#ffe600" fill-rule="evenodd"/><path d="m287.27 161.27s9.57 0 16.08 5.05c0 0 3.79-7.67 2.43-9.57 0 0 4.7 1.9 5.88-2.71 0 0 7.67 23.85 9.48 27.1 0 0-6.5 1.26-7.59 1.62 0 0-7.49-4.96-7.94-5.24 0 0 .9-5.51-.82-7.58-1.72-2.08-9.39-8.05-15.45-3.35 0 0-1.89-2.07-2.07-5.32z" fill="#ffe600" fill-rule="evenodd"/><path d="m575.21 161.27s-9.58 0-16.08 5.05c0 0-3.79-7.67-2.44-9.57 0 0-5.16 3.45-6.33-1.16 0 0-7.22 22.3-9.02 25.55 0 0 6.49 1.26 7.58 1.62 0 0 7.5-4.96 7.95-5.24 0 0-.91-5.51.81-7.58 1.72-2.08 9.4-8.05 15.45-3.35 0 0 1.89-2.07 2.08-5.32z" fill="#ffe600" fill-rule="evenodd"/></svg>