<svg xmlns="http://www.w3.org/2000/svg" xml:space="preserve" width="316.22776601683796" height="316.22776601683796" viewBox="0 0 746.36999 746.36997"><g transform="matrix(1.33333 0 0 -1.33333 -19.344 923.782)"><circle cx="294.39667" cy="-412.94775" r="279.88876" style="fill:#fff;stroke-width:.283465" transform="scale(1 -1)"/><path d="M566.731 412.44c0-150.285-121.835-272.122-272.121-272.122S22.488 262.155 22.488 412.439c0 150.286 121.836 272.122 272.122 272.122S566.73 562.725 566.73 412.439z" style="fill:#1c63b7;fill-opacity:1;fill-rule:nonzero;stroke:none"/><path d="M186.769 212.377c-1.07-.348-1.965-1.249-2.734-2.754-2.214-4.334.243-5.773 3.089-7.439l1.337-.767c1.654-.917 2.211-1.226 1.413-2.79-.754-1.476-1.086-1.844-3.638-.541-2.727 1.393-2.983 1.74-2.29 3.1l.5.976-3.424 1.746-.499-.974c-.76-1.49-.959-2.738-.608-3.817.384-1.185 1.386-2.027 2.629-2.77.623-.372 3.366-1.764 3.92-2.005 1.422-.618 2.72-.952 3.88-.576 1.123.363 2.063 1.351 2.962 3.11.63 1.237.944 2.192.944 2.996 0 1.815-1.59 2.87-4.7 4.7-1.864 1.106-2.518 1.52-2.518 2.12 0 .307.169.661.433 1.18.323.631.562.914.856 1.009.528.172 1.475-.225 2.932-.97 2.071-1.057 2.326-1.294 1.671-2.577l-.392-.768 3.422-1.746.392.766c2.188 4.287-.756 5.79-3.603 7.244-2.443 1.248-4.303 2.088-5.974 1.547zM200.877 202.686l4.534-1.827-5.204-12.919 3.564-1.436 5.204 12.92 4.543-1.83 1.265 3.14-12.64 5.093zM210.339 184.087l3.782-1.296 2.009 2.649 6.38-2.19-.007-3.34 3.712-1.273.082 18.279-4.896 1.68-11.062-14.509m12.363 10.123-.08-7.76-4.602 1.58 4.682 6.18zM231.748 177.024l3.752-.86 2.584 12.353 1.84-13.367 3.225-.74 7.515 11.402-3.091-12.416 3.752-.862 3.87 16.877-5.644 1.295s-6.078-9.47-6.814-10.614l-1.583 12.539-5.535 1.27zM258.504 171.388l3.826-.398 1.113 13.036 5.267-13.702 5.795-.603 1.794 17.21-3.828.4-1.1-12.984-5.29 13.65-5.784.603zM281.555 174.362c-.154-4.892 2.968-5.38 7.066-5.508 4.12-.13 7.283.16 7.436 5.052l.382 12.164-3.84.12-.382-12.163c-.046-1.468-.51-1.881-3.49-1.788-1.749.055-2.623.247-3.015.665-.243.26-.338.659-.317 1.337l.382 12.163-3.84.121zM315.647 187.344l-3.399-12.14-5.194 11.523-5.663-.407 1.239-17.27 3.847.276-1.145 12.568 5.664-12.244 3.309.238 3.849 13.077.668-12.752 3.848.276-1.238 17.27zM340.874 191.135l-1.928-12.462-6.53 10.82-5.583-1.085 3.302-16.996 3.787.735s-2.1 9.794-2.645 12.343l7.092-11.479 3.257.633 2.252 13.444 2.195-12.58 3.778.733-3.302 16.996zM352.056 193.766l4.569-16.701 11.709 3.205-.893 3.265-7.994-2.187-.995 3.634c.573.158 7.528 2.06 7.528 2.06l-.862 3.152-7.528-2.06-.925 3.382 7.932 2.17-.895 3.267zM376.96 198.038c1.056.388 1.61.472 1.978.302.377-.175.683-.674 1.09-1.783.26-.707.406-1.23.406-1.639 0-.805-.565-1.183-1.956-1.693l-3.665-1.345-1.737 4.733 3.884 1.425m6.507.328c-1.318 3.593-3.112 4.418-6.863 3.15l-8.302-3.047 5.965-16.256 3.606 1.325-1.9 5.18 4.303 1.58c1.16.394 1.922-.034 2.405-1.346l1.18-3.218 3.614 1.327-1.18 3.218c-.65 1.77-1.47 2.963-3.14 2.96.759.68 1.03 1.44 1.03 2.238 0 .933-.361 1.919-.718 2.889zM394.682 209.54l1.608-2.98s7.18 3.87 8.01 4.319l.274-15.677 3.669 1.98-.475 15.467-1.65 3.058zM173.506 211.023c-16.187 9.774-31.299 21.584-45.013 35.3-44.373 44.372-68.81 103.367-68.81 166.116 0 50.522 15.84 98.61 45.173 138.592l-2.757 2.024C72.336 512.49 56.263 463.7 56.263 412.439c0-63.663 24.793-123.517 69.81-168.536 13.924-13.923 29.265-25.91 45.7-35.83zM417.446 208.073c16.435 9.92 31.776 21.907 45.699 35.83 45.019 45.02 69.812 104.873 69.812 168.536 0 51.26-16.074 100.051-45.837 140.616l-2.757-2.024c29.332-39.982 45.173-88.07 45.173-138.592 0-62.75-24.437-121.744-68.81-166.117-13.714-13.715-28.826-25.525-45.014-35.299z" style="fill:#fff;fill-opacity:1;fill-rule:nonzero;stroke:none"/><path d="M494.017 412.44c0-110.127-89.28-199.408-199.408-199.408-110.126 0-199.407 89.28-199.407 199.407 0 110.127 89.28 199.408 199.407 199.408 110.128 0 199.408-89.28 199.408-199.408z" style="fill:#fff;fill-opacity:1;fill-rule:nonzero;stroke:none"/><path d="m131.667 617.933-11.613-11.201 3.792-22.446-2.871-2.77-13.044 13.523-9.598-9.257 34.693-35.969 9.598 9.257-13.596 14.096 2.873 2.77 23.62-4.426 11.892 11.47-31.388 5.086zM178.926 610.571l-5.13 21.907.11.061 15.886-15.984-10.866-5.984m-18.937 25.715 10.955-51.016 12.142 6.685-1.977 8.71 15.711 8.65 6.406-6.27 11.919 6.562-37.416 36.447zM234.229 633.662l.776 22.485.123.03 11.146-19.583-12.045-2.932m-11.57 29.767-2.75-52.101 13.467 3.277.37 8.923 17.424 4.241 4.545-7.726 13.212 3.215-26.582 44.963zM311.788 662.034c3.992-.243 8.319-.439 8.272-5.51l13.503-.823c.964 15.825-8.222 16.46-21.11 17.246-14.643.893-23.833-1.02-24.838-17.513l-.787-12.905c-.986-16.172 6.829-19.315 22.536-20.273 17.825-1.086 22.265 1.71 23.29 18.54l.532 8.718-22.686 1.383-.563-9.242 9.182-.56c-.422-6.93-2.304-8.339-9.09-7.925-6.93.422-9.928 1.536-9.389 10.381l.495 8.12c.616 8.036 1.066 10.948 10.653 10.363M358.003 635.229l20.41-6.187 2.685 8.861-20.41 6.186 2.65 8.74 21.744-6.59 3.168 10.455-34.497 10.456-14.498-47.835 34.942-10.59 3.172 10.464-22.189 6.725zM419.892 595.735l-.455.276 7.643 40.267-19.265 11.675-25.91-42.754 11.406-6.912 19.213 33.255.456-.275-7.818-40.162 19.432-11.776 25.91 42.754-11.397 6.906zM464.681 611.12l-8.164-8.23 9.083-9.01-27.028-27.249 9.475-9.397 27.027 27.25 9.551-9.473 8.165 8.231z" style="fill:#fff;fill-opacity:1;fill-rule:nonzero;stroke:none"/><path d="m416.204 516.051 17.9-16.716c4.633-4.327 5.501-4.948 5.026-7.323-.475-2.375-.806-3.16-1.305-4.24-.672-1.441-3.125-4.693-3.171-4.737 6.015-8.62 13.87-21.321 13.87-28.854 0-4.406-6.54-7.194-6.54-7.194 3.578-1.784 6.406-3.91 9.603-8.294 4.485-6.152 10.565-16.792 13.226-26.165 2.66-9.373 2.833-13.092.91-15.35-1.771-1.764-4.818-1.786-6.687-1.786h-4.527s-.018-8.277 2.273-14.431c.175-.46.507-1.914.443-2.17-.755-3.24-4.075-4.857-4.075-4.857s4-3.053 4-7.036c0-4.002-7.072-8.498-6.503-10.302 1.905-6.114 2.723-5.931 3.055-11.46 1.564-25.716-32.716-12.885-46.392-32.962-3.512-4.986-6.705-11.56-10.899-17.512 1.214-7.229 2.484-19.774 2.484-19.774l-3.136 2.5c.552-2.352 1.177-5.122 1.212-6.042.03-.662-3.034-13.648-3.283-19.708-1.544 5.067-8.193 8.753-12.592 11.266-3.264 1.866-6.104 3.486-7.025 5.785l-3.212 7.99c-2.73 6.873-5.83 14.645-8.01 19.473a234.97 234.97 0 0 1-2.472 5.316l.78-4.203c.395-1.995.829-7.1.644-20.168-.065-4.914-3.127-21.071-3.246-21.764l-.653-3.375-3.412 3.891c-.222-2.512-.514-5.455-.791-6.391-.193-.663-.847-1.325-1.894-2.448-2.457-2.601-6.688-10.154-8.71-16.094-1.666 5.435-5.997 11.31-9.971 15.192-2.961 2.888-5.537 5.383-5.757 7.956l-.727 8.97c-.442 5.451-.91 11.42-1.398 16.388-8.857-14.265-20.28-28.715-33.698-43.54-1.731-1.904-4.094-1.821-5.225.167l-12.573 22.097c-1.021 1.806-.579 4.37.938 5.758 8.702 7.91 16.38 15.637 22.958 23.188 0 0-6.427-6.55-15.546-11.87-9.12-5.32-23.35-11.29-23.35-11.29 1.139 1.99 2.234 3.976 3.274 5.962-3.201-1.676-7.083-3.466-8.407-3.837-.93-.412-22.396-4.203-27.077-4.634 3.256 3.161 12.812 18.58 14.19 21.631 2.807 6.218 5.554 8.697 11.16 13.923 5.604 5.224 9.94 9.356 9.94 9.356s-12.79-10.971-16.686-14.582c-3.894-3.61-8.075-6.935-14.25-11.78-6.175-4.845-11.702-9.158-11.702-9.158a69.24 69.24 0 0 0 .229 5.988c-3.31-2.042-17.144-8.95-21.742-11.268 0 0-.003 5.129 2.784 17.795 2.787 12.667 7.131 17.753 7.131 17.753-.543-.524-8.802-8.627-9.584-9.74a69.596 69.596 0 0 0-.249 6.208c-1.811-2.621-25.366-7.57-30.397-11.544 0 0 6.372 19.11 8.652 24.303 3.394 7.73 11.104 15.634 11.104 15.634s-10.841-5.959-16.039-10.163c.413 2.043.946 4.12 1.571 6.199-2.556-2.041-8.836-7.047-11.713-9.004-4.766-3.24-11.077-7.597-12.172-8.693-1.916 12.846 1.029 24.647 4.956 30.854 3.927 6.207 11.801 13.885 11.801 13.885-5.932-3.276-10.668-6.55-11.081-6.835a108.497 108.497 0 0 1-4.121-2.97 99.708 99.708 0 0 0 2.713 6.99c-4.672-.406-19.048-.296-24.741-.673 4.717 13.31 7.189 20.51 10.482 23.296 3.293 2.786 9.615 8.73 9.615 8.73-4.912-.211-20.474 3.396-25.405 3.762 3.617 2.64 13.99 19.094 24.531 24.639-4.893-1.223-9.033-2.281-9.999-2.547 2.254 2.374 6.366 4.388 8.361 6.309-4.91 1.012-20.427.376-25.642 3.402 4.065 5.097 13.824 20.261 18.421 22.157 4.72 1.951 10.247 4.093 16.051 6.219 1.536.569 3.099 1.122 4.681 1.682a404.265 404.265 0 0 1-12.95-3.136 335.65 335.65 0 0 1-5.72-1.547 276.137 276.137 0 0 0 5.951 5.87c-4.754.79-17.558 1.563-23.685 4.118 3.772 4.995 19.665 22.784 25.67 24.844 6.283 2.153 18.736 6.392 26.535 8.746 0 0-1.582.118-7.915-.768-6.334-.887-9.982-1.668-9.982-1.668 2.226 1.682 5.398 5.352 7.1 7.118-4.654.524-21.816.673-30.14 1.187 8.461 8.838 15.332 21.807 26.488 24.731a359.45 359.45 0 0 0 17.29 3.9c.81.167 1.63.322 2.448.477-4.82.387-8.646.7-9.391.645 2.117 1.536 10.945 2.612 13.114 4.102-4.21-.506-27.646 1.278-33.937 1.775 4.253 3.18 17.146 15.879 28.95 20.43 7.693 2.41 11.746 3.296 17.101 3.685-10.42 1.914-21.86 4.159-24.906 4.866 3.517 1.206 21.197 9.596 33.202 13.578 3.565 1.182 10.623 2.35 11.81 2.58-6.254 2.577-12.407 4.784-14.55 4.555 0 0 12.143 4.052 26.583 7.6 14.44 3.546 18.62 5.7 41.8 4.812 23.18-.886 30.285-1.652 30.285-1.652L298.312 587s13.647-2.7 38.313-13.352c33.44-14.44 42.107-24.854 42.107-24.854l.683 2.953 7.798-4.847 4.967 3.935 1.61-6.75 6.768 1.509v-.019l-1.47-7.744 5.252-1.674-2.109-3.56 1.016-6.06 10.38-10.477s1.025 1.326 2.577-.009z" style="fill:#1c63b7;fill-opacity:1;fill-rule:nonzero;stroke:none"/><path d="M389.964 336.97c8.026-6.872 19.277-5.437 45.16-5.98 5.83 0 15.1 2.411 14.924 13.225-.246 15.426-8.718 8.62-8.486 10.047.945 4.653 17.06 12.636 9.546 16.792-5.326 4.84-20.308-.173-21.882-1.508-1.572-1.335-3.153-1.257-2.105-.175 2.53 2.917-5.004 5.17-1.692 6.485 2.99 1.176 9.61-2.152 19.103-.276 10.171 2.024 7.671 12.011 6.962 14.927-.708 2.915-2.842 5.363-2.842 5.363-4.654 0-6.945-4.186-11.276-4.186-3.062 0-5.168.285-6.548 1.17-.488.312-2.135 3.108-.626 6.317-2.639-1.977-9.135-6.935-13.586-11.101-3.622-3.383-5.231-6.787-5.655-9.566-.072-.515-.441-9.425-.625-12.24-.165-2.356-1.038-1.952-1.038.247 0 1.205-.112 9.42-.112 10.11 0 5.931-1.664 8.312 5.251 13.445 0 0 15.223 13.078 16.068 13.685 6.476 4.683 8.6 7.34 4.341-.146-4.266-7.496.746-11.939 6.632-6.871 2.823 2.456 5.05 3.864 7.202 3.917 3.218.083 4.542-.726 6.612-1.36 2.438-.755 6.695-.03 7.91 1.277 3.726 3.727-7.533 25.33-12.785 33.535-5.26 8.195-9.04 7.569-11.884 6.833-3.154-.82-1.644-12.821-12.598-13.86-4.829 0 6.603 5.436-4.037 8.14-2.66.68-6.873 1.323-10.458.737-3.846-.617-7.514 1.304 2.262 4.881 3.073 1.123 5.693 1.997 7.679 4.093 1.858 1.952 4.195 3.531 3.11 4.518-8.525 7.706-18.194-5.475-34.196-5.675-3.467-10.46-5.472-19.673-11.406-27.868.793-1.666 2.18-5.777 2.282-6.127 1.31-4.873 6.317-9.752 10.971-13.502 4.238-3.156 9.084-5.722 8.513-6.861-.57-1.14-.913.071-7.39 3.55-2.124 1.075-4.533 2.038-6.843 2.402-2.878.45-4.037-.321-4.82-1.979-1.71-8.268-6.281-15.498-12.637-20.61 3.802-5.032 8.054-12.43 12.225-23.297 1.682-4.59 3.117-7.665 8.774-12.508z" style="fill:#fff;fill-opacity:1;fill-rule:nonzero;stroke:none"/><path d="M401.24 306.527c-2.18-4.02-3.856-6.606-5.481-8.518-4.137 15.284-8.554 22.82-8.554 22.82l2.658-.599-.533 2.234c-1.232 5.198-2.568 10.175-3.975 14.79 5.97-7.137 17.604-9.225 31.079-10.485-2.823-2.529-9.557-5.48-15.194-20.242zM384.27 328.987c-7.36 1.136-13.336 2.834-13.336 2.834l-10.539 35.831c1.527.646 5.922 3.164 6.659 3.689 0 0 5.386-7.104 9.851-18.695 4.466-11.59 7.365-23.66 7.365-23.66zM358.776 313s-.87 7.062-2.675 15.421c-1.806 8.36-5.13 22.8-6.27 28.025-1.14 5.225-.17 8.577-.17 8.577 5.149.597 8.03 1.626 8.03 1.626l2.665-8.443 8.527-26.984s-4.043-5.935-6.322-10.21a92.402 92.402 0 0 1-3.785-8.012ZM324.23 337.556c-5.805-20.665-23.26-43.62-23.26-43.62.672 4.322 1.922 10.107 1.821 23.454l-23.737-3.017c2.97 1.727 5.895 3.449 8.736 5.206 6.98 4.313 13.318 8.644 18.874 13.141 5.536 4.471 10.291 9.078 14.172 13.74a71.657 71.657 0 0 1 5.768 7.995s.524-6.245-2.375-16.899zM401.415 505.972a207.477 207.477 0 0 0 6.252 5.38l-13.629 13.447-6.007-.792-.624-5.637zM423.019 487.64c-13.983-8.983-36.694-26.495-58.55-56.111-.717.413-2.17 1.167-2.17 1.167l-6.642 7.487 12.473-.81s-7.036 12.259-7.036 12.278l13.898-3.77s-6.394 15.599-6.376 15.644l15.636-4.645s-7.007 16.207-6.971 16.252l16.223-6.125-6.418 17.043 18.337-7.359-7.724 18.7c.086.086 18.53-9.465 18.53-9.465s-7.163 19.683-7.115 19.719l21.429-10.153 3.623-3.368s-4.553-2.306-11.147-6.484zM389.825 494.917a255.493 255.493 0 0 0 6.006 5.904l-14.375 12.729-5.564-1.58-.983-5.623zM378.963 483.07a238.232 238.232 0 0 0 5.63 6.328l-13.676 10.484-4.287-2.188-1.637-5.555zM369.04 470.599a184.275 184.275 0 0 0 5.086 6.612l-11.57 7.21-4.545-2.731-.458-4.957zM360.311 457.703a207.196 207.196 0 0 0 4.323 6.686l-11.092 5.933-5.095-2.778.469-5.02zM353.045 444.697a159.617 159.617 0 0 0 3.414 6.44l-8.463 3.578-4.195-3.046 1.398-4.505zM349.137 436.236c.22.525.442 1.048.67 1.563l-6.676 2.097-2.455-2.345.808-1.58c1.675.238 3.376.366 5.105.366.865 0 1.712-.036 2.548-.1zM432.354 445.968c-.44-.349.579.984.579 1.425 0 .563-.267 1.168-1.674.865-1.424-.313-3.375-1.094-5.665-3.515-3.89-4.128-5.757-4.928-3.65-4.928.855 0 .302.368 2.943.368 1.406 0 3.816 4.369 6.767 4.369 2.954 0 1.711-1.408 3.267 0 .377.394-.075 1.058-.883 1.635-.441.333-.837.462-1.684-.22z" style="fill:#fff;fill-opacity:1;fill-rule:nonzero;stroke:none"/><path d="M396.777 459.513a88.63 88.63 0 0 1-3.29-7.08c13.253-4.185 16.913.295 25.567 1.73 6.844 1.133 9.621-1.528 18.23-1.528 10.089 0 6.972 6.328 5.739 10.34-3.07 10.042-11.028 19.644-14.596 23.598-6.187-3.746-14.871-9.643-24.779-18.145-3.087-2.637-4.193-3.89-6.87-8.915zM344.023 364.976l-.111-47.137s-6.012-3.781-10.137-7.563c-4.56-4.18-7.705-7.344-7.705-7.344s1.53 7.344 3.43 25.394c1.9 18.05 2.028 20.016 5.29 27.773l-3.2-.982s3.573 7.9 5.444 11.074c0 0 2.701-1.046 6.989-1.215zM347.896 354.269l-1.362-3.09-.788-33.873 10.07-4.844s-2.28 12.444-4.75 23.655c-2.47 11.21-3.17 18.152-3.17 18.152zM324.138 310.637l-6.513-.17 5.198-9.23s1.178 3.966 1.315 9.4zM324.68 284.482s-7.15-12.11-19.025-26.55c-11.875-14.44-16.21-18.548-16.21-18.548l-12.866 21.387s14.542-6.64 23.186-9.11c0 0 .095 3.42-2.944 12.635-3.04 9.216-4.129 12.487-4.129 12.487s15.805-4.628 22.792-5.327c0 0-2.798 8.325-4.888 13.266-2.09 4.94-3.8 8.834-3.8 8.834s13.795-3.108 17.157-3.833zM317.886 379.36s3.358-5.36 12.047-10.336c0 0-1.668-12.103-18.293-28.253s-39.52-26.6-42.18-28.31c0 0 3.297 14.351 4.451 18.908 0 0-4.406 3.073-26.8 4.718 0 0 11.52 5.73 26.53 13.234 15.01 7.505 37.095 23.219 44.245 30.04z" style="fill:#fff;fill-opacity:1;fill-rule:nonzero;stroke:none"/><path d="M314.351 385.218s.858-1.931 2.494-4.379c0 0-15.085-12.327-34.655-23.538-22.709-13.008-42.276-20.38-54.578-29.427l5.05-.367-25.505-20.869 19.535 19.01-4.432.589s21.329 14.552 28.042 17.916c0 0 1.032 3.227 1.83 4.625 0 0-12.931 5.584-28.154 6.199 0 0 7.293 4.224 41.682 15.625 34.39 11.4 48.691 14.616 48.691 14.616z" style="fill:#fff;fill-opacity:1;fill-rule:nonzero;stroke:none"/><path d="M311.115 396.45s.676-5.901 2.263-8.988c0 0-27.768-8.406-46.863-14.39-19.095-5.985-36.67-10.756-57.38-21.671l5.02-.865-29.448-17.466 23.296 16.205-6.272 1.084s13.71 7.417 35.732 16.015l1.397 5.813s-13.079 3.868-24.87 6.271c0 0 31.436 8.293 51.86 12.854 20.425 4.56 32.009 5.524 45.265 5.137z" style="fill:#fff;fill-opacity:1;fill-rule:nonzero;stroke:none"/><path d="M198.31 375.177s10.16 4.26 19.85 7.11c9.69 2.85 46.93 12.35 61.94 15.01 14.78 2.619 30.784 2.168 30.784 2.168-.376 10.53 4.46 18.44 4.46 18.44s-7.979 3.141-27.454.576c-19.475-2.564-67.64-8.837-80.798-12.54 0 0 22.875-4.773 33.36-6.614l-7.496-11.064s-26.83-6.277-40.764-13.584l5.088-1.186-20.915-15.73 26.01 16.43z" style="fill:#fff;fill-opacity:1;fill-rule:nonzero;stroke:none"/><path d="M317.112 420.776s3.173 4.83 7.923 8.44l-6.71 10.266s-12.004 1.894-23.595 1.8c-11.59-.095-60.226-4.43-83.645-9.055 0 0 22.776-6.769 30.221-13.06l-2.38-2.623s-36.204-4.982-48.72-10.262l4.774-1.67-26.22-14.725 31.553 14.831-3.953 1.406s7.254 3.157 48.157 9.372c40.903 6.216 59.542 8.146 72.595 5.28z" style="fill:#fff;fill-opacity:1;fill-rule:nonzero;stroke:none"/><path d="m323.422 463.729 3.162-7.478-4.846-2.842 3.392-5.858-6.46-5.32s-12.444 3.325-38.474 1.52c-26.031-1.805-73.402-8.635-79.974-10.777l3.919-1.63-38.537-13.097 33.082 13.25-4.617 2.008s21.621 5.592 38.911 7.112l5.854 7.402-27.86 10.688s30.272 4.14 60.386 6.324c30.116 2.186 37.434.815 52.062-1.302z" style="fill:#fff;fill-opacity:1;fill-rule:nonzero;stroke:none"/><path d="m331.292 482.123 1.39-4.728-5.05-1.988 2.696-6.62-5.353-2.732s-14.664 3.726-32.62 3.157c-17.955-.57-77.464-6.19-88.987-8.795l3.844-1.811-36.413-10.523 31.235 10.909-4.792 2.253s20.406 4.3 42.18 5.564l7.904 8.293s-10.167 8.48-29.261 16.162c0 0 14.25 1.223 51.68.273 37.43-.95 52.699-6.573 61.547-9.414z" style="fill:#fff;fill-opacity:1;fill-rule:nonzero;stroke:none"/><path d="m341.484 508.39 2.272-7.753-8.296-2.244 2.64-9.712-6.015-3.607s-17.595 7.697-51.51 9.028c-33.915 1.33-65.544.903-73.575-.879l3.818-2.05-24.281-5.05 19.011 5.768-4.783 2.555s19.602 3.449 54.789 2.218c0 0 7.731 6.748 11.056 8.933 0 0-13.336 11.804-28.043 19.202 0 0 28.614-1.628 57.304-5.903 28.69-4.274 34.797-6.288 45.613-10.506z" style="fill:#fff;fill-opacity:1;fill-rule:nonzero;stroke:none"/><path d="m353.772 531.54 1.738-8.397-9.794-.47 3.845-8.893-7.736-1.923s-10.804 5.235-38.165 8.844c-27.36 3.61-61.334 7.59-72.847 6.646l3.614-2.448-34.792-3.437 29.606 4.735-4.508 3.06s18.095.816 46.089-2.73l13.106 6.696s-13.803 12.558-26.153 19.683c0 0 19.855-1.33 52.346-7.79 32.49-6.46 43.651-13.576 43.651-13.576z" style="fill:#fff;fill-opacity:1;fill-rule:nonzero;stroke:none"/><path d="m366.263 540.93 1.793-6.658-10.273-.23s-12.893 7.084-43.957 13.45c-31.066 6.364-57.88 9.476-63.9 9.203l3.274-2.585-30.61-2.005 25.753 3.505-4.083 3.246s26.394-.544 57.005-7c0 0-10.036 12.265-17.596 18.533 0 0 19.706-4.468 41.936-11.307 19.848-6.107 29.446-10.18 40.658-18.153z" style="fill:#fff;fill-opacity:1;fill-rule:nonzero;stroke:none"/><path d="m378.14 543.597-11.143-.726s-8.997 7.09-23.342 12.695c-14.344 5.605-53.848 16.655-68.391 18.493l2.62-2.787-28.183 1.965h23.654l-3.012 3.425s20.05-2.218 48.25-11.23c0 0-5.506 9.3-12.831 16.675 0 0 19.953-6.189 41.598-16.566 25.366-12.16 30.78-21.944 30.78-21.944zM379.64 400.673c0-18.245-14.791-33.04-33.04-33.04-18.248 0-33.04 14.795-33.04 33.04 0 18.246 14.792 33.04 33.04 33.04 18.249 0 33.04-14.794 33.04-33.04z" style="fill:#fff;fill-opacity:1;fill-rule:nonzero;stroke:none"/><path d="m347.416 383.352 2.724 9.74 9.214-4.139a.611.611 0 0 1 .736.166.622.622 0 0 1 .028.754l-5.913 8.204 8.985 4.626a.59.59 0 0 1 .323.672.61.61 0 0 1-.58.496l-10.091.486 1.987 9.907a.635.635 0 0 1-.331.68.641.641 0 0 1-.745-.138l-6.676-7.595-6.512 7.733a.607.607 0 0 1-.736.166.617.617 0 0 1-.34-.67l1.766-9.962-10.107-.255a.64.64 0 0 1-.59-.481.64.64 0 0 1 .314-.69l8.884-4.82-6.089-8.065a.603.603 0 0 1 0-.754.612.612 0 0 1 .736-.191l9.307 3.934 2.513-9.795a.617.617 0 0 1 .587-.46c.285 0 .533.193.606.451zM324.251 407.24a23.347 23.347 0 0 0 10.963 13.753l-2.305 4.705c-6.575-3.606-11.576-9.729-13.704-17.071zM322.919 384.777a28.386 28.386 0 0 0-4.838 15.896c0 1.803.168 3.567.487 5.277l5.062-1.429a23.4 23.4 0 0 1-.317-3.848c0-4.782 1.442-9.228 3.915-12.927zM366.918 380.66c-5.113-5.19-12.2-8.432-20.045-8.505l.19 5.235a23.21 23.21 0 0 1 16.001 6.815zM369.321 405.8c-1.445 6.431-5.55 11.858-11.1 15.059l2.326 4.697c6.971-3.916 12.13-10.678 13.903-18.709zM374.91 404.15c.138-1.14.21-2.3.21-3.477a28.4 28.4 0 0 0-6.357-17.95l-3.882 3.523a23.188 23.188 0 0 1 5.006 14.427c0 .806-.04 1.602-.12 2.386zM344.096 372.262c-7.848.683-14.785 4.545-19.518 10.29l4.303 3.01c3.806-4.458 9.264-7.463 15.427-8.065zM335.409 426.914a28.429 28.429 0 0 0 11.191 2.279c4.077 0 7.954-.856 11.46-2.397l-2.317-4.698a23.206 23.206 0 0 1-9.143 1.863c-3.148 0-6.15-.624-8.89-1.756z" style="fill:#1c63b7;fill-opacity:1;fill-rule:nonzero;stroke:none"/></g></svg>