<svg xmlns="http://www.w3.org/2000/svg" viewBox="0.0 0.0 200.0 334.99" width="244.2819266209837" height="409.36307234532035">
  <defs>
    <style>
      .cls-1 {
        fill: #fff;
      }

      .cls-2 {
        fill: #a79467;
      }

      .cls-3 {
        fill: #e41f13;
      }
    </style>
  </defs>
  <g>
    <path class="cls-2" d="M179.22,130.61l-1.07-1.12c-9.35-9.85-6.41-21.79-5.29-25.22l.44-1.31.97.96c8.72,8.54,6.28,21.44,5.32,25.18l-.37,1.51"/>
    <path class="cls-2" d="M183.32,147.02l-.19-1.37c-1.36-9.81,3-14.27,4.94-15.73l1.11-.83.25,1.37c1.79,9.96-2.88,14.35-4.97,15.79l-1.14.77"/>
    <path class="cls-2" d="M179.04,153.82l-1.16-1.79c-5.68-8.7-5.12-15.99-4.62-18.72l.33-1.8,1.17,1.41c6.01,7.25,5.27,15.56,4.67,18.79l-.39,2.12"/>
    <path class="cls-2" d="M185.36,164.06l.09-1.3c.9-12.64,7.55-17.43,9.56-18.59l1.22-.71.06,1.41c.63,13.92-7.27,17.88-9.7,18.76l-1.23.43"/>
    <path class="cls-2" d="M181.61,176.32l-1.13-.98c-7.71-6.63-6.12-16.38-5.45-19.21l.38-1.57,1.08,1.19c6.66,7.29,5.99,15.78,5.38,19.09l-.26,1.47"/>
    <path class="cls-2" d="M185.93,187.81l.1-1.48c1.02-15.32,10.11-18.94,12.86-19.69l1.02-.27.05,1.06c.58,12.17-9.58,18.18-12.71,19.72l-1.33.66"/>
    <path class="cls-2" d="M178.43,198.39l-1.07-1.25c-7.8-9.2-4.46-17.83-3.25-20.25l.59-1.18.84,1.01c5.87,7.14,4.26,16.43,3.3,20.08l-.41,1.59"/>
    <path class="cls-2" d="M179.96,211.49l.5-1.62c4.66-15.19,12.39-17.33,14.65-17.62l.94-.12.02.95c.27,11.7-11.04,16.62-14.51,17.86l-1.6.55"/>
    <path class="cls-2" d="M169.9,223.36l-.65-1.32c-6.21-12.54-.79-19.76,1.01-21.68l.88-.93.53,1.17c5.02,11.34.54,19.35-.95,21.54l-.82,1.22"/>
    <path class="cls-2" d="M172.14,231.92l.63-1.42c4.67-10.64,15.58-13.31,18.8-13.87l1.66-.29-.75,1.51c-5.43,11.06-15.77,13.39-18.8,13.84l-1.54.23"/>
    <path class="cls-2" d="M154.34,244.18l-.17-1.39c-1.75-14.02,5.77-19.39,8.11-20.7l1.04-.57.22,1.17c2.38,12.55-5.56,19.03-8.04,20.71l-1.16.78"/>
    <path class="cls-2" d="M157.85,252.27c-.44,0-.82-.02-1.11-.04l-1.27-.08.56-1.15c5.03-10.25,14.76-11.79,20.11-11.79,1.52,0,2.76.12,3.52.22l1.56.21-1.01,1.2c-8.75,10.31-18.54,11.43-22.35,11.43"/>
    <path class="cls-2" d="M133.43,265.65l.09-1.62c.98-17.68,10.47-22.68,13.36-23.78l1.14-.44v1.24c.11,14.59-10.07,21.88-13.2,23.77l-1.39.83"/>
    <path class="cls-2" d="M143.27,272.1c-3.17,0-5.57-.65-6.71-1.05l-1.2-.4.82-.96c5.94-6.92,13.77-8.38,19.3-8.38,2.89,0,5.21.41,6.33.65l1.52.32-1.08,1.12c-7.06,7.18-14.22,8.7-18.98,8.7"/>
    <path class="cls-2" d="M120.37,289.07c-4.27,0-7.36-.81-8.83-1.3l-1.66-.55,1.44-.98c6.92-4.67,13.97-7.04,20.97-7.04,4.72,0,8.11,1.1,9.73,1.76l1.57.64-1.46.89c-7.23,4.36-14.55,6.58-21.76,6.58"/>
    <path class="cls-2" d="M104.21,283.96l.23-1.31c.51-3,3.99-18.16,22.05-22.49l1.49-.35-.47,1.44c-1.37,4.27-7.03,18.48-22,22.37l-1.29.34"/>
    <path class="cls-2" d="M20.78,130.61l1.07-1.12c9.35-9.85,6.41-21.79,5.29-25.22l-.44-1.31-.97.96c-8.72,8.54-6.28,21.44-5.32,25.18l.37,1.51"/>
    <path class="cls-2" d="M16.68,147.02l.19-1.37c1.36-9.81-3-14.27-4.94-15.73l-1.11-.83-.25,1.37c-1.79,9.96,2.88,14.35,4.97,15.79l1.14.77"/>
    <path class="cls-2" d="M20.96,153.82l1.16-1.79c5.68-8.7,5.12-15.99,4.61-18.72l-.33-1.8-1.17,1.41c-6.01,7.25-5.27,15.56-4.67,18.79l.4,2.12"/>
    <path class="cls-2" d="M14.65,164.06l-.09-1.3c-.9-12.64-7.55-17.43-9.56-18.59l-1.22-.71-.06,1.41c-.63,13.92,7.27,17.88,9.7,18.76l1.23.43"/>
    <path class="cls-2" d="M18.39,176.32l1.13-.98c7.71-6.63,6.11-16.38,5.45-19.21l-.38-1.57-1.08,1.19c-6.66,7.29-5.99,15.78-5.38,19.09l.26,1.47"/>
    <path class="cls-2" d="M14.07,187.81l-.1-1.48c-1.02-15.32-10.11-18.94-12.86-19.69l-1.02-.27-.05,1.06c-.58,12.17,9.58,18.18,12.71,19.72l1.34.66"/>
    <path class="cls-2" d="M21.57,198.39l1.07-1.25c7.8-9.2,4.46-17.83,3.25-20.25l-.59-1.18-.84,1.01c-5.87,7.14-4.26,16.43-3.3,20.08l.42,1.59"/>
    <path class="cls-2" d="M20.04,211.49l-.5-1.62c-4.66-15.19-12.39-17.33-14.65-17.62l-.94-.12-.02.95c-.26,11.7,11.04,16.62,14.51,17.86l1.6.55"/>
    <path class="cls-2" d="M30.1,223.36l.65-1.32c6.21-12.54.8-19.76-1.01-21.68l-.88-.93-.53,1.17c-5.02,11.34-.54,19.35.95,21.54l.82,1.22"/>
    <path class="cls-2" d="M27.86,231.92l-.63-1.42c-4.67-10.64-15.58-13.31-18.8-13.87l-1.66-.29.75,1.51c5.43,11.06,15.77,13.39,18.8,13.84l1.54.23"/>
    <path class="cls-2" d="M45.66,244.18l.17-1.39c1.75-14.02-5.77-19.39-8.11-20.7l-1.03-.57-.22,1.17c-2.38,12.55,5.56,19.03,8.04,20.71l1.15.78"/>
    <path class="cls-2" d="M42.15,252.27c.44,0,.82-.02,1.11-.04l1.28-.08-.56-1.15c-5.03-10.25-14.76-11.79-20.11-11.79-1.52,0-2.76.12-3.52.22l-1.56.21,1.01,1.2c8.75,10.31,18.54,11.43,22.35,11.43"/>
    <path class="cls-2" d="M66.57,265.65l-.09-1.62c-.98-17.68-10.47-22.68-13.36-23.78l-1.14-.44v1.24c-.11,14.59,10.08,21.88,13.2,23.77l1.39.83"/>
    <path class="cls-2" d="M56.73,272.1c3.17,0,5.57-.65,6.71-1.05l1.2-.4-.82-.96c-5.94-6.92-13.76-8.38-19.29-8.38-2.89,0-5.21.41-6.33.65l-1.52.32,1.08,1.12c7.06,7.18,14.22,8.7,18.97,8.7"/>
    <path class="cls-2" d="M79.63,289.07c4.27,0,7.36-.81,8.83-1.3l1.66-.55-1.44-.98c-6.92-4.67-13.96-7.04-20.97-7.04-4.72,0-8.11,1.1-9.72,1.76l-1.57.64,1.46.89c7.24,4.36,14.56,6.58,21.76,6.58"/>
    <path class="cls-2" d="M95.79,283.96l-.23-1.31c-.51-3-3.99-18.16-22.05-22.49l-1.49-.35.47,1.44c1.37,4.27,7.03,18.48,22.01,22.37l1.29.34"/>
    <path class="cls-2" d="M128.79,302.17c-8.54-2.78-23.15-8.12-28.17-13.45l-.62-.67-.62.66c-5.02,5.33-19.63,10.67-28.17,13.45-8.63-.99-17.15-2.38-25.52-4.12l-7.31,30.37c20.05,4.2,40.67,6.58,61.61,6.58s41.56-2.39,61.61-6.58l-7.3-30.37c-8.37,1.74-16.88,3.14-25.51,4.13h-.01ZM84.17,303.32c7.37-4.08,13.72-9.15,15.83-10.9,2.11,1.76,8.46,6.82,15.83,10.9-5.24.33-10.52.52-15.83.52s-10.59-.18-15.83-.52h0Z"/>
    <path class="cls-2" d="M171.19,286.35l-27.72,6.35.93,4.05c3.1-.54,6.21-1.1,9.27-1.74l2.95-.61,5.26,21.89,15.66-3.59-6.36-26.36h0Z"/>
    <path class="cls-2" d="M46.33,295.01c3.07.64,6.17,1.2,9.27,1.74l.93-4.05-27.72-6.35-6.36,26.35,15.66,3.59,5.26-21.89,2.95.61Z"/>
    <path class="cls-1" d="M80.04,313.76l-.49-1.9c.71-.21,1.32-.54,1.84-.97.53-.44.94-.91,1.26-1.44l.28.02,1.7,1.07-1.3,19.18-2.66-.18,1.1-16.18-1.72.4"/>
    <path class="cls-1" d="M90.24,319.79c-1.28-.32-1.9-1.16-1.86-2.52l.14-3.98c.08-2.3,1.19-3.42,3.35-3.35l1.66.06c2.15.07,3.19,1.26,3.12,3.57l-.14,4.02c-.05,1.35-.66,2.14-1.85,2.38,1.3.42,1.93,1.24,1.88,2.48l-.15,4.41c-.07,2.28-1.19,3.39-3.34,3.32l-2.05-.07c-2.15-.07-3.18-1.24-3.12-3.54l.15-4.43c.04-1.24.78-2.01,2.22-2.34M91.75,327.69l.71.02c.8.02,1.21-.45,1.25-1.42l.13-3.77c.03-.95-.47-1.44-1.49-1.48-1.06-.02-1.59.43-1.62,1.35l-.13,3.79c-.04.98.35,1.48,1.16,1.51h0ZM91.19,313.86l-.11,3.35c-.03.97.36,1.47,1.16,1.5h.31c.81-.09,1.22-.55,1.26-1.38l.11-3.36c.04-.98-.35-1.48-1.16-1.51h-.31c-.81-.05-1.22.42-1.26,1.4h0Z"/>
    <path class="cls-1" d="M103.01,325.45l.02.82c.02.98.44,1.45,1.24,1.43h.39c.71-.02,1.06-.42,1.04-1.21l-.12-4.89-1.66,1.16-.61.02c-2.15.05-3.25-1.13-3.31-3.52l-.12-5.65c-.05-2.36,1-3.56,3.15-3.61l1.78-.04c2.15-.05,3.26,1.11,3.31,3.46l.29,13.04c.05,2.4-.99,3.63-3.15,3.67l-1.6.03c-2.16.05-3.25-1.12-3.32-3.52l-.02-1.12,2.71-.09M105.59,320.25l-.14-6.69c-.01-.8-.47-1.2-1.35-1.18h-.31c-.81.03-1.2.44-1.18,1.24l.11,5.23c.02.97.44,1.45,1.24,1.43l1.64-.04h-.01Z"/>
    <path class="cls-1" d="M113.94,319.59c-1.31-.2-2-.98-2.08-2.32l-.25-3.99c-.14-2.3.87-3.52,3.01-3.65l1.66-.1c2.15-.14,3.29.95,3.43,3.25l.25,4.02c.08,1.35-.46,2.2-1.62,2.55,1.34.29,2.03,1.06,2.12,2.29l.26,4.41c.15,2.28-.86,3.49-3,3.62l-2.05.12c-2.15.13-3.3-.94-3.43-3.23l-.28-4.43c-.08-1.23.58-2.08,1.98-2.54M114.34,313.59l.21,3.34c.06.97.49,1.43,1.29,1.38l.31-.02c.79-.18,1.17-.69,1.12-1.51l-.21-3.37c-.06-.97-.49-1.43-1.3-1.38l-.3.02c-.81.06-1.19.58-1.12,1.54h0ZM116.19,327.31l.71-.04c.79-.05,1.18-.56,1.11-1.54l-.23-3.75c-.06-.96-.61-1.4-1.64-1.34-1.04.08-1.54.59-1.48,1.5l.23,3.78c.06.98.5,1.44,1.3,1.39h0Z"/>
    <path class="cls-2" d="M46.9,39.95c.45.67,10.74,12.34,18,20.55,10.98-3.9,22.79-6.02,35.1-6.02s24.12,2.12,35.1,6.02c7.26-8.21,17.55-19.88,18-20.55.09-.18.23-.33.38-.56.37-.45.86-1.11.75-1.66-.04-.32-.28-.65-.7-.93-.93-.57-3.13,1.41-4.55,2.73-.35.32-.7.64-1.04.92-.21.19-.5.46-.8.75-1.6,1.55-4.25,4.12-9.21,5.91-6.48,2.34-15.04,1.53-17.95.79-7.44-1.87-16.84-7.55-19.27-23.82,0,0-.1-.73-.72-.73s-.72.73-.72.73c-2.43,16.27-11.82,21.95-19.27,23.82-2.91.74-11.47,1.55-17.95-.79-4.96-1.79-7.62-4.36-9.21-5.91-.3-.3-.59-.56-.8-.75-.34-.28-.69-.6-1.04-.92-1.42-1.31-3.62-3.3-4.55-2.73-.42.29-.66.61-.7.93-.11.55.39,1.21.75,1.66.16.22.3.38.39.56h0Z"/>
    <path class="cls-2" d="M164.4,111.46c-2.51-22.37-5.55-42.25-6.06-45.46h-18.88c-12.5-5.31-25.8-8.1-39.46-8.1s-26.96,2.79-39.46,8.1h-18.87c-.51,3.21-3.55,23.08-6.06,45.46-3.58,32.16-4.38,54.81-2.3,65.5,2.19,11.29,6.38,28.2,17.32,44.78,11.26,17.08,27.42,30.86,49.38,42.12,21.96-11.26,38.13-25.04,49.38-42.12,10.93-16.58,15.13-33.49,17.32-44.78,2.08-10.7,1.29-33.34-2.3-65.5h0ZM100,66h-19.86c6.55-1.4,13.04-2.12,19.86-2.12s13.31.72,19.86,2.12h-19.86,0Z"/>
    <path class="cls-3" d="M64.65,74.63h-15.56c-1.2,8.18-3.18,22.32-4.91,37.79-4.64,41.63-3.5,57.27-2.41,62.89,2.04,10.55,5.94,26.34,16.05,41.68,2.08,3.16,4.36,6.19,6.83,9.12V74.63h0Z"/>
    <path class="cls-1" d="M150.91,74.63h-76.33v161.74c7.23,6.52,15.66,12.4,25.42,17.73,18.61-10.16,32.44-22.32,42.18-37.1,10.12-15.35,14.01-31.13,16.05-41.68,1.1-5.62,2.24-21.27-2.41-62.9-1.73-15.47-3.71-29.61-4.91-37.78h0Z"/>
    <path class="cls-2" d="M129.67,179.22c-4.22,13.64-10.86,13.25-11.15,13.21l-.35-.03-.12-.31c-1.89-4.44-4.98-26.43-4.98-38.09,0-10.41,3.95-49.58,4.66-56.31l-15.96,7.82c5.58,17.38,3.21,75.05,1.92,84.29-.85,6.31-2.74,12.48-4.1,17-.57,1.86-1.02,3.33-1.24,4.35-.69,2.99-.29,4.98.03,5.42.42-.2,1.62-.99,2.88-1.84,3.1-2.09,7.8-5.21,12.32-7.52,3.28-1.66,6.91-3.26,9.84-4.56,2.9-1.25,5.89-2.58,6.23-2.99.7-.82,2.1-4.14,2.55-10.76.3-4.25-1.52-7.98-2.53-9.68"/>
    <path class="cls-2" d="M100.42,146.25c.63-5.61.35-17.08.3-18.69-1.08-1.25-8.13-9.83-7.4-19.58.45-6.04,5.22-13.34,13.2-14.9,13-2.55,27,8.86,29.69,11.19l11.38-13.51c-14.3-9.19-29.58-12.57-45.38-10.05-12.26,1.96-20.4,11.72-22.8,19.95-1.68,5.76-3.15,14.96,3.46,28.04,5.34,10.58,14.9,16.16,17.56,17.55M143.63,158.26c-8.01-10.68-22.15-18.41-25.58-20.17-.21,3.17-.77,14.46.19,17.96,1.67,1.15,14.56,10.41,17.33,19.52,2.58,8.43,3.31,21.38-2.3,32.36-1.68,3.29-6.69,11.68-16.68,18.14-10.02,6.49-21.76,8.97-34.9,7.38,1.97,2.48,8.23,9.17,21.19,13.51,2.43-1.23,26.53-14.03,38.84-36.94,6.3-11.7,9.36-21.62,9.36-30.35,0-7.69-2.44-14.71-7.45-21.41h0Z"/>
    <path class="cls-2" d="M110.33,7.66h-6.74c-.52,0-1.06-.4-1.22-.89l-2.08-6.41c-.08-.25-.19-.37-.29-.37s-.21.12-.29.37l-2.08,6.41c-.16.49-.71.89-1.22.89h-6.74c-.51,0-.6.25-.18.55l5.45,3.96c.42.3.63.95.46,1.44l-2.08,6.41c-.16.49.05.64.47.34l5.44-3.97c.21-.15.49-.22.76-.22s.55.07.76.22l5.44,3.97c.42.31.63.15.47-.34l-2.08-6.41c-.17-.49.05-1.14.46-1.44l5.45-3.96c.43-.3.35-.55-.17-.55h-.01Z"/>
  </g>
</svg>