<svg viewBox="0 0 127 71.702" xml:space="preserve" xmlns="http://www.w3.org/2000/svg"><path fill="#015aff" fill-rule="evenodd" paint-order="stroke markers fill" d="M0 0h127v71.702H0z"/><path class="st0" d="M53.385 7.707a2.034 2.034 0 0 0-2.493 1.396l-1.495 5.185L45.74 8.57c-.632-.93-1.895-1.196-2.825-.565a2.036 2.036 0 0 0-.831 1.13l-2.759 9.506c-.233 1.097.465 2.193 1.562 2.426.997.233 1.994-.332 2.36-1.296l1.496-5.185 3.689 5.717c.631.93 1.894 1.196 2.825.598a2.03 2.03 0 0 0 .83-1.13l2.726-9.506c.266-1.096-.332-2.226-1.429-2.559zm16.651 0c-1.063-.299-2.193.333-2.526 1.396l-.963 3.39H61.96l.631-2.26a2.07 2.07 0 0 0-1.395-2.526 2.07 2.07 0 0 0-2.526 1.396l-2.726 9.506a2.07 2.07 0 0 0 1.396 2.526 2.07 2.07 0 0 0 2.526-1.396l.997-3.357h4.587l-.632 2.26a2.03 2.03 0 0 0 1.496 2.46c1.03.265 2.094-.333 2.426-1.363l2.725-9.506a2.106 2.106 0 0 0-1.429-2.526zm17.184.731c-.665-.897-1.962-1.063-2.859-.398l-5.75 4.353.632-2.16a2.07 2.07 0 0 0-1.396-2.526 2.07 2.07 0 0 0-2.526 1.396l-2.726 9.506a2.07 2.07 0 0 0 1.396 2.526 2.07 2.07 0 0 0 2.526-1.396l1.164-4.088c0 .033.033.033.066.066s.033.067.067.1l4.42 4.753c.366.432.93.664 1.496.664 1.13 0 2.027-.897 2.027-2.027 0-.532-.2-1.03-.532-1.396l-2.891-3.091 4.487-3.423c.897-.665 1.063-1.961.398-2.859z" fill="#fff"/><g fill="#fff"><path d="M62.155 52.249c0 6.09-4.126 10.467-11.775 10.467H33.779V26.888h16.406c6.49 0 10.617 3.273 10.617 8.757 0 3.723-1.914 6.44-5.535 7.698 4.825 1.409 6.888 4.58 6.888 8.906zM39.861 31.965v9.408h9.008c3.977 0 5.837-1.911 5.837-4.83 0-2.92-1.759-4.578-5.485-4.578zm9.865 14.442c4.126 0 6.39 1.91 6.39 5.482v.008c0 3.523-2.163 5.636-6.553 5.628h-9.712V46.407z" clip-rule="evenodd" fill-rule="evenodd"/><path d="M66.476 51.344h5.939c.352 4.983 3.573 7.348 9.007 7.348 5.133 0 7.85-2.063 7.85-5.485 0-2.97-2.013-4.38-6.491-5.386l-5.837-1.348c-5.685-1.308-9.41-4.27-9.41-9.659 0-5.89 4.328-10.72 13.034-10.72 8.304 0 13.535 4.328 14.039 11.323h-5.888c-.453-4.075-3.47-6.341-8.201-6.341-4.428 0-6.996 2.012-6.996 5.132 0 2.365 1.562 3.876 5.183 4.682l6.742 1.558c6.09 1.41 10.014 4.479 10.014 10.265 0 6.342-4.679 10.97-14.09 10.97-9.007-.011-14.441-4.287-14.895-12.339z"/></g></svg>